<?xml version="1.0" standalone="no"?>
<!DOCTYPE svg PUBLIC "-//W3C//DTD SVG 1.1//EN" "http://www.w3.org/Graphics/SVG/1.1/DTD/svg11.dtd">
<svg version="1.1" id="uuid-7faa7c67-a1d5-43f2-b74a-be368563dc3f" xmlns="http://www.w3.org/2000/svg" xmlns:xlink="http://www.w3.org/1999/xlink" x="0px" y="0px" viewBox="0 0 1980 660" style="enable-background:new 0 0 1980 660;" xml:space="preserve" width="1980" height="660">
<style type="text/css">
	.st0{fill:#253238;}
	.st1{display:none;}
	.st2{display:inline;fill:none;}
</style>
<g>
	<path class="st0" d="M178.2,329.1c-5,0-9-4.2-9-9.2V186.1c0-5,4-9,9-9s9,4,9,9v133.8C187.2,324.9,183.2,329.1,178.2,329.1   L178.2,329.1L178.2,329.1z M209.4,310.1h39.4c4.8,0,9,4,9,9s-4.2,9-9,9h-39.4c-5,0-9-4-9-9S204.4,310.1,209.4,310.1z"/>
	<path class="st0" d="M289.8,329.1c-5,0-9-4-9-9c0-1.2,0.2-2.4,0.8-3.6l57.6-134c1.4-3.2,4.4-5.4,8.2-5.4c5,0,9,4,9,9   c0,1.2-0.2,2.4-0.8,3.6L321,270.1h32.4c5,0,9,4,9,9s-4,9-9,9h-40L298,323.7C296.6,326.9,293.6,329.1,289.8,329.1L289.8,329.1z    M365.4,219.1c3.8,0,6.8,2.2,8.2,5.4l39.6,92c0.6,1.2,0.8,2.4,0.8,3.6c0,5-4,9-9,9c-3.8,0-6.8-2.2-8.2-5.4l-39.6-92   c-0.6-1.2-0.8-2.4-0.8-3.6C356.4,223.1,360.4,219.1,365.4,219.1z"/>
	<path class="st0" d="M635.2,125.1c29.6,0,57.4,10.2,79,27.4c2,1.6,3.4,4.2,3.4,7c0,5-4,9-9,9c-2.2,0-4-0.8-5.6-2   c-19-15-41.8-23.4-67.8-23.4c-62.2,0-110.2,48-110.2,109.8c0,26.2,8.4,49,23.4,68.2c1.2,1.6,2,3.6,2,5.6c0,5-4,9-9,9   c-2.8,0-5.4-1.4-7-3.4c-17.2-22-27.4-49.6-27.4-79.4C507,182.3,564.2,125.1,635.2,125.1L635.2,125.1L635.2,125.1z M569.4,343.5   c1.8,0,3.6,0.6,5,1.4c17.8,11.8,37.8,18.2,60.8,18.2c61.8,0,109.8-48.2,109.8-110.2c0-22.8-6.4-42.8-18-60.4c-1-1.4-1.6-3.2-1.6-5   c0-5,4-9,9-9c3.2,0,5.8,1.6,7.4,4c13.4,20,21.2,44.4,21.2,70.4c0,70.8-57.2,128.2-127.8,128.2c-26.2,0-50.6-7.8-70.8-21   c-2.4-1.6-4-4.4-4-7.6C560.4,347.5,564.4,343.5,569.4,343.5L569.4,343.5L569.4,343.5z M694,177.1c5,0,9,4,9,9c0,2.6-1,5-2.8,6.6   l-59,55.4c-3.6,3.4-8.8,3.4-12.4,0l-59-55.4c-1.8-1.6-2.8-4-2.8-6.6c0-5,4-9,9-9c2.4,0,4.6,1,6.2,2.4l52.8,49.6l52.8-49.6   C689.4,178.1,691.6,177.1,694,177.1z M568.2,233.9c0-4.8,4-9,9-9s9,4.2,9,9v86c0,5-4,9.2-9,9.2s-9-4.2-9-9.2V233.9L568.2,233.9   L568.2,233.9z M683.8,233.9c0-4.8,4-9,9-9s9,4.2,9,9v86c0,5-4,9.2-9,9.2s-9-4.2-9-9.2V233.9L683.8,233.9L683.8,233.9z"/>
	<path class="st0" d="M777,329.1c-5,0-9-4-9-9c0-1.2,0.2-2.4,0.8-3.6l57.6-134c1.4-3.2,4.4-5.4,8.2-5.4c5,0,9,4,9,9   c0,1.2-0.2,2.4-0.8,3.6l-34.6,80.4h32.4c5,0,9,4,9,9s-4,9-9,9h-40l-15.4,35.6C783.8,326.9,780.8,329.1,777,329.1z M852.6,219.1   c3.8,0,6.8,2.2,8.2,5.4l39.6,92c0.6,1.2,0.8,2.4,0.8,3.6c0,5-4,9-9,9c-3.8,0-6.8-2.2-8.2-5.4l-39.6-92c-0.6-1.2-0.8-2.4-0.8-3.6   C843.6,223.1,847.6,219.1,852.6,219.1z"/>
	<path class="st0" d="M1018.6,300.7c5,0,9,4,9,9c0,3.2-1.6,6-4.2,7.6c-11.8,7.4-25.8,11.8-40.8,11.8c-42.2,0-76-33.8-76-76   s33.8-76,76-76c15,0,29,4.4,40.8,11.8c2.6,1.6,4.2,4.4,4.2,7.6c0,5-4,9-9,9c-1.8,0-3.4-0.4-4.8-1.4c-9-5.8-19.2-9-31.2-9   c-33.4,0-58,24.8-58,58s24.6,58,58,58c12,0,22.2-3.2,31.2-9C1015.2,301.1,1016.8,300.7,1018.6,300.7L1018.6,300.7L1018.6,300.7z"/>
	<path class="st0" d="M1058.8,329.1c-5,0-9-4.2-9-9.2V186.1c0-4.8,4-9,9-9s9,4.2,9,9v133.8C1067.8,324.9,1063.8,329.1,1058.8,329.1   L1058.8,329.1L1058.8,329.1z M1089.8,242.9h54.8v-56.8c0-4.8,4-9,9-9s9,4.2,9,9v133.8c0,5-4,9.2-9,9.2s-9-4.2-9-9.2v-59h-54.8   c-5,0-9-4-9-9S1084.8,242.9,1089.8,242.9L1089.8,242.9L1089.8,242.9z"/>
	<path class="st0" d="M1207.2,329.1c-5,0-9-4-9-9v-134c0-5,4-9,9-9s9,4,9,9v134C1216.2,325.1,1212.2,329.1,1207.2,329.1z"/>
	<path class="st0" d="M1347.2,325.9l-95.6-134.8c-1-1.6-1.4-3.2-1.4-5.2c0-3,1.2-5.8,4-7.6c1.4-1,3.2-1.4,5-1.4   c2.8,0,5.6,1.2,7.4,3.6l79.2,112.2V185.9c0-5,4-9,9-9s9,4,9,9v134.6c0,3.8-2.2,7-5.2,8.4c-1.4,0.6-2.6,0.8-4.2,0.8   C1351.6,329.7,1349,328.3,1347.2,325.9L1347.2,325.9L1347.2,325.9z M1250.4,243.1c0-5,4-9,9-9s9,4,9,9v77c0,5-4,9-9,9s-9-4-9-9   V243.1L1250.4,243.1L1250.4,243.1z"/>
	<path class="st0" d="M1497,319.1c0,5-4,9-9,9h-83.6c-5.4,0-9.6-4.2-9.6-9.6V187.7c0-5.4,4.2-9.6,9.6-9.6h83.6c5,0,9,4,9,9s-4,9-9,9   h-75.2v114h75.2C1493,310.1,1497,314.1,1497,319.1L1497,319.1L1497,319.1z M1435,245.1h36.2c5,0,9,4,9,9s-4,9-9,9H1435   c-5,0-9-4-9-9S1430,245.1,1435,245.1z"/>
	<path class="st0" d="M1523.4,186.1c0-4.8,4-9,9-9s9,4.2,9,9v133.8c0,5-4,9.2-9,9.2s-9-4.2-9-9.2V186.1z M1558.4,251.9   c0-5.2,4-9,9-9h19.2c12.8,0,23-10.6,23-23.4s-10.2-23.4-23-23.4h-21.2c-5,0-9-3.8-9-9s4-9,9-9h21.2c22.8,0,41.4,18.8,41.4,41.4   s-18.6,41.4-41.4,41.4h-19.2C1562.4,260.9,1558.4,256.9,1558.4,251.9L1558.4,251.9L1558.4,251.9z M1593.4,272.7c3.4,0,6.6,2,8,4.8   l19.8,38.4c0.6,1.4,1,2.8,1,4.2c0,5-4,9-9,9c-3.4,0-6.6-2-8-4.8l-19.8-38.4c-0.6-1.4-1-2.8-1-4.2   C1584.4,276.7,1588.4,272.7,1593.4,272.7L1593.4,272.7z"/>
	<path class="st0" d="M1664.8,329.1c-5,0-9-4-9-9v-134c0-5,4-9,9-9s9,4,9,9v134C1673.8,325.1,1669.8,329.1,1664.8,329.1z"/>
	<path class="st0" d="M1811,319.1c0,5-4,9-9,9h-83.6c-5.4,0-9.6-4.2-9.6-9.6V187.7c0-5.4,4.2-9.6,9.6-9.6h83.6c5,0,9,4,9,9s-4,9-9,9   h-75.2v114h75.2C1807,310.1,1811,314.1,1811,319.1L1811,319.1L1811,319.1z M1749,245.1h36.2c5,0,9,4,9,9s-4,9-9,9H1749   c-5,0-9-4-9-9S1744,245.1,1749,245.1z"/>
</g>
<g>
	<path class="st0" d="M349.7,504.3c-5.4,0-9.7-1.3-12.8-4s-4.7-7.4-4.7-14.3v-32.6H317v-8.6h9c4.1,0,6.4-2,7.1-6l1.7-9.2h7.4v15.2   H366v8.6h-23.8v32.6c0,3.4,0.8,5.7,2.3,7.1s4.3,2,8.1,2H366v9.1L349.7,504.3L349.7,504.3z"/>
	<path class="st0" d="M391.4,504.3v-8.6h19v-39.2c0-2-1-3-3-3h-13.9v-8.6h16.3c7.1,0,10.7,3.6,10.7,10.7v40.2h19v8.6H391.4   L391.4,504.3z M414.7,434.2c-2.4,0-4.4-0.8-6-2.4s-2.4-3.5-2.4-5.8s0.8-4.3,2.4-5.8s3.6-2.3,6-2.3s4.3,0.8,5.9,2.3s2.5,3.5,2.5,5.8   s-0.8,4.2-2.5,5.8C419,433.5,417,434.2,414.7,434.2z"/>
	<path class="st0" d="M488,505.8c-5.6,0-10.5-1.3-14.8-3.9s-7.7-6.2-10.1-10.9c-2.5-4.7-3.7-10.1-3.7-16.4s1.2-11.7,3.7-16.4   s5.8-8.3,10.1-10.9s9.4-3.9,15.1-3.9s10.7,1.3,14.8,3.9c4.1,2.6,7.2,6,9.4,10.3c2.2,4.2,3.2,8.8,3.2,13.7c0,0.9,0,1.8-0.1,2.6   s-0.1,1.9-0.1,3h-46.2c0.2,4.4,1.3,8.1,3.1,11s4.1,5.1,6.8,6.5s5.7,2.2,8.8,2.2c4.4,0,7.8-0.9,10.3-2.8s4.4-4.4,5.6-7.7h10   c-1.4,5.5-4.2,10.2-8.5,14C501.1,503.9,495.3,505.8,488,505.8L488,505.8L488,505.8z M488,452.4c-4.6,0-8.7,1.4-12.2,4.2   c-3.5,2.8-5.6,6.7-6.4,11.8h36.2c-0.3-5-2.1-8.9-5.3-11.7C497.1,453.8,493,452.4,488,452.4z"/>
	<path class="st0" d="M533.5,504.3v-8.6h15.2v-39.2c0-2-1-3-2.9-3h-10.8v-8.6h14.5c2.6,0,4.8,0.7,6.4,2.2s2.4,3.6,2.4,6.4v2.5h0.5   c1-4,2.8-7.1,5.5-9.2s6.4-3.2,11.2-3.2h10.9V454h-12.4c-4.9,0-8.6,1.6-11.3,4.9s-4,7.4-4,12.4v24.4h18.7v8.6L533.5,504.3   L533.5,504.3z"/>
	<path class="st0" d="M632,505.8c-7.6,0-13.7-1.8-18.4-5.3s-7.3-8.5-7.9-14.7h10.4c0.5,3.3,2.1,6,4.9,8c2.8,2.1,6.5,3.1,11.2,3.1   s7.8-1,10-2.9s3.3-4.1,3.3-6.6c0-3.4-1.3-5.7-4-6.9s-6.6-2.2-11.9-2.8c-6.3-0.7-11.6-2.4-15.7-5.2s-6.2-6.8-6.2-12.2   c0-4.9,2-8.9,6.1-12.1c4.1-3.2,9.6-4.8,16.7-4.8s12.4,1.6,16.4,4.7s6.3,7.7,6.8,13.5h-10c-0.2-2.9-1.6-5.2-4.1-6.9   s-5.7-2.6-9.4-2.6s-7,0.7-9.1,2.2s-3.2,3.4-3.2,5.8s1.2,4.4,3.7,5.9s6.3,2.6,11.6,3.1c4.2,0.5,8,1.3,11.4,2.4s6.2,2.9,8.2,5.3   s3.1,5.8,3.1,10.1c0.1,3.6-0.9,6.8-2.9,9.7s-4.9,5.1-8.5,6.7C640.9,505,636.7,505.8,632,505.8z"/>
	<path class="st0" d="M683.6,466.6V458h39.6v8.6H683.6z"/>
	<path class="st0" d="M748.4,504.3v-8.6h20.3v-66.1c0-2-1-3-3-3h-15.1v-8.6h17.5c3.4,0,6.1,0.9,7.9,2.8c1.8,1.8,2.8,4.5,2.8,7.9   v67.1h20.3v8.6L748.4,504.3L748.4,504.3z"/>
	<path class="st0" d="M823.4,504.3v-8.6h19v-39.2c0-2-1-3-3-3h-13.9v-8.6h16.3c7.1,0,10.7,3.6,10.7,10.7v40.2h19v8.6H823.4   L823.4,504.3z M846.7,434.2c-2.4,0-4.4-0.8-6-2.4s-2.4-3.5-2.4-5.8s0.8-4.3,2.4-5.8c1.6-1.6,3.6-2.3,6-2.3s4.3,0.8,5.9,2.3   s2.5,3.5,2.5,5.8s-0.8,4.2-2.5,5.8S849,434.2,846.7,434.2z"/>
	<path class="st0" d="M920,505.8c-5.6,0-10.5-1.3-14.8-3.9s-7.7-6.2-10.1-10.9c-2.5-4.7-3.7-10.1-3.7-16.4s1.2-11.7,3.7-16.4   s5.8-8.3,10.1-10.9s9.4-3.9,15.1-3.9s10.7,1.3,14.8,3.9s7.2,6,9.4,10.3c2.2,4.2,3.2,8.8,3.2,13.7c0,0.9,0,1.8-0.1,2.6   s-0.1,1.9-0.1,3h-46.2c0.2,4.4,1.3,8.1,3.1,11s4.1,5.1,6.8,6.5s5.7,2.2,8.8,2.2c4.4,0,7.8-0.9,10.3-2.8s4.4-4.4,5.6-7.7h10   c-1.4,5.5-4.2,10.2-8.5,14C933.1,503.9,927.3,505.8,920,505.8L920,505.8L920,505.8z M920,452.4c-4.6,0-8.7,1.4-12.2,4.2   c-3.5,2.8-5.6,6.7-6.4,11.8h36.2c-0.3-5-2.1-8.9-5.3-11.7C929.1,453.8,925,452.4,920,452.4z"/>
	<path class="st0" d="M987.2,505.8c-7.2,0-12.6-2.2-16.3-6.5s-5.5-10.6-5.5-18.7v-35.8h10.1v34.6c0,5.3,1.2,9.4,3.5,12.4   s5.9,4.5,10.7,4.5s8.8-1.6,12.1-4.9c3.3-3.2,4.9-7.9,4.9-14v-32.6h10.1v59.5h-8.4l-1.1-9h-0.6c-1.6,2.9-4.1,5.3-7.6,7.4   S991.8,505.8,987.2,505.8L987.2,505.8L987.2,505.8z"/>
	<path class="st0" d="M1130.4,505.8c-4.7,0-8.6-0.8-11.8-2.5s-5.4-3.9-7-6.7s-2.3-5.8-2.3-9.1c0-6.1,2.2-10.7,6.7-13.9   c4.4-3.2,10.4-4.7,17.8-4.7h16.3v-1.2c0-10.4-4.8-15.6-14.3-15.6c-3.8,0-7.1,0.8-9.7,2.5s-4.3,4.3-5,7.9h-10.3   c0.4-4,1.7-7.4,4-10.3s5.2-5.1,8.8-6.6c3.6-1.5,7.6-2.3,12.1-2.3c8.5,0,14.7,2.2,18.5,6.7s5.8,10.3,5.8,17.7v36.6h-8.6l-0.8-9.2   h-0.8c-1.8,2.9-4.1,5.4-7,7.5S1135.8,505.8,1130.4,505.8L1130.4,505.8L1130.4,505.8z M1132.2,496.9c3.8,0,7.1-0.9,9.8-2.8   s4.7-4.3,6.1-7.3s2.1-6.4,2.1-10h-15.5c-5.4,0-9.3,0.9-11.5,2.8s-3.3,4.3-3.3,7.3s1,5.6,3.1,7.3S1128.2,496.9,1132.2,496.9   L1132.2,496.9L1132.2,496.9z"/>
	<path class="st0" d="M1175.8,504.3v-59.5h8.3l1.1,7h0.6c1-2.4,2.6-4.4,4.7-6s4.7-2.4,7.7-2.4s5.6,0.7,7.7,2.2s3.7,3.5,4.6,6.2h0.5   c1-2.4,2.7-4.4,5-6c2.3-1.6,5.1-2.4,8.4-2.4c4.6,0,8,1.5,10.3,4.6s3.4,7.2,3.4,12.3v44h-9.8v-42.5c0-2.9-0.6-5.2-1.7-6.8   s-3-2.5-5.6-2.5s-4.8,1-6.5,3c-1.7,2-2.5,4.8-2.5,8.5v40.3h-10v-42.5c0-2.9-0.6-5.2-1.7-6.8s-3-2.5-5.5-2.5s-4.8,1-6.5,3   c-1.7,2-2.6,4.8-2.6,8.5v40.3H1175.8L1175.8,504.3z"/>
	<path class="st0" d="M1255.4,504.3v-8.6h19v-39.2c0-2-1-3-3-3h-13.9v-8.6h16.3c7.1,0,10.7,3.6,10.7,10.7v40.2h19v8.6H1255.4   L1255.4,504.3z M1278.7,434.2c-2.4,0-4.4-0.8-6-2.4s-2.4-3.5-2.4-5.8s0.8-4.3,2.4-5.8s3.6-2.3,6-2.3s4.3,0.8,5.9,2.3   c1.6,1.6,2.5,3.5,2.5,5.8s-0.8,4.2-2.5,5.8S1281,434.2,1278.7,434.2z"/>
	<path class="st0" d="M1352,505.8c-5.6,0-10.5-1.3-14.8-3.9c-4.3-2.6-7.7-6.2-10.1-10.9c-2.5-4.7-3.7-10.1-3.7-16.4   s1.2-11.7,3.7-16.4c2.4-4.7,5.8-8.3,10.1-10.9c4.3-2.6,9.4-3.9,15.1-3.9s10.7,1.3,14.8,3.9s7.2,6,9.4,10.3   c2.2,4.2,3.2,8.8,3.2,13.7c0,0.9,0,1.8-0.1,2.6s-0.1,1.9-0.1,3h-46.2c0.2,4.4,1.3,8.1,3.1,11s4.1,5.1,6.8,6.5s5.7,2.2,8.8,2.2   c4.4,0,7.8-0.9,10.3-2.8s4.4-4.4,5.6-7.7h10c-1.4,5.5-4.2,10.2-8.5,14C1365.1,503.9,1359.3,505.8,1352,505.8L1352,505.8L1352,505.8   z M1352,452.4c-4.6,0-8.7,1.4-12.2,4.2c-3.5,2.8-5.6,6.7-6.4,11.8h36.2c-0.3-5-2.1-8.9-5.3-11.7   C1361.1,453.8,1357,452.4,1352,452.4L1352,452.4L1352,452.4z M1345.5,440v-9.5l25.2-13.4v10.3L1345.5,440z"/>
	<path class="st0" d="M1398,504.3v-59.5h8.4l1.1,9h0.6c1.6-2.9,4.1-5.3,7.6-7.4c3.4-2,7.4-3.1,11.9-3.1c7.3,0,12.7,2.2,16.4,6.5   s5.5,10.6,5.5,18.7v35.8h-10.1v-34.6c0-5.3-1.2-9.4-3.5-12.4s-5.9-4.5-10.8-4.5s-8.7,1.6-12,4.9s-4.9,7.9-4.9,14v32.6L1398,504.3   L1398,504.3z"/>
	<path class="st0" d="M1495.4,505.8c-5.6,0-10.6-1.3-14.9-3.8s-7.7-6.2-10.2-10.9s-3.7-10.2-3.7-16.5s1.2-11.8,3.7-16.5   s5.9-8.3,10.2-10.9s9.3-3.8,14.9-3.8s10.6,1.3,14.9,3.8s7.7,6.2,10.2,10.9s3.7,10.2,3.7,16.5s-1.2,11.8-3.7,16.5   s-5.9,8.3-10.2,10.9S1501,505.8,1495.4,505.8z M1495.4,496.2c3.4,0,6.6-0.8,9.4-2.3c2.8-1.5,5-3.9,6.7-7.1   c1.6-3.2,2.5-7.3,2.5-12.2s-0.8-9-2.5-12.2c-1.6-3.2-3.9-5.6-6.7-7.1s-5.9-2.3-9.4-2.3s-6.4,0.8-9.2,2.3s-5,3.9-6.7,7.1   c-1.7,3.2-2.5,7.3-2.5,12.2c0,7.4,1.8,12.9,5.4,16.4S1490.3,496.2,1495.4,496.2L1495.4,496.2L1495.4,496.2z"/>
	<path class="st0" d="M1543.4,504.3v-8.6h19v-39.2c0-2-1-3-3-3h-13.9v-8.6h16.3c7.1,0,10.7,3.6,10.7,10.7v40.2h19v8.6H1543.4   L1543.4,504.3z M1566.7,434.2c-2.4,0-4.4-0.8-6-2.4s-2.4-3.5-2.4-5.8s0.8-4.3,2.4-5.8s3.6-2.3,6-2.3s4.3,0.8,5.9,2.3   c1.6,1.6,2.5,3.5,2.5,5.8s-0.8,4.2-2.5,5.8S1569,434.2,1566.7,434.2z"/>
	<path class="st0" d="M1640,505.8c-7.6,0-13.7-1.8-18.4-5.3s-7.3-8.5-7.9-14.7h10.4c0.5,3.3,2.1,6,4.9,8c2.8,2.1,6.5,3.1,11.2,3.1   s7.8-1,10-2.9c2.2-1.9,3.3-4.1,3.3-6.6c0-3.4-1.3-5.7-4-6.9s-6.6-2.2-11.9-2.8c-6.3-0.7-11.6-2.4-15.7-5.2   c-4.2-2.7-6.2-6.8-6.2-12.2c0-4.9,2-8.9,6.1-12.1c4.1-3.2,9.6-4.8,16.7-4.8s12.4,1.6,16.4,4.7s6.3,7.7,6.8,13.5h-10   c-0.2-2.9-1.6-5.2-4.1-6.9s-5.7-2.6-9.4-2.6s-7,0.7-9.1,2.2s-3.2,3.4-3.2,5.8s1.2,4.4,3.7,5.9c2.4,1.6,6.3,2.6,11.6,3.1   c4.2,0.5,8,1.3,11.4,2.4c3.4,1.1,6.2,2.9,8.2,5.3c2,2.4,3.1,5.8,3.1,10.1c0.1,3.6-0.9,6.8-2.9,9.7c-2,2.8-4.9,5.1-8.5,6.7   S1644.7,505.8,1640,505.8L1640,505.8L1640,505.8z"/>
</g>
<g class="st1">
	<path class="st2" d="M60,40c11.1,0,20,9,20,20s-8.9,20-20,20s-20-8.9-20-20S49,40,60,40"/>
	<rect class="st2" width="100" height="100"/>
</g>
<g class="st1">
	<path class="st2" d="M40,600c0-11,9-20,20-20s20,9,20,20s-8.9,20-20,20S40,611,40,600"/>
	<rect y="560" class="st2" width="100" height="100"/>
</g>
<g class="st1">
	<path class="st2" d="M1920,620c-11.1,0-20-9-20-20s8.9-20,20-20s20,9,20,20S1931.1,620,1920,620"/>
	<rect x="1880" y="560" class="st2" width="100" height="100"/>
</g>
<g class="st1">
	<path class="st2" d="M1940,60c0,11.1-8.9,20-20,20s-20-8.9-20-20s8.9-20,20-20S1940,49,1940,60"/>
	<rect x="1880" class="st2" width="100" height="100"/>
</g>
</svg>