<?xml version="1.0" standalone="no"?>
<!DOCTYPE svg PUBLIC "-//W3C//DTD SVG 1.1//EN" "http://www.w3.org/Graphics/SVG/1.1/DTD/svg11.dtd">
<svg version="1.1" id="Calque_1" xmlns="http://www.w3.org/2000/svg" xmlns:xlink="http://www.w3.org/1999/xlink" x="0px" y="0px" viewBox="0 0 1872.8 356.2" style="enable-background:new 0 0 1872.8 356.2;" xml:space="preserve" width="1872.800048828125" height="356.20001220703125">
<style type="text/css">
	.st0{fill:#253238;}
	.st1{display:none;}
</style>
<path class="st0" d="M121.6,254.6c-5,0-9-4.2-9-9.2V111.6c0-5,4-9,9-9s9,4,9,9v133.8C130.6,250.4,126.6,254.6,121.6,254.6z   M152.8,235.6h39.4c4.8,0,9,4,9,9s-4.2,9-9,9h-39.4c-5,0-9-4-9-9S147.8,235.6,152.8,235.6L152.8,235.6z"/>
<path class="st0" d="M233.2,255.6c-5,0-9-4-9-9c0-1.2,0.2-2.4,0.8-3.6l58.4-136c1.4-3.2,4.4-5.4,8.2-5.4c5,0,9,4,9,9  c0,1.2-0.2,2.4-0.8,3.6l-35,81.4h32.4c5,0,9,4,9,9s-4,9-9,9h-40l-15.8,36.6C240,253.4,237,255.6,233.2,255.6L233.2,255.6z   M310,144.6c3.8,0,6.8,2.2,8.2,5.4l40,93c0.6,1.2,0.8,2.4,0.8,3.6c0,5-4,9-9,9c-3.8,0-6.8-2.2-8.2-5.4l-40-93  c-0.6-1.2-0.8-2.4-0.8-3.6C301,148.6,305,144.6,310,144.6z"/>
<path class="st0" d="M722,255.6c-5,0-9-4-9-9c0-1.2,0.2-2.4,0.8-3.6l58.4-136c1.4-3.2,4.4-5.4,8.2-5.4c5,0,9,4,9,9  c0,1.2-0.2,2.4-0.8,3.6l-35,81.4H786c5,0,9,4,9,9s-4,9-9,9h-40l-15.8,36.6C728.8,253.4,725.8,255.6,722,255.6L722,255.6z   M798.8,144.6c3.8,0,6.8,2.2,8.2,5.4l40,93c0.6,1.2,0.8,2.4,0.8,3.6c0,5-4,9-9,9c-3.8,0-6.8-2.2-8.2-5.4l-40-93  c-0.6-1.2-0.8-2.4-0.8-3.6C789.8,148.6,793.8,144.6,798.8,144.6z"/>
<path class="st0" d="M853.6,178.4c0-41.6,33.6-75.2,75.2-75.2c15,0,29.4,4.2,41.6,12.4c2.6,1.6,4,4.6,4,7.6c0,1.8-0.4,3.6-1.4,4.8  c-1.6,2.6-4.8,4.2-7.6,4.2c-1.8,0-3.6-0.6-4.8-1.6c-9.6-6-20.6-9.4-31.8-9.4c-31.4,0-57.2,25.8-57.2,57.2s25.8,57.2,57.2,57.2  c11.2,0,22-3,31.2-9.2c1.6-0.8,3.4-1.6,5.2-1.6c2.8,0,5.6,1.6,7.4,4.2c1,1.6,1.6,3.4,1.6,5c0,3-1.6,5.8-4.2,7.6  c-12.2,7.8-26.4,12-41.2,12C887.2,253.6,853.6,220,853.6,178.4z"/>
<path class="st0" d="M1005.4,254.6c-5,0-9-4.2-9-9.2V111.6c0-4.8,4-9,9-9s9,4.2,9,9v133.8C1014.4,250.4,1010.4,254.6,1005.4,254.6z   M1036.4,168.4h54.8v-56.8c0-4.8,4-9,9-9s9,4.2,9,9v133.8c0,5-4,9.2-9,9.2s-9-4.2-9-9.2v-59h-54.8c-5,0-9-4-9-9  S1031.4,168.4,1036.4,168.4z"/>
<path class="st0" d="M1153.8,254.6c-5,0-9-4-9-9v-134c0-5,4-9,9-9s9,4,9,9v134C1162.8,250.6,1158.8,254.6,1153.8,254.6z"/>
<path class="st0" d="M1293.8,251.4l-95.6-134.8c-1-1.6-1.4-3.2-1.4-5.2c0-3,1.2-5.8,4-7.6c1.4-1,3.2-1.4,5-1.4  c2.8,0,5.6,1.2,7.4,3.6l79.2,112.2V111.4c0-5,4-9,9-9s9,4,9,9V246c0,3.8-2.2,7-5.2,8.4c-1.4,0.6-2.6,0.8-4.2,0.8  C1298.2,255.2,1295.6,253.8,1293.8,251.4L1293.8,251.4z M1197,168.6c0-5,4-9,9-9s9,4,9,9v77c0,5-4,9-9,9s-9-4-9-9V168.6z"/>
<path class="st0" d="M1443.6,244.6c0,5-4,9-9,9H1351c-5.4,0-9.6-4.2-9.6-9.6V113.2c0-5.4,4.2-9.6,9.6-9.6h83.6c5,0,9,4,9,9s-4,9-9,9  h-75.2v114h75.2C1439.6,235.6,1443.6,239.6,1443.6,244.6L1443.6,244.6z M1381.6,170.6h36.2c5,0,9,4,9,9s-4,9-9,9h-36.2c-5,0-9-4-9-9  S1376.6,170.6,1381.6,170.6z"/>
<path class="st0" d="M1470,111.6c0-4.8,4-9,9-9s9,4.2,9,9v133.8c0,5-4,9.2-9,9.2s-9-4.2-9-9.2V111.6z M1505,177.4c0-5.2,4-9,9-9  h19.2c12.8,0,23-10.6,23-23.4s-10.2-23.4-23-23.4H1513c-5,0-9-3.8-9-9s4-9,9-9h20.2c22.8,0,41.4,18.8,41.4,41.4  s-18.6,41.4-41.4,41.4H1514C1509,186.4,1505,182.4,1505,177.4z M1536,199.4c1.4-0.8,2.8-1.2,4.2-1.2c3.4,0,6.4,1.8,8,4.8l19,37.2  c0.8,1.4,1.2,2.6,1.2,4.2c0,3.4-1.8,6.4-5,8c-1.4,0.6-2.8,1-4,1c-3.4,0-6.6-1.8-8.2-4.8l-19.2-37.2c-0.6-1.2-1-2.8-1-4.2  C1531,204,1533,200.8,1536,199.4z"/>
<path class="st0" d="M1611.4,254.6c-5,0-9-4-9-9v-134c0-5,4-9,9-9s9,4,9,9v134C1620.4,250.6,1616.4,254.6,1611.4,254.6z"/>
<path class="st0" d="M1757.6,244.6c0,5-4,9-9,9H1665c-5.4,0-9.6-4.2-9.6-9.6V113.2c0-5.4,4.2-9.6,9.6-9.6h83.6c5,0,9,4,9,9s-4,9-9,9  h-75.2v114h75.2C1753.6,235.6,1757.6,239.6,1757.6,244.6L1757.6,244.6z M1695.6,170.6h36.2c5,0,9,4,9,9s-4,9-9,9h-36.2c-5,0-9-4-9-9  S1690.6,170.6,1695.6,170.6z"/>
<g id="Marges" class="st1">
</g>
<g>
	<path class="st0" d="M580,50.6c26.8,0,52,8.4,72.4,22.4c2.4,1.6,4,4.2,4,7.4c0,5-4,9-9,9c-1.8,0-3.6-0.6-5-1.6   c-18.2-12.2-38.8-19.2-62.4-19.2c-62,0-110,48-110,110c0,26.4,8.6,49.4,23.8,68.4c1.2,1.6,2,3.4,2,5.6c0,5-4,9-9,9   c-2.8,0-5.4-1.4-7-3.4c-17.4-21.6-27.8-49.6-27.8-79.6C452,107.8,509.2,50.6,580,50.6z M512.6,267.8c1.8,0,3.6,0.6,5,1.6   c18.2,12.4,38.8,19.2,62.4,19.2c62,0,110-48,110-110c0-26.4-8.6-49.2-23.8-68.4c-1.2-1.6-2-3.4-2-5.6c0-5,4-9,9-9   c2.8,0,5.4,1.4,7,3.4c17.4,21.8,27.8,49.6,27.8,79.6c0,70.8-57.2,128-128,128c-26.8,0-52-8.2-72.4-22.4c-2.4-1.6-4-4.4-4-7.4   C503.6,271.8,507.6,267.8,512.6,267.8z M639,102.6c5,0,9,4,9,9c0,2.6-1,5-2.8,6.6l-59,55.4c-3.6,3.4-8.8,3.4-12.4,0l-59-55.4   c-1.8-1.6-2.8-4-2.8-6.6c0-5,4-9,9-9c2.4,0,4.6,1,6.2,2.4l52.8,49.6l52.8-49.6C634.4,103.6,636.6,102.6,639,102.6z M513.2,159.4   c0-4.8,4-9,9-9c5,0,9,4.2,9,9v86c0,5-4,9.2-9,9.2c-5,0-9-4.2-9-9.2V159.4z M628.8,159.4c0-4.8,4-9,9-9c5,0,9,4.2,9,9v86   c0,5-4,9.2-9,9.2c-5,0-9-4.2-9-9.2V159.4z"/>
</g>
</svg>