<?xml version="1.0" standalone="no"?>
<!DOCTYPE svg PUBLIC "-//W3C//DTD SVG 1.1//EN" "http://www.w3.org/Graphics/SVG/1.1/DTD/svg11.dtd">
<svg id="uuid-56754259-754b-4622-8212-5aa3e10c2844" xmlns="http://www.w3.org/2000/svg" viewBox="0 0 1980 660" width="1980" height="660"><rect x="-75" y="-75" width="2132.83" height="811.84" style="fill:#253238;"/><g><path d="M178.23,329.1c-5,0-9-4.2-9-9.2V186.1c0-5,4-9,9-9s9,4,9,9v133.8c0,5-4,9.2-9,9.2h0Zm31.2-19h39.4c4.8,0,9,4,9,9s-4.2,9-9,9h-39.4c-5,0-9-4-9-9s4-9,9-9Z" style="fill:#fff;"/><path d="M289.83,329.1c-5,0-9-4-9-9,0-1.2,.2-2.4,.8-3.6l57.6-134c1.4-3.2,4.4-5.4,8.2-5.4,5,0,9,4,9,9,0,1.2-.2,2.4-.8,3.6l-34.6,80.4h32.4c5,0,9,4,9,9s-4,9-9,9h-40l-15.4,35.6c-1.4,3.2-4.4,5.4-8.2,5.4h0Zm75.6-110c3.8,0,6.8,2.2,8.2,5.4l39.6,92c.6,1.2,.8,2.4,.8,3.6,0,5-4,9-9,9-3.8,0-6.8-2.2-8.2-5.4l-39.6-92c-.6-1.2-.8-2.4-.8-3.6,0-5,4-9,9-9Z" style="fill:#fff;"/><path d="M635.22,125.1c29.6,0,57.4,10.2,79,27.4,2,1.6,3.4,4.2,3.4,7,0,5-4,9-9,9-2.2,0-4-.8-5.6-2-19-15-41.8-23.4-67.8-23.4-62.2,0-110.2,48-110.2,109.8,0,26.2,8.4,49,23.4,68.2,1.2,1.6,2,3.6,2,5.6,0,5-4,9-9,9-2.8,0-5.4-1.4-7-3.4-17.2-22-27.4-49.6-27.4-79.4,0-70.6,57.2-127.8,128.2-127.8h0Zm-65.8,218.4c1.8,0,3.6,.6,5,1.4,17.8,11.8,37.8,18.2,60.8,18.2,61.8,0,109.8-48.2,109.8-110.2,0-22.8-6.4-42.8-18-60.4-1-1.4-1.6-3.2-1.6-5,0-5,4-9,9-9,3.2,0,5.8,1.6,7.4,4,13.4,20,21.2,44.4,21.2,70.4,0,70.8-57.2,128.2-127.8,128.2-26.2,0-50.6-7.8-70.8-21-2.4-1.6-4-4.4-4-7.6,0-5,4-9,9-9h0Zm124.6-166.4c5,0,9,4,9,9,0,2.6-1,5-2.8,6.6l-59,55.4c-3.6,3.4-8.8,3.4-12.4,0l-59-55.4c-1.8-1.6-2.8-4-2.8-6.6,0-5,4-9,9-9,2.4,0,4.6,1,6.2,2.4l52.8,49.6,52.8-49.6c1.6-1.4,3.8-2.4,6.2-2.4Zm-125.8,56.8c0-4.8,4-9,9-9s9,4.2,9,9v86c0,5-4,9.2-9,9.2s-9-4.2-9-9.2v-86h0Zm115.6,0c0-4.8,4-9,9-9s9,4.2,9,9v86c0,5-4,9.2-9,9.2s-9-4.2-9-9.2v-86h0Z" style="fill:#fff;"/><path d="M777.02,329.1c-5,0-9-4-9-9,0-1.2,.2-2.4,.8-3.6l57.6-134c1.4-3.2,4.4-5.4,8.2-5.4,5,0,9,4,9,9,0,1.2-.2,2.4-.8,3.6l-34.6,80.4h32.4c5,0,9,4,9,9s-4,9-9,9h-40l-15.4,35.6c-1.4,3.2-4.4,5.4-8.2,5.4Zm75.6-110c3.8,0,6.8,2.2,8.2,5.4l39.6,92c.6,1.2,.8,2.4,.8,3.6,0,5-4,9-9,9-3.8,0-6.8-2.2-8.2-5.4l-39.6-92c-.6-1.2-.8-2.4-.8-3.6,0-5,4-9,9-9Z" style="fill:#fff;"/><path d="M1018.62,300.7c5,0,9,4,9,9,0,3.2-1.6,6-4.2,7.6-11.8,7.4-25.8,11.8-40.8,11.8-42.2,0-76-33.8-76-76s33.8-76,76-76c15,0,29,4.4,40.8,11.8,2.6,1.6,4.2,4.4,4.2,7.6,0,5-4,9-9,9-1.8,0-3.4-.4-4.8-1.4-9-5.8-19.2-9-31.2-9-33.4,0-58,24.8-58,58s24.6,58,58,58c12,0,22.2-3.2,31.2-9,1.4-1,3-1.4,4.8-1.4h0Z" style="fill:#fff;"/><path d="M1058.82,329.1c-5,0-9-4.2-9-9.2V186.1c0-4.8,4-9,9-9s9,4.2,9,9v133.8c0,5-4,9.2-9,9.2h0Zm31-86.2h54.8v-56.8c0-4.8,4-9,9-9s9,4.2,9,9v133.8c0,5-4,9.2-9,9.2s-9-4.2-9-9.2v-59h-54.8c-5,0-9-4-9-9s4-9,9-9h0Z" style="fill:#fff;"/><path d="M1207.22,329.1c-5,0-9-4-9-9V186.1c0-5,4-9,9-9s9,4,9,9v134c0,5-4,9-9,9Z" style="fill:#fff;"/><path d="M1347.21,325.9l-95.6-134.8c-1-1.6-1.4-3.2-1.4-5.2,0-3,1.2-5.8,4-7.6,1.4-1,3.2-1.4,5-1.4,2.8,0,5.6,1.2,7.4,3.6l79.2,112.2v-106.8c0-5,4-9,9-9s9,4,9,9v134.6c0,3.8-2.2,7-5.2,8.4-1.4,.6-2.6,.8-4.2,.8-2.8,0-5.4-1.4-7.2-3.8h0Zm-96.8-82.8c0-5,4-9,9-9s9,4,9,9v77c0,5-4,9-9,9s-9-4-9-9v-77h0Z" style="fill:#fff;"/><path d="M1497.01,319.1c0,5-4,9-9,9h-83.6c-5.4,0-9.6-4.2-9.6-9.6V187.7c0-5.4,4.2-9.6,9.6-9.6h83.6c5,0,9,4,9,9s-4,9-9,9h-75.2v114h75.2c5,0,9,4,9,9h0Zm-62-74h36.2c5,0,9,4,9,9s-4,9-9,9h-36.2c-5,0-9-4-9-9s4-9,9-9Z" style="fill:#fff;"/><path d="M1523.41,186.1c0-4.8,4-9,9-9s9,4.2,9,9v133.8c0,5-4,9.2-9,9.2s-9-4.2-9-9.2V186.1Zm35,65.8c0-5.2,4-9,9-9h19.2c12.8,0,23-10.6,23-23.4s-10.2-23.4-23-23.4h-21.2c-5,0-9-3.8-9-9s4-9,9-9h21.2c22.8,0,41.4,18.8,41.4,41.4s-18.6,41.4-41.4,41.4h-19.2c-5,0-9-4-9-9h0Zm35,20.8c3.4,0,6.6,2,8,4.8l19.8,38.4c.6,1.4,1,2.8,1,4.2,0,5-4,9-9,9-3.4,0-6.6-2-8-4.8l-19.8-38.4c-.6-1.4-1-2.8-1-4.2,0-5,4-9,9-9h0Z" style="fill:#fff;"/><path d="M1664.81,329.1c-5,0-9-4-9-9V186.1c0-5,4-9,9-9s9,4,9,9v134c0,5-4,9-9,9Z" style="fill:#fff;"/><path d="M1811,319.1c0,5-4,9-9,9h-83.6c-5.4,0-9.6-4.2-9.6-9.6V187.7c0-5.4,4.2-9.6,9.6-9.6h83.6c5,0,9,4,9,9s-4,9-9,9h-75.2v114h75.2c5,0,9,4,9,9h0Zm-62-74h36.2c5,0,9,4,9,9s-4,9-9,9h-36.2c-5,0-9-4-9-9s4-9,9-9Z" style="fill:#fff;"/></g><g><path d="M349.67,504.33c-5.44,0-9.72-1.32-12.84-3.96s-4.68-7.4-4.68-14.28v-32.64h-15.12v-8.64h9c4.08,0,6.44-2,7.08-6l1.68-9.24h7.44v15.24h23.76v8.64h-23.76v32.64c0,3.36,.78,5.72,2.34,7.08s4.26,2.04,8.1,2.04h13.32v9.12h-16.32Z" style="fill:#fff;"/><path d="M391.42,504.33v-8.64h18.96v-39.24c0-2-1-3-3-3h-13.92v-8.64h16.32c7.12,0,10.68,3.56,10.68,10.68v40.2h18.96v8.64h-48Zm23.28-70.08c-2.4,0-4.4-.8-6-2.4s-2.4-3.52-2.4-5.76,.8-4.26,2.4-5.82,3.6-2.34,6-2.34,4.3,.78,5.94,2.34,2.46,3.5,2.46,5.82-.82,4.16-2.46,5.76c-1.64,1.6-3.62,2.4-5.94,2.4Z" style="fill:#fff;"/><path d="M488.02,505.78c-5.6,0-10.54-1.3-14.82-3.9s-7.66-6.24-10.14-10.92c-2.48-4.68-3.72-10.14-3.72-16.38s1.22-11.7,3.66-16.38,5.82-8.32,10.14-10.92,9.36-3.9,15.12-3.9,10.68,1.3,14.76,3.9c4.08,2.6,7.2,6.02,9.36,10.26,2.16,4.24,3.24,8.8,3.24,13.68,0,.88-.02,1.76-.06,2.64s-.06,1.88-.06,3h-46.2c.24,4.4,1.26,8.06,3.06,10.98s4.08,5.1,6.84,6.54,5.7,2.16,8.82,2.16c4.4,0,7.84-.92,10.32-2.76s4.36-4.4,5.64-7.68h9.96c-1.36,5.52-4.2,10.18-8.52,13.98-4.32,3.8-10.12,5.7-17.4,5.7h0Zm0-53.4c-4.64,0-8.7,1.4-12.18,4.2-3.48,2.8-5.62,6.72-6.42,11.76h36.24c-.32-4.96-2.1-8.86-5.34-11.7-3.24-2.84-7.34-4.26-12.3-4.26Z" style="fill:#fff;"/><path d="M533.5,504.33v-8.64h15.24v-39.24c0-2-.96-3-2.88-3h-10.8v-8.64h14.52c2.64,0,4.76,.72,6.36,2.16,1.6,1.44,2.4,3.56,2.4,6.36v2.52h.48c.96-4,2.78-7.08,5.46-9.24s6.42-3.24,11.22-3.24h10.92v10.68h-12.36c-4.88,0-8.64,1.62-11.28,4.86s-3.96,7.38-3.96,12.42v24.36h18.72v8.64h-44.04Z" style="fill:#fff;"/><path d="M632.02,505.78c-7.6,0-13.74-1.78-18.42-5.34s-7.3-8.46-7.86-14.7h10.44c.48,3.28,2.1,5.96,4.86,8.04,2.76,2.08,6.5,3.12,11.22,3.12s7.82-.96,10.02-2.88,3.3-4.12,3.3-6.6c0-3.36-1.32-5.66-3.96-6.9s-6.6-2.18-11.88-2.82c-6.32-.72-11.56-2.44-15.72-5.16s-6.24-6.8-6.24-12.24c0-4.88,2.04-8.92,6.12-12.12,4.08-3.2,9.64-4.8,16.68-4.8s12.44,1.58,16.44,4.74,6.28,7.66,6.84,13.5h-9.96c-.24-2.88-1.62-5.18-4.14-6.9s-5.66-2.58-9.42-2.58-6.96,.74-9.12,2.22-3.24,3.42-3.24,5.82,1.22,4.38,3.66,5.94,6.3,2.58,11.58,3.06c4.16,.48,7.96,1.28,11.4,2.4s6.18,2.88,8.22,5.28,3.06,5.76,3.06,10.08c.08,3.6-.9,6.82-2.94,9.66s-4.86,5.08-8.46,6.72c-3.6,1.64-7.76,2.46-12.48,2.46Z" style="fill:#fff;"/><path d="M683.62,466.65v-8.64h39.6v8.64h-39.6Z" style="fill:#fff;"/><path d="M748.42,504.33v-8.64h20.28v-66.12c0-2-1-3-3-3h-15.12v-8.64h17.52c3.44,0,6.08,.92,7.92,2.76,1.84,1.84,2.76,4.48,2.76,7.92v67.08h20.28v8.64h-50.64Z" style="fill:#fff;"/><path d="M823.42,504.33v-8.64h18.96v-39.24c0-2-1-3-3-3h-13.92v-8.64h16.32c7.12,0,10.68,3.56,10.68,10.68v40.2h18.96v8.64h-48Zm23.28-70.08c-2.4,0-4.4-.8-6-2.4s-2.4-3.52-2.4-5.76,.8-4.26,2.4-5.82c1.6-1.56,3.6-2.34,6-2.34s4.3,.78,5.94,2.34,2.46,3.5,2.46,5.82-.82,4.16-2.46,5.76-3.62,2.4-5.94,2.4Z" style="fill:#fff;"/><path d="M920.02,505.78c-5.6,0-10.54-1.3-14.82-3.9s-7.66-6.24-10.14-10.92c-2.48-4.68-3.72-10.14-3.72-16.38s1.22-11.7,3.66-16.38,5.82-8.32,10.14-10.92,9.36-3.9,15.12-3.9,10.68,1.3,14.76,3.9,7.2,6.02,9.36,10.26c2.16,4.24,3.24,8.8,3.24,13.68,0,.88-.02,1.76-.06,2.64s-.06,1.88-.06,3h-46.2c.24,4.4,1.26,8.06,3.06,10.98s4.08,5.1,6.84,6.54,5.7,2.16,8.82,2.16c4.4,0,7.84-.92,10.32-2.76s4.36-4.4,5.64-7.68h9.96c-1.36,5.52-4.2,10.18-8.52,13.98-4.32,3.8-10.12,5.7-17.4,5.7h0Zm0-53.4c-4.64,0-8.7,1.4-12.18,4.2-3.48,2.8-5.62,6.72-6.42,11.76h36.24c-.32-4.96-2.1-8.86-5.34-11.7-3.24-2.84-7.34-4.26-12.3-4.26Z" style="fill:#fff;"/><path d="M987.22,505.78c-7.2,0-12.64-2.16-16.32-6.48s-5.52-10.56-5.52-18.72v-35.76h10.08v34.56c0,5.28,1.18,9.42,3.54,12.42s5.94,4.5,10.74,4.5,8.84-1.62,12.12-4.86c3.28-3.24,4.92-7.9,4.92-13.98v-32.64h10.08v59.52h-8.4l-1.08-9h-.6c-1.6,2.88-4.12,5.34-7.56,7.38s-7.44,3.06-12,3.06h0Z" style="fill:#fff;"/><path d="M1130.37,505.78c-4.72,0-8.64-.84-11.76-2.52s-5.44-3.9-6.96-6.66-2.28-5.78-2.28-9.06c0-6.08,2.22-10.7,6.66-13.86,4.44-3.16,10.38-4.74,17.82-4.74h16.32v-1.2c0-10.4-4.76-15.6-14.28-15.6-3.84,0-7.06,.84-9.66,2.52s-4.26,4.32-4.98,7.92h-10.32c.4-4,1.74-7.44,4.02-10.32s5.22-5.08,8.82-6.6c3.6-1.52,7.64-2.28,12.12-2.28,8.48,0,14.66,2.22,18.54,6.66s5.82,10.34,5.82,17.7v36.6h-8.64l-.84-9.24h-.84c-1.76,2.88-4.1,5.38-7.02,7.5s-7.1,3.18-12.54,3.18h0Zm1.8-8.88c3.84,0,7.1-.92,9.78-2.76s4.72-4.28,6.12-7.32,2.1-6.36,2.1-9.96h-15.48c-5.44,0-9.26,.92-11.46,2.76s-3.3,4.28-3.3,7.32,1.04,5.56,3.12,7.32,5.12,2.64,9.12,2.64h0Z" style="fill:#fff;"/><path d="M1175.85,504.33v-59.52h8.28l1.08,6.96h.6c1.04-2.4,2.62-4.4,4.74-6s4.7-2.4,7.74-2.4,5.62,.74,7.74,2.22,3.66,3.54,4.62,6.18h.48c1.04-2.4,2.72-4.4,5.04-6,2.32-1.6,5.12-2.4,8.4-2.4,4.56,0,7.98,1.54,10.26,4.62s3.42,7.18,3.42,12.3v44.04h-9.84v-42.48c0-2.88-.58-5.16-1.74-6.84s-3.02-2.52-5.58-2.52-4.8,1-6.48,3c-1.68,2-2.52,4.84-2.52,8.52v40.32h-9.96v-42.48c0-2.88-.56-5.16-1.68-6.84s-2.96-2.52-5.52-2.52-4.82,1-6.54,3c-1.72,2-2.58,4.84-2.58,8.52v40.32h-9.96Z" style="fill:#fff;"/><path d="M1255.41,504.33v-8.64h18.96v-39.24c0-2-1-3-3-3h-13.92v-8.64h16.32c7.12,0,10.68,3.56,10.68,10.68v40.2h18.96v8.64h-48Zm23.28-70.08c-2.4,0-4.4-.8-6-2.4s-2.4-3.52-2.4-5.76,.8-4.26,2.4-5.82,3.6-2.34,6-2.34,4.3,.78,5.94,2.34c1.64,1.56,2.46,3.5,2.46,5.82s-.82,4.16-2.46,5.76-3.62,2.4-5.94,2.4Z" style="fill:#fff;"/><path d="M1352.01,505.78c-5.6,0-10.54-1.3-14.82-3.9-4.28-2.6-7.66-6.24-10.14-10.92-2.48-4.68-3.72-10.14-3.72-16.38s1.22-11.7,3.66-16.38c2.44-4.68,5.82-8.32,10.14-10.92,4.32-2.6,9.36-3.9,15.12-3.9s10.68,1.3,14.76,3.9,7.2,6.02,9.36,10.26c2.16,4.24,3.24,8.8,3.24,13.68,0,.88-.02,1.76-.06,2.64s-.06,1.88-.06,3h-46.2c.24,4.4,1.26,8.06,3.06,10.98s4.08,5.1,6.84,6.54,5.7,2.16,8.82,2.16c4.4,0,7.84-.92,10.32-2.76s4.36-4.4,5.64-7.68h9.96c-1.36,5.52-4.2,10.18-8.52,13.98-4.32,3.8-10.12,5.7-17.4,5.7h0Zm0-53.4c-4.64,0-8.7,1.4-12.18,4.2-3.48,2.8-5.62,6.72-6.42,11.76h36.24c-.32-4.96-2.1-8.86-5.34-11.7-3.24-2.84-7.34-4.26-12.3-4.26h0Zm-6.48-12.36v-9.48l25.2-13.44v10.32l-25.2,12.6Z" style="fill:#fff;"/><path d="M1397.97,504.33v-59.52h8.4l1.08,9h.6c1.6-2.88,4.12-5.34,7.56-7.38,3.44-2.04,7.4-3.06,11.88-3.06,7.28,0,12.74,2.16,16.38,6.48s5.46,10.56,5.46,18.72v35.76h-10.08v-34.56c0-5.28-1.16-9.42-3.48-12.42s-5.92-4.5-10.8-4.5-8.72,1.62-12,4.86-4.92,7.9-4.92,13.98v32.64h-10.08Z" style="fill:#fff;"/><path d="M1495.41,505.78c-5.6,0-10.56-1.28-14.88-3.84s-7.72-6.18-10.2-10.86-3.72-10.18-3.72-16.5,1.24-11.82,3.72-16.5,5.88-8.3,10.2-10.86,9.28-3.84,14.88-3.84,10.56,1.28,14.88,3.84,7.72,6.18,10.2,10.86,3.72,10.18,3.72,16.5-1.24,11.82-3.72,16.5-5.88,8.3-10.2,10.86-9.28,3.84-14.88,3.84Zm0-9.6c3.44,0,6.56-.76,9.36-2.28,2.8-1.52,5.02-3.88,6.66-7.08,1.64-3.2,2.46-7.28,2.46-12.24s-.82-9.04-2.46-12.24c-1.64-3.2-3.86-5.56-6.66-7.08s-5.92-2.28-9.36-2.28-6.44,.76-9.24,2.28-5.04,3.88-6.72,7.08c-1.68,3.2-2.52,7.28-2.52,12.24,0,7.44,1.8,12.9,5.4,16.38s7.96,5.22,13.08,5.22h0Z" style="fill:#fff;"/><path d="M1543.41,504.33v-8.64h18.96v-39.24c0-2-1-3-3-3h-13.92v-8.64h16.32c7.12,0,10.68,3.56,10.68,10.68v40.2h18.96v8.64h-48Zm23.28-70.08c-2.4,0-4.4-.8-6-2.4s-2.4-3.52-2.4-5.76,.8-4.26,2.4-5.82,3.6-2.34,6-2.34,4.3,.78,5.94,2.34c1.64,1.56,2.46,3.5,2.46,5.82s-.82,4.16-2.46,5.76-3.62,2.4-5.94,2.4Z" style="fill:#fff;"/><path d="M1640.01,505.78c-7.6,0-13.74-1.78-18.42-5.34s-7.3-8.46-7.86-14.7h10.44c.48,3.28,2.1,5.96,4.86,8.04,2.76,2.08,6.5,3.12,11.22,3.12s7.82-.96,10.02-2.88c2.2-1.92,3.3-4.12,3.3-6.6,0-3.36-1.32-5.66-3.96-6.9s-6.6-2.18-11.88-2.82c-6.32-.72-11.56-2.44-15.72-5.16-4.16-2.72-6.24-6.8-6.24-12.24,0-4.88,2.04-8.92,6.12-12.12,4.08-3.2,9.64-4.8,16.68-4.8s12.44,1.58,16.44,4.74,6.28,7.66,6.84,13.5h-9.96c-.24-2.88-1.62-5.18-4.14-6.9s-5.66-2.58-9.42-2.58-6.96,.74-9.12,2.22-3.24,3.42-3.24,5.82,1.22,4.38,3.66,5.94c2.44,1.56,6.3,2.58,11.58,3.06,4.16,.48,7.96,1.28,11.4,2.4,3.44,1.12,6.18,2.88,8.22,5.28,2.04,2.4,3.06,5.76,3.06,10.08,.08,3.6-.9,6.82-2.94,9.66-2.04,2.84-4.86,5.08-8.46,6.72s-7.76,2.46-12.48,2.46h0Z" style="fill:#fff;"/></g><g><path d="M60,40c11.05,0,20,8.95,20,20s-8.95,20-20,20-20-8.95-20-20,8.95-20,20-20" style="fill:#fff;"/><rect width="100" height="100" style="fill:none;"/></g><g><path d="M40,600c0-11.05,8.95-20,20-20s20,8.95,20,20-8.95,20-20,20-20-8.95-20-20" style="fill:#fff;"/><rect y="560" width="100" height="100" style="fill:none;"/></g><g><path d="M1920,620c-11.05,0-20-8.95-20-20s8.95-20,20-20,20,8.95,20,20-8.95,20-20,20" style="fill:#fff;"/><rect x="1880" y="560" width="100" height="100" style="fill:none;"/></g><g><path d="M1940,60c0,11.05-8.95,20-20,20s-20-8.95-20-20,8.95-20,20-20,20,8.95,20,20" style="fill:#fff;"/><rect x="1880" width="100" height="100" style="fill:none;"/></g></svg>