<?xml version="1.0" standalone="no"?>
<!DOCTYPE svg PUBLIC "-//W3C//DTD SVG 1.1//EN" "http://www.w3.org/Graphics/SVG/1.1/DTD/svg11.dtd">
<svg version="1.1" id="uuid-092b18ae-2934-4fc9-a720-3f6fa65101b6" xmlns="http://www.w3.org/2000/svg" xmlns:xlink="http://www.w3.org/1999/xlink" x="0px" y="0px" viewBox="0 0 1080 1080" style="enable-background:new 0 0 1080 1080;" xml:space="preserve" width="1080" height="1080">
<style type="text/css">
	.st0{fill:#253238;}
</style>
<path class="st0" d="M540,156c80.4,0,156.1,25.2,217.3,67.1c7.2,4.8,12,12.6,12,22.2c0,15-12,27-27,27c-5.4,0-10.8-1.8-15-4.8  c-54.7-36.6-116.4-57.6-187.2-57.6c-186,0-330.1,144-330.1,330c0,79.2,25.8,148.2,71.4,205.1c3.6,4.8,6,10.2,6,16.8  c0,15-12,27-27,27c-8.4,0-16.2-4.2-21-10.2C187.2,713.7,156,629.8,156,539.7C155.9,327.6,327.5,156,540,156L540,156z M337.7,807.5  c5.4,0,10.8,1.8,15,4.8c54.7,37.2,116.4,57.6,187.2,57.6c186,0,330.1-144,330.1-330c0-79.2-25.8-147.5-71.4-205.1  c-3.6-4.8-6-10.2-6-16.8c0-15,12-27,27-27c8.4,0,16.2,4.2,21,10.2C892.8,366.6,924,450,924,540.1C924,752.4,752.4,924,539.9,924  c-80.4,0-156.1-24.6-217.3-67.2c-7.2-4.8-12-13.2-12-22.2C310.7,819.6,322.7,807.5,337.7,807.5L337.7,807.5z M717,312  c15,0,27,12,27,27c0,7.8-3,15-8.4,19.7L558.7,524.9c-10.8,10.2-26.4,10.2-37.2,0L344.3,358.8c-5.4-4.8-8.4-12-8.4-19.7  c0-15,12-27,27-27c7.2,0,13.8,3,18.7,7.2L540,468l158.5-148.7C703.3,315,709.9,312,717,312L717,312z M339.5,482.4  c0-14.4,12-27,27-27c15,0,27,12.6,27,27v258c0,15-12,27.6-27,27.6c-15,0-27-12.6-27-27.6V482.4z M686.4,482.4c0-14.4,12-27,27-27  s27,12.6,27,27v258c0,15-12,27.6-27,27.6s-27-12.6-27-27.6V482.4z"/>
</svg>