<?xml version="1.0" standalone="no"?>
<!DOCTYPE svg PUBLIC "-//W3C//DTD SVG 1.1//EN" "http://www.w3.org/Graphics/SVG/1.1/DTD/svg11.dtd">
<svg xmlns="http://www.w3.org/2000/svg" viewBox="0 0 700 700" width="700" height="700"><g id="uuid-e9f7c499-e8de-42e4-9f35-dc352354931f"><circle cx="350" cy="350" r="350" style="fill:#238700;"/></g><g id="uuid-7db49bd8-9edf-487e-b398-32b8e4bf4a6f"><g><path d="M291.58,296.86c-.1,.3-.2,.6-.3,1-.1,.6,.1,1.2,.3,1.69-.4-.3-.9-.5-1.5-.6-.5,0-1.1,.1-1.5,.3,.3-.4,.6-1,.6-1.6,0-.4,0-.7-.1-1,.4,.2,.7,.3,1.2,.3,.5,0,.9,0,1.3-.1Zm1.99-1.99c0,.1-.1,.2-.1,.4,.3-.1,.7-.1,1-.1h.1v-.3h-1Zm-11.17,1.4c-.4,0-.8-.2-1.2-.3,.1,.3,.1,.7,.1,1.1-.1,.6-.3,1.1-.6,1.6,.5-.2,1-.3,1.5-.3s1,.3,1.5,.6c-.3-.5-.4-1.1-.3-1.69,0-.4,.1-.7,.3-1-.5,0-.9,0-1.3,0Zm-9.07,0s.1,0,0,0c-.1,.6-.3,1.2-.6,1.6,.5-.2,1-.3,1.5-.3s1,.3,1.4,.6c-.3-.5-.4-1.1-.3-1.69,0-.1,0-.3,.1-.4-.7,0-1.4,.1-2.09,.2Zm-5.58,1.2c-.1-.1-.1-.3-.2-.4-.2,0-.3,0-.5,.1,.3,0,.5,.1,.7,.3Zm307.74,192.1c-9.37,64.9-66.99,96.8-128.7,84.84-42.47-8.27-79.65-31.8-110.16-61.41-8.27-8.07-16.05-16.65-23.33-25.52-10.77-13.26-20.34-27.51-28.71-42.47-17.15-30.7-28.91-64.3-34.59-98.99-.8-4.98-1.5-9.97-1.99-15.05,.3-.2,.6-.5,.6-.9,.1-.6-.3-1.1-.9-1.2-.2-1.79-.4-3.69-.5-5.48,.2,.2,.5,.3,.8,.3,.9,.1,1.69-.6,1.69-1.5,.1-.9-.6-1.69-1.5-1.69-.5,0-.9,.1-1.3,.5-.2-3.09-.5-6.18-.6-9.27,.5-.4,.9-.9,1-1.6,.1-.9-.4-1.69-1.1-2.09,0-1.2-.1-2.29-.1-3.49,1.2-.1,2.19-1.1,2.29-2.39,0-.6-.1-1.1-.4-1.6,.1,0,.3-.1,.4-.1,.4,.3,.9,.6,1.5,.6,1.2,.1,2.19-.5,2.69-1.5,.2,0,.4-.1,.5-.1,.7-.1,1.4-.3,2.19-.4,0,1.4,1.1,2.59,2.49,2.69,1.5,.1,2.89-1,2.99-2.49,0-.4,0-.8-.1-1.1,.1,0,.2,0,.3-.1,.3,.2,.7,.3,1.1,.3,.6,.1,1.2-.1,1.69-.3-.3,.4-.5,.9-.6,1.5-.1,1.5,1,2.89,2.49,2.99s2.89-1,2.99-2.49c0-.5-.1-1.1-.3-1.5,.4,.3,1,.6,1.6,.6,.6,.1,1.2-.1,1.69-.3-.3,.4-.5,.9-.6,1.4-.1,1.5,1,2.89,2.49,2.99,1.5,.1,2.89-1,2.99-2.49,0-.5-.1-1.1-.3-1.5,.4,.3,1,.6,1.6,.6,.6,.1,1.2-.1,1.69-.3-.3,.4-.5,.9-.6,1.4-.1,1.5,1,2.89,2.49,2.99s2.89-1,2.99-2.49c0-.5-.1-1.1-.3-1.5,.4,.3,1,.6,1.6,.6,.6,.1,1.2-.1,1.69-.3-.3,.4-.5,.9-.6,1.4-.1,1.5,1,2.89,2.49,2.99s2.89-1,2.99-2.49c0-.5-.1-1.1-.3-1.5,.4,.3,1,.6,1.6,.6h.6v2.59c-.3-.1-.5-.2-.8-.2-1.4-.1-2.69,.9-2.79,2.39-.1,1.4,.9,2.69,2.39,2.79,.5,0,1-.1,1.4-.3,0,.6,0,1.2,.1,1.69v.8c0,.9,.1,1.79,.1,2.69-.2-.9-1-1.6-1.89-1.69-1.2-.1-2.29,.8-2.39,1.99s.8,2.29,1.99,2.39,2.19-.8,2.39-1.89c.1,.9,.1,1.69,.2,2.59-.4,.3-.6,.8-.7,1.3-.1,.8,.3,1.5,.9,1.89,.1,1.6,.3,3.09,.4,4.69-.9,0-1.6,.6-1.69,1.5s.6,1.69,1.5,1.69c.2,0,.4,0,.6-.1,3.99,34.59,15.35,68.29,33.6,98.29,8.37,13.86,18.24,26.92,29.51,38.98,.5,.6,1.1,1.2,1.6,1.69,26.92,28.81,63.9,50.94,103.78,52.24,46.66,.6,60.11-32.9,51.64-74.27-4.09-19.34-12.76-37.68-24.13-54.03,.1-.3-.1-.6-.3-.8-.1-.1-.2-.1-.3-.1-2.09-2.89-4.19-5.78-6.48-8.57,.4-.6,.2-1.5-.4-1.89-.4-.3-.9-.3-1.3-.2-1.99-2.39-3.99-4.79-6.08-7.08,.3-.1,.6-.4,.8-.6,.6-.9,.4-2.19-.5-2.79-.9-.6-2.19-.4-2.79,.5l-.1,.1c-.6-.6-1.1-1.2-1.69-1.79l-.9-.9c.4-1,.1-2.19-.8-2.89-.7-.5-1.5-.6-2.29-.3l-.9-.9c1.1,.4,2.29,0,2.99-.9,.8-1.2,.5-2.79-.6-3.59-1.2-.8-2.79-.5-3.59,.6-.5,.7-.6,1.69-.3,2.49l-.4-.4c-.1-.6-.4-1.2-.9-1.69,.4-.7,.8-1.4,1.2-2.09,1.3,.8,2.89,.5,3.79-.7,.9-1.3,.6-2.99-.7-3.89-.1-.1-.2-.1-.4-.2,.4-.7,.8-1.5,1.2-2.19,.1,.2,.3,.3,.5,.5,1.3,.9,2.99,.6,3.89-.7,.9-1.3,.6-2.99-.7-3.89-.4-.3-.8-.4-1.2-.5,0-.1,.1-.1,.1-.2,.4-.2,.8-.5,1-.9,.3-.5,.5-1.1,.5-1.6,.2,.5,.5,.9,1,1.2,1.3,.9,2.99,.6,3.89-.7,.9-1.3,.6-2.99-.7-3.89-.5-.3-1-.5-1.5-.5,.5-.2,1-.6,1.3-1.1s.5-1.1,.5-1.6c.2,.5,.5,.9,1,1.2,1.3,.9,2.99,.6,3.89-.7,.9-1.3,.6-2.99-.7-3.89-.4-.3-1-.5-1.5-.5,.5-.2,1-.6,1.3-1.1s.5-1.1,.5-1.6c.2,.5,.5,.9,1,1.2,1.3,.9,2.99,.6,3.89-.7,.9-1.3,.6-2.99-.7-3.89-.4-.3-1-.5-1.5-.5,.5-.2,1-.6,1.3-1.1s.5-1.1,.5-1.6c.2,.5,.5,.9,1,1.2,1.3,.9,2.99,.6,3.89-.7,.9-1.3,.6-2.99-.7-3.89-.5-.3-1-.5-1.5-.5,.5-.2,1-.6,1.4-1.1,0-.1,.1-.1,.1-.2,.6,.5,1.2,1,1.89,1.6h0c-.8,1.2-.5,2.79,.6,3.59,1,.7,2.39,.6,3.29-.2,.9,.8,1.69,1.5,2.59,2.29-.1,.8,.2,1.69,.9,2.19,.5,.4,1.2,.5,1.79,.3,2.29,2.09,4.49,4.29,6.68,6.48-.4,.1-.8,.3-1,.7-.5,.7-.3,1.69,.4,2.19,.7,.5,1.69,.3,2.19-.4l.3-.6c1.3,1.3,2.59,2.59,3.79,3.99-.1,.5,0,1,.4,1.3,.3,.2,.6,.3,.9,.2,2.59,2.79,5.08,5.58,7.58,8.47-.3-.2-.6-.1-.8,.2-.2,.3-.1,.6,.1,.8,.3,.2,.7,.1,.8-.1,.1-.2,.1-.4,0-.6,18.14,21.23,32.8,45.16,42.37,71.68l1.5,4.49c7.28,20.04,10.27,41.57,7.38,63Zm-285.11-167.78c-.1,1,.6,1.89,1.6,1.99s1.89-.6,1.99-1.6-.6-1.89-1.6-1.99c-1.1-.1-1.89,.6-1.99,1.6Zm-35.09-11.07c.1-1.2-.8-2.29-1.99-2.39s-2.29,.8-2.39,1.99c-.1,1.2,.8,2.29,1.99,2.39s2.29-.8,2.39-1.99Zm-2.69,5.98c-1-.1-1.89,.6-1.99,1.6s.6,1.89,1.6,1.99,1.89-.6,1.99-1.6c.1-1.1-.6-1.89-1.6-1.99Zm2.19-2.09c-.1,1.1,.7,2.09,1.79,2.19s2.09-.7,2.19-1.79c.1-1.1-.7-2.09-1.79-2.19-1.2-.1-2.09,.7-2.19,1.79Zm3.79,4.39c-.1,1,.6,1.89,1.6,1.99s1.89-.6,1.99-1.6-.6-1.89-1.6-1.99c-1-.1-1.89,.6-1.99,1.6Zm4.69-7.58c.1-1.2-.8-2.29-1.99-2.39s-2.29,.8-2.39,1.99c-.1,1.2,.8,2.29,1.99,2.39,1.2,.1,2.29-.8,2.39-1.99Zm-.6,3.89c-.1,1.1,.7,2.09,1.79,2.19s2.09-.7,2.19-1.79c.1-1.1-.7-2.09-1.79-2.19s-2.09,.7-2.19,1.79Zm3.89,4.39c-.1,1,.6,1.89,1.6,1.99s1.89-.6,1.99-1.6-.6-1.89-1.6-1.99c-1.1-.1-1.89,.6-1.99,1.6Zm4.59-7.58c.1-1.2-.8-2.29-1.99-2.39s-2.29,.8-2.39,1.99c-.1,1.2,.8,2.29,1.99,2.39,1.3,.1,2.29-.8,2.39-1.99Zm-.5,3.89c-.1,1.1,.7,2.09,1.79,2.19,1.1,.1,2.09-.7,2.19-1.79,.1-1.1-.7-2.09-1.79-2.19-1.1-.1-2.09,.7-2.19,1.79Zm3.79,4.39c-.1,1,.6,1.89,1.6,1.99s1.89-.6,1.99-1.6-.6-1.89-1.6-1.99-1.89,.6-1.99,1.6Zm4.69-7.58c.1-1.2-.8-2.29-1.99-2.39s-2.29,.8-2.39,1.99,.8,2.29,1.99,2.39c1.3,.1,2.29-.8,2.39-1.99Zm-.5,3.89c-.1,1.1,.7,2.09,1.79,2.19,1.1,.1,2.09-.7,2.19-1.79,.1-1.1-.7-2.09-1.79-2.19-1.1-.1-2.09,.7-2.19,1.79Zm3.79,4.39c-.1,1,.6,1.89,1.6,1.99s1.89-.6,1.99-1.6-.6-1.89-1.6-1.99c-1-.1-1.89,.6-1.99,1.6Zm4.69-7.58c.1-1.2-.8-2.29-1.99-2.39s-2.29,.8-2.39,1.99,.8,2.29,1.99,2.39c1.2,.1,2.29-.8,2.39-1.99Zm-.6,3.89c-.1,1.1,.7,2.09,1.79,2.19,1.1,.1,2.09-.7,2.19-1.79,.1-1.1-.7-2.09-1.79-2.19-1.1-.1-1.99,.7-2.19,1.79Zm2.89-10.07c-1.3-.1-2.49,.9-2.59,2.19-.1,1.3,.9,2.49,2.19,2.59,1.3,.1,2.49-.9,2.59-2.19,.1-1.4-.8-2.49-2.19-2.59Zm-6.38-2.19c-.1,1.4,.9,2.69,2.39,2.79,1.4,.1,2.69-.9,2.79-2.39,.1-1.4-.9-2.69-2.39-2.79-1.4-.1-2.69,1-2.79,2.39Zm-1.5,1.5c-1.3-.1-2.49,.9-2.59,2.19-.1,1.3,.9,2.49,2.19,2.59,1.3,.1,2.49-.9,2.59-2.19,.1-1.4-.9-2.49-2.19-2.59Zm-6.48-2.19c-.1,1.4,.9,2.69,2.39,2.79,1.4,.1,2.69-.9,2.79-2.39,.1-1.4-.9-2.69-2.39-2.79-1.4-.1-2.59,1-2.79,2.39Zm-1.5,1.5c-1.3-.1-2.49,.9-2.59,2.19-.1,1.3,.9,2.49,2.19,2.59,1.3,.1,2.49-.9,2.59-2.19,.1-1.4-.9-2.49-2.19-2.59Zm-6.38-2.19c-.1,1.4,.9,2.69,2.39,2.79,1.4,.1,2.69-.9,2.79-2.39,.1-1.4-.9-2.69-2.39-2.79-1.4-.1-2.69,1-2.79,2.39Zm-1.6,1.5c-1.3-.1-2.49,.9-2.59,2.19-.1,1.3,.9,2.49,2.19,2.59s2.49-.9,2.59-2.19c.1-1.4-.8-2.49-2.19-2.59Zm-6.38-2.19c-.1,1.4,.9,2.69,2.39,2.79,1.4,.1,2.69-.9,2.79-2.39,.1-1.4-.9-2.69-2.39-2.79-1.4-.1-2.69,1-2.79,2.39Zm-1.5,1.5c-1.3-.1-2.49,.9-2.59,2.19-.1,1.3,.9,2.49,2.19,2.59s2.49-.9,2.59-2.19c.1-1.4-.9-2.49-2.19-2.59Zm-6.48-2.19c-.1,1.4,.9,2.69,2.39,2.79,1.4,.1,2.69-.9,2.79-2.39,.1-1.4-.9-2.69-2.39-2.79-1.4-.1-2.69,1-2.79,2.39Zm-1.89,6.18c1.3,.1,2.49-.9,2.59-2.19,.1-1.3-.9-2.49-2.19-2.59s-2.49,.9-2.59,2.19c-.1,1.4,.9,2.49,2.19,2.59Zm1.5,5.78c.1-1.1-.7-2.09-1.79-2.19s-2.09,.7-2.19,1.79c-.1,1.1,.7,2.09,1.79,2.19s2.09-.7,2.19-1.79Zm.1,28.01c0-.3-.2-.6-.5-.7-.3,0-.6,.2-.7,.5,0,.3,.2,.6,.5,.7s.7-.1,.7-.5Zm1.1-7.88c0-.6-.4-1-.9-1.1-.6,0-1,.4-1.1,.9s.4,1,.9,1.1c.6,0,1.1-.4,1.1-.9Zm1.1-7.88c.1-.8-.5-1.5-1.3-1.5-.8-.1-1.5,.5-1.5,1.3-.1,.8,.5,1.5,1.3,1.5,.8,0,1.5-.6,1.5-1.3Zm1.3,20.04c0-.2-.1-.4-.4-.4-.2,0-.4,.1-.4,.4,0,.2,.1,.4,.4,.4s.3-.1,.4-.4Zm1.1-7.88c0-.4-.3-.8-.7-.9-.4,0-.8,.3-.9,.7,0,.4,.3,.8,.7,.9,.4,.1,.8-.3,.9-.7Zm1.1-7.88c.1-.7-.4-1.2-1.1-1.3s-1.2,.4-1.3,1.1,.4,1.2,1.1,1.3c.6,0,1.2-.5,1.3-1.1Zm1.1-7.98c.1-.9-.6-1.69-1.5-1.69s-1.69,.6-1.69,1.5,.6,1.69,1.5,1.69,1.6-.6,1.69-1.5Zm.1,28.11c0-.1-.1-.2-.2-.2s-.2,.1-.2,.2,.1,.2,.2,.2c.1-.1,.2-.1,.2-.2Zm1.1-7.98c0-.3-.2-.6-.5-.7-.3,0-.6,.2-.7,.5,0,.3,.2,.6,.5,.7,.4,.1,.7-.1,.7-.5Zm1.1-7.88c0-.6-.4-1-.9-1.1-.6,0-1,.4-1.1,.9s.4,1,.9,1.1c.6,0,1.1-.4,1.1-.9Zm1.1-7.88c.1-.8-.5-1.5-1.3-1.5-.8-.1-1.5,.5-1.5,1.3-.1,.8,.5,1.5,1.3,1.5,.7,0,1.4-.6,1.5-1.3Zm1.2,20.04c0-.2-.1-.4-.4-.4s-.4,.1-.4,.4,.1,.4,.4,.4c.2,0,.4-.1,.4-.4Zm1.1-7.88c0-.4-.3-.8-.7-.9s-.8,.3-.9,.7c0,.4,.3,.8,.7,.9,.5,.1,.9-.3,.9-.7Zm1.1-7.88c.1-.7-.4-1.2-1.1-1.3s-1.2,.4-1.3,1.1,.4,1.2,1.1,1.3,1.3-.5,1.3-1.1Zm1.1-7.98c.1-.9-.6-1.69-1.5-1.69s-1.69,.6-1.69,1.5,.6,1.69,1.5,1.69,1.6-.6,1.69-1.5Zm.2,28.11c0-.1-.1-.2-.2-.2s-.2,.1-.2,.2,.1,.2,.2,.2c.1-.1,.2-.1,.2-.2Zm1.1-7.98c0-.3-.2-.6-.5-.7-.3,0-.6,.2-.7,.5s.2,.6,.5,.7c.3,.1,.6-.2,.7-.5Zm1.1-7.88c0-.6-.4-1-.9-1.1s-1,.4-1.1,.9,.4,1,.9,1.1c.5,0,1-.4,1.1-.9Zm1.1-7.88c.1-.8-.5-1.5-1.3-1.5-.8-.1-1.5,.5-1.5,1.3-.1,.8,.5,1.5,1.3,1.5,.7,0,1.4-.6,1.5-1.3Zm1.2,20.04c0-.2-.1-.4-.4-.4s-.4,.1-.4,.4c0,.2,.1,.4,.4,.4s.4-.1,.4-.4Zm1.1-7.88c0-.4-.3-.8-.7-.9-.4,0-.8,.3-.9,.7,0,.4,.3,.8,.7,.9,.5,.1,.9-.3,.9-.7Zm1.1-7.88c.1-.7-.4-1.2-1.1-1.3-.7-.1-1.2,.4-1.3,1.1s.4,1.2,1.1,1.3,1.2-.5,1.3-1.1Zm1.1-7.98c.1-.9-.6-1.69-1.5-1.69s-1.69,.6-1.69,1.5,.6,1.69,1.5,1.69c.8,.1,1.6-.6,1.69-1.5Zm.2,28.11c0-.1-.1-.2-.2-.2s-.2,.1-.2,.2,.1,.2,.2,.2c0-.1,.1-.1,.2-.2Zm1-7.98c0-.3-.2-.6-.5-.7s-.6,.2-.7,.5c0,.3,.2,.6,.5,.7,.4,.1,.7-.2,.7-.5Zm1.1-7.88c0-.6-.4-1-.9-1.1s-1,.4-1.1,.9,.4,1,.9,1.1c.6,0,1.1-.4,1.1-.9Zm1.1-7.88c.1-.8-.5-1.5-1.3-1.5-.8-.1-1.5,.5-1.5,1.3-.1,.8,.5,1.5,1.3,1.5s1.5-.6,1.5-1.3Zm1.3,20.04c0-.2-.1-.4-.4-.4-.2,0-.4,.1-.4,.4s.1,.4,.4,.4c.2,0,.4-.1,.4-.4Zm1.1-7.88c0-.4-.3-.8-.7-.9-.4,0-.8,.3-.9,.7,0,.4,.3,.8,.7,.9,.5,.1,.8-.3,.9-.7Zm1.1-7.88c.1-.7-.4-1.2-1.1-1.3-.7-.1-1.2,.4-1.3,1.1s.4,1.2,1.1,1.3,1.2-.5,1.3-1.1Zm1.1-7.98c.1-.9-.6-1.69-1.5-1.69-.9-.1-1.69,.6-1.69,1.5-.1,.9,.6,1.69,1.5,1.69,.8,.1,1.6-.6,1.69-1.5Zm.1,28.01c0-.1-.1-.2-.2-.2s-.2,.1-.2,.2,.1,.2,.2,.2,.2-.1,.2-.2Zm1.1-7.88c0-.3-.2-.6-.5-.7s-.6,.2-.7,.5c0,.3,.2,.6,.5,.7,.4,.1,.7-.2,.7-.5Zm1.1-7.88c0-.6-.4-1-.9-1.1s-1,.4-1.1,.9,.4,1,.9,1.1c.6,0,1.1-.4,1.1-.9Zm1.1-7.88c.1-.8-.5-1.5-1.3-1.5-.8-.1-1.5,.5-1.5,1.3-.1,.8,.5,1.5,1.3,1.5,.7,0,1.4-.6,1.5-1.3Zm1.3,20.04c0-.2-.1-.4-.4-.4s-.4,.1-.4,.4c0,.2,.1,.4,.4,.4s.3-.2,.4-.4Zm1-7.88c0-.4-.3-.8-.7-.9s-.8,.3-.9,.7c0,.4,.3,.8,.7,.9,.5,0,.9-.3,.9-.7Zm1.1-7.88c.1-.7-.4-1.2-1.1-1.3s-1.2,.4-1.3,1.1,.4,1.2,1.1,1.3,1.3-.5,1.3-1.1Zm1.1-7.98c.1-.9-.6-1.69-1.5-1.69-.9-.1-1.69,.6-1.69,1.5-.1,.9,.6,1.69,1.5,1.69s1.69-.6,1.69-1.5Zm.2,28.01c0-.1-.1-.2-.2-.2s-.2,.1-.2,.2,.1,.2,.2,.2c.1,0,.2-.1,.2-.2Zm1.1-7.88c0-.3-.2-.6-.5-.7-.3,0-.6,.2-.7,.5,0,.3,.2,.6,.5,.7,.4,.1,.7-.2,.7-.5Zm1.1-7.88c0-.6-.4-1-.9-1.1s-1,.4-1.1,.9,.4,1,.9,1.1c.5,0,1-.4,1.1-.9Zm1.1-7.98c.1-.8-.5-1.5-1.3-1.5-.8-.1-1.5,.5-1.5,1.3-.1,.8,.5,1.5,1.3,1.5,.7,.1,1.4-.5,1.5-1.3Zm1.2,20.14c0-.2-.1-.4-.4-.4s-.4,.1-.4,.4c0,.2,.1,.4,.4,.4s.4-.2,.4-.4Zm1.1-7.88c0-.4-.3-.8-.7-.9-.4,0-.8,.3-.9,.7,0,.4,.3,.8,.7,.9,.5,0,.9-.3,.9-.7Zm1.1-7.88c.1-.7-.4-1.2-1.1-1.3-.7-.1-1.2,.4-1.3,1.1s.4,1.2,1.1,1.3c.7,0,1.2-.5,1.3-1.1Zm1.3,20.04c0-.1-.1-.2-.2-.2s-.2,.1-.2,.2,.1,.2,.2,.2c0,0,.2-.1,.2-.2Zm1.1-7.88c0-.3-.2-.6-.5-.7-.3,0-.6,.2-.7,.5,0,.3,.2,.6,.5,.7s.6-.2,.7-.5Zm214.33-.8c-.5-.4-1.3-.2-1.69,.3-.4,.5-.2,1.3,.3,1.69,.5,.4,1.3,.2,1.69-.3,.4-.6,.2-1.3-.3-1.69Zm-2.49-3.39c.6,.5,1.5,.3,1.99-.3,.5-.6,.3-1.5-.3-1.99-.6-.5-1.5-.3-1.99,.3-.5,.6-.3,1.5,.3,1.99Zm-2.09,9.97c-.5-.4-1.3-.2-1.69,.3-.4,.5-.2,1.3,.3,1.69,.5,.4,1.3,.2,1.69-.3,.4-.6,.2-1.4-.3-1.69Zm-.9-5.78c-.6-.5-1.5-.3-1.99,.3-.5,.6-.3,1.5,.3,1.99,.6,.5,1.5,.3,1.99-.3,.5-.7,.4-1.5-.3-1.99Zm-.8-5.68c-.7-.5-1.69-.3-2.19,.4-.5,.7-.3,1.69,.4,2.19,.7,.5,1.69,.3,2.19-.4,.5-.7,.3-1.69-.4-2.19Zm-23.43,12.56c1,.7,2.39,.5,3.09-.5s.5-2.39-.5-3.09-2.39-.5-3.09,.5c-.8,1-.5,2.39,.5,3.09Zm2.19-5.98c.8-1.1,.5-2.59-.6-3.29-1.1-.8-2.59-.5-3.29,.6-.8,1.1-.5,2.59,.6,3.29,1.1,.8,2.59,.5,3.29-.6Zm1.3-5.98c1.1,.8,2.59,.5,3.29-.6,.8-1.1,.5-2.59-.6-3.29-1.1-.8-2.59-.5-3.29,.6-.8,1.1-.5,2.59,.6,3.29Zm1.1,5.38c1,.7,2.39,.5,3.09-.5s.5-2.39-.5-3.09-2.39-.5-3.09,.5c-.8,1.1-.5,2.39,.5,3.09Zm1.1,5.48c.9,.6,2.19,.4,2.79-.5,.6-.9,.4-2.19-.5-2.79-.9-.6-2.19-.4-2.79,.5-.7,.9-.4,2.09,.5,2.79Zm3.49-11.96c1,.7,2.39,.5,3.09-.5s.5-2.39-.5-3.09-2.39-.5-3.09,.5c-.8,1-.5,2.39,.5,3.09Zm-2.39,17.35c.8,.6,1.89,.4,2.49-.4s.4-1.89-.4-2.49-1.89-.4-2.49,.4c-.7,.8-.5,1.89,.4,2.49Zm3.39-11.96c.9,.6,2.19,.4,2.79-.5,.6-.9,.4-2.19-.5-2.79-.9-.6-2.19-.4-2.79,.5-.6,.9-.4,2.19,.5,2.79Zm1.1,5.38c.8,.6,1.89,.4,2.49-.4s.4-1.89-.4-2.49-1.89-.4-2.49,.4-.4,1.89,.4,2.49Zm1.1,5.38c.7,.5,1.69,.3,2.19-.4,.5-.7,.3-1.69-.4-2.19-.7-.5-1.69-.3-2.19,.4-.5,.7-.3,1.69,.4,2.19Zm1.1,5.38c.6,.5,1.5,.3,1.99-.3,.5-.6,.3-1.5-.3-1.99-.6-.5-1.5-.3-1.99,.3-.5,.7-.3,1.6,.3,1.99Zm1.1,5.38c.5,.4,1.3,.2,1.69-.3,.4-.5,.2-1.3-.3-1.69-.5-.4-1.3-.2-1.69,.3-.3,.6-.2,1.4,.3,1.69Zm2.39-17.25c.7,.5,1.69,.3,2.19-.4,.5-.7,.3-1.69-.4-2.19-.7-.5-1.69-.3-2.19,.4-.5,.7-.3,1.69,.4,2.19Zm1.1,5.38c.6,.5,1.5,.3,1.99-.3,.5-.6,.3-1.5-.3-1.99-.6-.5-1.5-.3-1.99,.3-.5,.7-.3,1.5,.3,1.99Zm1.1,5.38c.5,.4,1.3,.2,1.69-.3,.4-.5,.2-1.3-.3-1.69-.5-.4-1.3-.2-1.69,.3s-.2,1.3,.3,1.69Zm3.39-25.62c-.8-.6-1.89-.4-2.49,.4s-.4,1.89,.4,2.49,1.89,.4,2.49-.4c.6-.9,.4-1.99-.4-2.49Zm-3.19-2.49c.9,.6,2.19,.4,2.79-.5,.6-.9,.4-2.19-.5-2.79-.9-.6-2.19-.4-2.79,.5s-.4,2.19,.5,2.79Zm-1.4,8.97c-.8-.6-1.89-.4-2.49,.4s-.4,1.89,.4,2.49,1.89,.4,2.49-.4,.4-1.89-.4-2.49Zm-.9-5.68c-.9-.6-2.19-.4-2.79,.5-.6,.9-.4,2.19,.5,2.79,.9,.6,2.19,.4,2.79-.5,.7-.9,.4-2.19-.5-2.79Zm-.8-5.78c-1-.7-2.39-.5-3.09,.5s-.5,2.39,.5,3.09,2.39,.5,3.09-.5c.7-1,.5-2.39-.5-3.09Zm-3.69-1.79c1.1,.8,2.59,.5,3.29-.6,.8-1.1,.5-2.59-.6-3.29-1.1-.8-2.59-.5-3.29,.6-.7,1.1-.4,2.59,.6,3.29Zm-1.79,2.69c-1.1-.8-2.59-.5-3.29,.6-.8,1.1-.5,2.59,.6,3.29,1.1,.8,2.59,.5,3.29-.6,.8-1.1,.5-2.59-.6-3.29Zm-3.79-1.5c1.2,.8,2.79,.5,3.59-.6,.8-1.2,.5-2.79-.6-3.59s-2.79-.5-3.59,.6-.6,2.79,.6,3.59Zm-4.59,6.48c1.2,.8,2.79,.5,3.59-.6s.5-2.79-.6-3.59c-1.2-.8-2.79-.5-3.59,.6-.9,1.2-.6,2.79,.6,3.59Zm-4.59,6.58c1.2,.8,2.79,.5,3.59-.6s.5-2.79-.6-3.59c-1.2-.8-2.79-.5-3.59,.6-.9,1.2-.6,2.79,.6,3.59Zm-4.59,6.48c1.2,.8,2.79,.5,3.59-.6,.8-1.2,.5-2.79-.6-3.59s-2.79-.5-3.59,.6-.6,2.79,.6,3.59Zm-4.59,6.58c1.2,.8,2.79,.5,3.59-.6s.5-2.79-.6-3.59-2.79-.5-3.59,.6c-.8,1.2-.6,2.79,.6,3.59Zm1.1,5.38c1.1,.8,2.59,.5,3.29-.6,.8-1.1,.5-2.59-.6-3.29-1.1-.8-2.59-.5-3.29,.6-.7,1-.5,2.49,.6,3.29Zm3.59,1.79c-1-.7-2.39-.5-3.09,.5s-.5,2.39,.5,3.09,2.39,.5,3.09-.5c.8-1,.5-2.39-.5-3.09Zm1-8.27c1.1,.8,2.59,.5,3.29-.6,.8-1.1,.5-2.59-.6-3.29-1.1-.8-2.59-.5-3.29,.6-.8,1-.5,2.49,.6,3.29Zm1.1,5.38c1,.7,2.39,.5,3.09-.5s.5-2.39-.5-3.09-2.39-.5-3.09,.5c-.8,1-.5,2.39,.5,3.09Zm1.1,5.38c.9,.6,2.19,.4,2.79-.5,.6-.9,.4-2.19-.5-2.79-.9-.6-2.19-.4-2.79,.5-.6,.9-.4,2.09,.5,2.79Zm1.1,5.38c.8,.6,1.89,.4,2.49-.4s.4-1.89-.4-2.49-1.89-.4-2.49,.4-.4,1.89,.4,2.49Zm2.89,2.79c-.7-.5-1.69-.3-2.19,.4-.5,.7-.3,1.69,.4,2.19,.7,.5,1.69,.3,2.19-.4,.5-.7,.3-1.69-.4-2.19Zm3.39-15.25c.6-.9,.4-2.19-.5-2.79-.9-.6-2.19-.4-2.79,.5-.6,.9-.4,2.19,.5,2.79s2.09,.4,2.79-.5Zm-1.69,5.88c.8,.6,1.89,.4,2.49-.4s.4-1.89-.4-2.49-1.89-.4-2.49,.4-.4,1.99,.4,2.49Zm1.1,5.38c.7,.5,1.69,.3,2.19-.4,.5-.7,.3-1.69-.4-2.19-.7-.5-1.69-.3-2.19,.4-.5,.7-.4,1.69,.4,2.19Zm1.1,5.38c.6,.5,1.5,.3,1.99-.3,.5-.6,.3-1.5-.3-1.99-.6-.5-1.5-.3-1.99,.3-.5,.7-.4,1.6,.3,1.99Zm1.1,5.38c.5,.4,1.3,.2,1.69-.3,.4-.5,.2-1.3-.3-1.69-.5-.4-1.3-.2-1.69,.3-.4,.6-.3,1.4,.3,1.69Zm2.19,3.79c-.5-.3-1.1-.2-1.4,.2-.3,.5-.2,1.1,.2,1.4,.5,.3,1.1,.2,1.4-.2,.4-.4,.3-1.1-.2-1.4Zm2.39-21.43c.5-.7,.3-1.69-.4-2.19-.7-.5-1.69-.3-2.19,.4-.5,.7-.3,1.69,.4,2.19,.7,.5,1.69,.3,2.19-.4Zm-1.2,5.78c.6,.5,1.5,.3,1.99-.3,.5-.6,.3-1.5-.3-1.99-.6-.5-1.5-.3-1.99,.3-.4,.7-.3,1.5,.3,1.99Zm1.2,5.38c.5,.4,1.3,.2,1.69-.3,.4-.5,.2-1.3-.3-1.69-.5-.4-1.3-.2-1.69,.3-.4,.6-.3,1.3,.3,1.69Zm2.39,5.08c.3-.5,.2-1.1-.2-1.4-.5-.3-1.1-.2-1.4,.2-.3,.5-.2,1.1,.2,1.4s1.1,.3,1.4-.2Zm.9,5.48c.2-.4,.2-.9-.2-1.1s-.9-.2-1.1,.2-.2,.9,.2,1.1,.8,.2,1.1-.2Zm.6,4.59c-.3-.2-.7-.1-.8,.1-.2,.3-.1,.7,.2,.8,.3,.2,.6,.1,.8-.2,.2-.1,.1-.5-.2-.7Zm.9,5.78c-.2-.1-.4-.1-.6,.1s-.1,.4,.1,.6,.4,.1,.6-.1,.1-.5-.1-.6Zm.9,5.68c-.1-.1-.2,0-.3,0-.1,.1,0,.2,0,.3,.1,.1,.2,0,.3,0,.1-.1,0-.2,0-.3Zm1.3-28.01c.3-.5,.2-1.1-.2-1.4-.5-.3-1.1-.2-1.4,.2-.3,.5-.2,1.1,.2,1.4,.5,.4,1.1,.2,1.4-.2Zm.9,5.38c.2-.4,.2-.9-.2-1.1s-.9-.2-1.1,.2-.2,.9,.2,1.1,.8,.2,1.1-.2Zm.8,5.48c.2-.3,.1-.6-.1-.8-.3-.2-.7-.1-.8,.1-.2,.3-.1,.7,.2,.8,.1,.3,.5,.2,.7-.1Zm.7,4.88c-.2-.1-.4-.1-.6,.1-.1,.2-.1,.4,.1,.6,.2,.1,.4,.1,.6-.1,.1-.2,.1-.5-.1-.6Zm.9,5.68c-.1-.1-.2,0-.3,0-.1,.1,0,.2,0,.3,.1,.1,.2,0,.3,0,.1-.1,0-.2,0-.3Zm1.3-28.01c.3-.5,.2-1.1-.2-1.4-.5-.3-1.1-.2-1.4,.2-.3,.5-.2,1.1,.2,1.4,.5,.4,1.1,.3,1.4-.2Zm.8,5.48c.2-.4,.2-.9-.2-1.1s-.9-.2-1.1,.2-.2,.9,.2,1.1,.9,.2,1.1-.2Zm.9,5.48c.2-.3,.1-.7-.2-.8-.3-.2-.6-.1-.8,.2-.2,.3-.1,.6,.1,.8,.3,.1,.7,0,.9-.2Zm.7,4.88c-.2-.1-.4-.1-.6,.1s-.1,.4,.1,.6,.4,.1,.6-.1c.1-.3,.1-.5-.1-.6Zm.8,5.68c-.1-.1-.2,0-.3,0-.1,.1,0,.2,0,.3,.1,.1,.2,0,.3,0,.2-.1,.1-.2,0-.3Zm1.4-28.01c.3-.5,.2-1.1-.2-1.4-.5-.3-1.1-.2-1.4,.2-.3,.5-.2,1.1,.2,1.4s1.1,.2,1.4-.2Zm.8,5.48c.2-.4,.2-.9-.2-1.1s-.9-.2-1.1,.2-.2,.9,.2,1.1,.9,.1,1.1-.2Zm.9,5.38c.2-.3,.1-.7-.2-.8-.3-.2-.6-.1-.8,.2-.2,.3-.1,.6,.1,.8,.3,.1,.7,.1,.9-.2Zm.7,4.88c-.2-.1-.4-.1-.6,.1-.1,.2-.1,.4,.1,.6s.4,.1,.6-.1c.1-.2,0-.5-.1-.6Zm.8,5.68c-.1-.1-.2,0-.3,0-.1,.1,0,.2,0,.3,.1,.1,.2,0,.3,0,.1-.1,.1-.2,0-.3Zm1.4-28.01c.3-.5,.2-1.1-.2-1.4-.5-.3-1.1-.2-1.4,.2-.3,.5-.2,1.1,.2,1.4,.5,.4,1.1,.3,1.4-.2Zm.8,5.48c.2-.4,.2-.9-.2-1.1s-.9-.2-1.1,.2-.2,.9,.2,1.1,.9,.1,1.1-.2Zm.8,5.48c.2-.3,.1-.6-.1-.8-.3-.2-.7-.1-.8,.1-.2,.3-.1,.7,.2,.8,.2,.2,.5,.1,.7-.1Zm.7,4.79c-.2-.1-.4-.1-.6,.1s-.1,.4,.1,.6c.2,.1,.4,.1,.6-.1s.1-.4-.1-.6Zm.9,5.78c-.1-.1-.2,0-.3,0-.1,.1,0,.2,0,.3,.1,.1,.2,0,.3,0,.1-.1,.1-.3,0-.3Zm1.4-28.01c.3-.5,.2-1.1-.2-1.4-.5-.3-1.1-.2-1.4,.2s-.2,1.1,.2,1.4c.5,.3,1.1,.2,1.4-.2Zm.8,5.38c.2-.4,.2-.9-.2-1.1s-.9-.2-1.1,.2-.2,.9,.2,1.1,.9,.2,1.1-.2Zm.8,5.48c.2-.3,.1-.7-.2-.8-.3-.2-.6-.1-.8,.2-.2,.3-.1,.6,.1,.8,.4,.1,.7,.1,.9-.2Zm.7,4.88c-.2-.1-.4-.1-.6,.1s-.1,.4,.1,.6,.4,.1,.6-.1c.2-.2,.1-.5-.1-.6Zm.9,5.68c-.1-.1-.2,0-.3,0-.1,.1,0,.2,0,.3,.1,.1,.2,0,.3,0,.1-.1,.1-.2,0-.3Zm3.69-12.26c-.2-.1-.4-.1-.6,.1s-.1,.4,.1,.6c.2,.1,.4,.1,.6-.1s.1-.4-.1-.6Zm.9,5.78c-.1-.1-.2,0-.3,0-.1,.1,0,.2,0,.3,.1,.1,.2,0,.3,0,.1-.1,.1-.3,0-.3Zm-39.18-46.66c.1-.2,.3-.4,.5-.5-.2-.2-.4-.3-.6-.5-.2,.5-.4,1.1-.6,1.6,.1,.1,.2,.3,.3,.4,.1-.4,.2-.7,.4-1Zm-7.98,18.74c.3-.4,.7-.8,1.2-1-.4,0-.8-.1-1.2-.3-.3,.7-.6,1.3-.9,1.99,.2,.2,.3,.5,.4,.7,0-.4,.2-1,.5-1.4Zm4.09-5.08c0-.5,.2-1,.5-1.5,.3-.4,.7-.8,1.2-1-.6,0-1.1-.2-1.6-.5-.3-.2-.5-.5-.7-.8-.1,.4-.2,.8-.5,1.1v.1c-.1,.3-.3,.6-.4,.9,.2,.1,.4,.2,.5,.3,.4,.4,.8,.9,1,1.4Zm4.59-6.48c0-.5,.2-1,.5-1.5s.7-.8,1.2-1c-.6,0-1.1-.2-1.6-.5-.3-.2-.5-.5-.7-.8-.1,.4-.2,.8-.5,1.1-.2,.3-.5,.6-.9,.8,.3,.1,.7,.2,1,.4,.4,.5,.8,.9,1,1.5Z" style="fill:#fff;"/><path d="M430.55,317.49c.3,.2,.6,.3,1,.4-.3,.2-.6,.5-.9,.8-.2,.3-.4,.7-.5,1.1-.2-.3-.4-.5-.7-.8-.5-.3-1.1-.5-1.6-.5,.5-.2,.9-.5,1.2-1,.3-.4,.5-1,.5-1.5,.1,.7,.5,1.1,1,1.5Zm-5.68,5.18c0,.5-.2,1-.5,1.4-.3,.5-.7,.8-1.2,1,.6,0,1.1,.2,1.6,.5,.3,.2,.5,.5,.7,.7,.1-.4,.2-.8,.5-1.1,.2-.3,.5-.6,.9-.8-.3-.1-.7-.2-1-.4-.4-.3-.7-.8-1-1.3Zm9.17-13.06c0,.5-.2,1-.5,1.5-.3,.4-.7,.8-1.2,1,.6,0,1.1,.2,1.6,.5l.3,.3c.3-.6,.6-1.3,.8-1.89h0c-.4-.4-.8-.9-1-1.4Zm-8.47,20.14c0,.1-.1,.1,0,0,0,.1,.1,.2,.1,.2,.2-.3,.3-.6,.5-.9-.1-.1-.1-.2-.2-.2-.1,.3-.2,.6-.4,.9Zm18.64-42.87c0,.1-.1,.2-.1,.4-.5,.2-1,.5-1.4,1-.7,1-.6,2.29,0,3.19-.3,.9-.6,1.69-.9,2.59-1.2-.7-2.89-.4-3.69,.8-.9,1.3-.6,2.99,.7,3.89,.3,.2,.7,.4,1.1,.5,0,.1-.1,.2-.1,.3-.3,.2-.7,.5-.9,.8-.3,.5-.5,1.1-.5,1.6-.2-.5-.5-.9-1-1.2-1.3-.9-2.99-.6-3.89,.7-.9,1.3-.6,2.99,.7,3.89,.5,.3,1,.5,1.5,.5-.5,.2-1,.6-1.3,1.1s-.5,1.1-.5,1.6c-.2-.5-.5-.9-1-1.2-1.3-.9-2.99-.6-3.89,.7-.9,1.3-.6,2.99,.7,3.89,.4,.3,.9,.5,1.4,.5-.5,.2-1,.6-1.3,1.1s-.5,1.1-.5,1.6c-.2-.5-.5-.9-1-1.2-1.3-.9-2.99-.6-3.89,.7-.9,1.3-.6,2.99,.7,3.89,.4,.3,1,.5,1.5,.5-.5,.2-1,.6-1.3,1.1s-.5,1-.5,1.6c-.2-.5-.5-.9-1-1.2-1.3-.9-2.99-.6-3.89,.7-.9,1.3-.6,2.99,.7,3.89,.5,.3,1,.5,1.5,.5-.5,.2-1,.6-1.3,1.1-.1,.2-.2,.3-.3,.5-.8-.4-1.5-.9-2.29-1.3l.6-.6c.8-1.2,.5-2.79-.6-3.59s-2.79-.5-3.59,.6c-.3,.4-.4,.9-.5,1.4-.5-.3-1-.5-1.5-.8l-.1-.1c-.2-.1-.4-.2-.7-.3-.8-.4-1.6-.8-2.39-1.2,.9,.3,1.89,0,2.49-.8,.7-1,.5-2.39-.5-3.09s-2.39-.5-3.09,.5-.5,2.29,.5,2.99c-.8-.4-1.5-.8-2.29-1.2-.1-.5-.4-1-.8-1.3-.6-.4-1.5-.5-2.09-.1-1.4-.7-2.79-1.3-4.29-1.99,.5-.7,.3-1.69-.4-2.19-.7-.5-1.69-.3-2.19,.4-.1,.2-.2,.4-.2,.5-32-13.86-66.89-20.84-101.78-20.14-13.86,.3-27.71,1.79-41.47,4.69-2.39,.4-4.79,.9-7.18,1.5-41.87,9.37-84.04,33.1-103.28,71.68h0c-18.74,39.58,10.07,65.3,46.56,75.76,17.74,5.08,36.29,6.38,54.63,4.79,.2,.2,.6,.3,.9,.2l.3-.3c3.59-.3,7.08-.8,10.67-1.3h0c.3,.7,1.2,1,1.89,.7,.5-.2,.7-.6,.8-1.1,3.09-.5,6.08-1.1,9.17-1.79,0,.3,0,.7,.2,1,.5,1,1.69,1.4,2.69,1,1-.5,1.4-1.69,1-2.69,0-.1-.1-.1-.1-.2,1.2-.3,2.39-.6,3.59-.9,.7,.9,1.89,1.2,2.89,.7,.8-.4,1.3-1.1,1.4-1.89,.4-.1,.9-.2,1.3-.4-.9,.7-1.2,1.99-.7,3.09,.6,1.3,2.19,1.89,3.49,1.3s1.89-2.19,1.3-3.49c-.4-.8-1.2-1.4-1.99-1.5,.2-.1,.4-.1,.5-.2,.6,.2,1.3,.3,1.99,.1,.4,.7,.8,1.4,1.2,2.09-1.3,.7-1.89,2.29-1.3,3.69,.7,1.4,2.29,1.99,3.69,1.4,.1-.1,.2-.1,.4-.2,.4,.7,.9,1.5,1.3,2.19-.2,0-.4,.1-.7,.2-1.4,.7-1.99,2.29-1.4,3.69,.7,1.4,2.29,1.99,3.69,1.4,.4-.2,.8-.5,1-.8,0,.1,.1,.1,.1,.2,0,.4,.1,.9,.3,1.3,.3,.6,.7,1,1.1,1.3-.5-.1-1,0-1.5,.2-1.4,.7-1.99,2.29-1.4,3.69,.7,1.4,2.29,1.99,3.69,1.4,.5-.2,.9-.6,1.2-1-.1,.6,0,1.1,.2,1.69,.3,.6,.7,1,1.1,1.3-.5-.1-1,0-1.5,.2-1.4,.7-1.99,2.29-1.4,3.69,.7,1.4,2.29,1.99,3.69,1.4,.5-.2,.9-.6,1.2-1-.1,.6,0,1.1,.2,1.69,.3,.6,.7,1,1.1,1.3-.5-.1-1,0-1.5,.2-1.4,.7-1.99,2.29-1.4,3.69s2.29,1.99,3.69,1.4c.5-.2,.9-.6,1.2-1-.1,.6,0,1.1,.2,1.69,.3,.5,.7,1,1.1,1.3-.5-.1-1,0-1.5,.2-1.4,.7-1.99,2.29-1.4,3.69,.7,1.4,2.29,1.99,3.69,1.4,.5-.2,.9-.6,1.2-1-.1,.6,0,1.2,.2,1.69,0,.1,.1,.2,.2,.3-.8,.3-1.5,.6-2.29,.8v-.1c-.6-1.3-2.19-1.89-3.49-1.3-1.2,.5-1.69,1.79-1.4,2.99-1.1,.4-2.19,.7-3.29,1.1-.6-.6-1.6-.8-2.39-.4-.6,.3-1.1,.9-1.2,1.5-2.99,.9-5.98,1.79-8.97,2.59,.2-.4,.2-.9,0-1.3-.4-.8-1.3-1.1-2.09-.8-.8,.4-1.2,1.3-.8,2.09,.1,.2,.3,.4,.5,.6-1.79,.5-3.59,.9-5.38,1.3-.3-.4-.9-.5-1.4-.3-.3,.2-.5,.4-.6,.8-32.1,7.38-65.4,8.87-97.7,2.69-26.12-5.38-51.44-16.55-70.48-35.79-23.13-22.93-33.5-56.42-26.82-88.43,6.28-31.4,26.62-58.32,51.14-78.06,23.53-18.94,51.14-32.3,79.85-41.07,12.96-3.99,26.12-6.98,39.38-9.07,16.95-2.69,33.99-3.89,51.04-3.59,40.18,.6,80.15,9.17,117.04,25.12,0,.4,.1,.8,.5,1.1,.5,.4,1.2,.2,1.6-.2,1.69,.8,3.39,1.5,5.08,2.29-.3,.1-.5,.3-.7,.6-.5,.7-.3,1.69,.4,2.19,.7,.5,1.69,.3,2.19-.4,.3-.4,.4-1,.2-1.4,2.79,1.3,5.58,2.69,8.37,4.19,0,.7,.3,1.3,.9,1.79,.8,.5,1.69,.5,2.49,0,1,.5,1.99,1.1,2.99,1.6-.6,1.1-.2,2.49,.8,3.29,.5,.2,1.1,.3,1.69,.3Zm-195.19,203.17c0-.1-.2-.1-.3-.1s-.1,.2-.1,.3,.2,.1,.3,.1c.1,0,.2-.2,.1-.3Zm2.09-5.38c-.1-.2-.3-.3-.5-.2-.2,.1-.3,.3-.2,.5s.3,.3,.5,.2c.2,0,.3-.3,.2-.5Zm1.3,12.66c0-.1-.2-.1-.3-.1s-.1,.2-.1,.3,.2,.1,.3,.1c.1-.1,.2-.2,.1-.3Zm2.09-5.38c-.1-.2-.3-.3-.5-.2s-.3,.3-.2,.5,.3,.3,.5,.2,.3-.3,.2-.5Zm.9-18.04c-.2-.4-.7-.6-1.1-.4-.4,.2-.6,.7-.4,1.1,.2,.4,.7,.6,1.1,.4,.4-.2,.6-.7,.4-1.1Zm1.2,12.66c-.1-.3-.5-.4-.8-.3s-.4,.5-.3,.8c.1,.3,.5,.4,.8,.3,.4-.2,.5-.5,.3-.8Zm1.3,12.56c-.1-.2-.3-.3-.5-.2-.2,.1-.3,.3-.2,.5s.3,.3,.5,.2c.2,0,.3-.3,.2-.5Zm.8-17.94c-.2-.4-.7-.6-1.1-.4-.4,.2-.6,.7-.4,1.1s.7,.6,1.1,.4c.5-.2,.6-.7,.4-1.1Zm1.3,12.56c-.1-.3-.5-.4-.8-.3s-.4,.5-.3,.8c.1,.3,.5,.4,.8,.3s.5-.5,.3-.8Zm.4-16.65c.5-.2,.7-.8,.5-1.3s-.8-.7-1.3-.5-.7,.8-.5,1.3,.8,.7,1.3,.5Zm25.52-1.79c1.1-.5,1.6-1.79,1.1-2.89s-1.79-1.6-2.89-1.1-1.6,1.79-1.1,2.89c.5,1.2,1.79,1.6,2.89,1.1Zm-1,2.49c-.5-1-1.69-1.4-2.69-1-1,.5-1.4,1.69-1,2.69,.5,1,1.69,1.4,2.69,1,1-.5,1.4-1.69,1-2.69Zm1.5,3.69c.5,1.1,1.79,1.6,2.89,1.1s1.6-1.79,1.1-2.89-1.79-1.6-2.89-1.1-1.6,1.79-1.1,2.89Zm4.88-4.09c1.2-.6,1.69-1.99,1.2-3.19s-1.99-1.69-3.19-1.2c-1.2,.6-1.69,1.99-1.2,3.19s1.99,1.79,3.19,1.2Zm-2.19-10.37c-.6-1.2-1.99-1.69-3.19-1.2-1.2,.6-1.69,1.99-1.2,3.19,.6,1.2,1.99,1.69,3.19,1.2,1.2-.6,1.79-1.99,1.2-3.19Zm-3.39-7.28c-.6-1.2-1.99-1.69-3.19-1.2s-1.69,1.99-1.2,3.19c.6,1.2,1.99,1.69,3.19,1.2,1.3-.5,1.79-1.99,1.2-3.19Zm-4.98,4.39c-1.1,.5-1.6,1.79-1.1,2.89s1.79,1.6,2.89,1.1,1.6-1.79,1.1-2.89c-.5-1.2-1.79-1.6-2.89-1.1Zm-1.89,5.48c-1,.5-1.4,1.69-1,2.69,.5,1,1.69,1.4,2.69,1,1-.5,1.4-1.69,1-2.69-.5-1.1-1.69-1.5-2.69-1Zm.6,6.28c-.4-.9-1.5-1.3-2.39-.9s-1.3,1.5-.9,2.39,1.5,1.3,2.39,.9,1.3-1.5,.9-2.39Zm-1.3-12.56c-.5-1-1.69-1.4-2.69-1-1,.5-1.4,1.69-1,2.69,.5,1,1.69,1.4,2.69,1,1-.5,1.5-1.69,1-2.69Zm-4.49,4.49c-.9,.4-1.3,1.5-.9,2.39,.4,.9,1.5,1.3,2.39,.9s1.3-1.5,.9-2.39-1.5-1.3-2.39-.9Zm-1.79,5.48c-.8,.4-1.1,1.3-.8,2.09,.4,.8,1.3,1.1,2.09,.8,.8-.4,1.1-1.3,.8-2.09-.4-.8-1.3-1.2-2.09-.8Zm-1.89,5.48c-.7,.3-1,1.2-.7,1.89,.3,.7,1.2,1,1.89,.7s1-1.2,.7-1.89c-.4-.7-1.2-1-1.89-.7Zm.6-11.96c-.4-.8-1.3-1.2-2.09-.8s-1.1,1.3-.8,2.09c.4,.8,1.3,1.1,2.09,.8s1.2-1.3,.8-2.09Zm-3.99,4.79c-.7,.3-1,1.2-.7,1.89,.3,.7,1.2,1,1.89,.7s1-1.2,.7-1.89c-.3-.8-1.2-1.1-1.89-.7Zm-1.79,5.48c-.6,.3-.9,1-.6,1.6,.3,.6,1,.9,1.6,.6s.9-1,.6-1.6c-.3-.7-1-.9-1.6-.6Zm.3-12.06c-.3-.7-1.2-1-1.89-.7s-1,1.2-.7,1.89c.3,.7,1.2,1,1.89,.7,.7-.4,1-1.2,.7-1.89Zm-3.69,4.79c-.6,.3-.9,1-.6,1.6s1,.9,1.6,.6,.9-1,.6-1.6c-.3-.6-1-.9-1.6-.6Zm.7,18.64c-.2-.4-.7-.6-1.1-.4s-.6,.7-.4,1.1,.7,.6,1.1,.4,.6-.8,.4-1.1Zm1.3,12.56c-.1-.3-.5-.4-.8-.3s-.4,.5-.3,.8,.5,.4,.8,.3c.3-.2,.5-.5,.3-.8Zm.4-16.65c.5-.2,.7-.8,.5-1.3s-.8-.7-1.3-.5-.7,.8-.5,1.3c.2,.5,.8,.7,1.3,.5Zm1.69,11.27c-.2-.4-.7-.6-1.1-.4-.4,.2-.6,.7-.4,1.1,.2,.4,.7,.6,1.1,.4,.4-.2,.6-.7,.4-1.1Zm2.09-5.38c-.2-.5-.8-.7-1.3-.5s-.7,.8-.5,1.3,.8,.7,1.3,.5c.5-.2,.8-.8,.5-1.3Zm1.6-3.79c.6-.3,.9-1,.6-1.6-.3-.6-1-.9-1.6-.6s-.9,1-.6,1.6c.3,.6,1,.9,1.6,.6Zm1.79,10.97c-.2-.5-.8-.7-1.3-.5s-.7,.8-.5,1.3,.8,.7,1.3,.5c.5-.2,.7-.8,.5-1.3Zm2.09-5.38c-.3-.6-1-.9-1.6-.6s-.9,1-.6,1.6c.3,.6,1,.9,1.6,.6,.6-.2,.9-1,.6-1.6Zm2.19-5.38c-.3-.7-1.2-1-1.89-.7-.7,.3-1,1.2-.7,1.89,.3,.7,1.2,1,1.89,.7,.7-.3,1-1.2,.7-1.89Zm1.3-3.19c.8-.4,1.1-1.3,.8-2.09-.4-.8-1.3-1.1-2.09-.8-.8,.4-1.1,1.3-.8,2.09,.3,.8,1.3,1.1,2.09,.8Zm1.99,10.47c-.3-.7-1.2-1-1.89-.7-.7,.3-1,1.2-.7,1.89,.3,.7,1.2,1,1.89,.7,.8-.4,1.1-1.2,.7-1.89Zm2.09-5.38c-.4-.8-1.3-1.2-2.09-.8-.8,.4-1.2,1.3-.8,2.09s1.3,1.1,2.09,.8c.9-.4,1.2-1.3,.8-2.09Zm2.19-5.38c-.4-.9-1.5-1.3-2.39-.9s-1.3,1.5-.9,2.39,1.5,1.3,2.39,.9,1.3-1.5,.9-2.39Zm3.29,7.18c-.4-.9-1.5-1.3-2.39-.9s-1.3,1.5-.9,2.39,1.5,1.3,2.39,.9c1-.4,1.4-1.5,.9-2.39Zm1.2-2.69c1-.5,1.4-1.69,1-2.69-.5-1-1.69-1.4-2.69-1-1,.5-1.4,1.69-1,2.69,.5,1,1.69,1.5,2.69,1Zm4.29,4.59c-.5-1-1.69-1.4-2.69-1-1,.5-1.4,1.69-1,2.69,.5,1,1.69,1.4,2.69,1,1.1-.5,1.5-1.69,1-2.69Zm2.09-5.38c-.5-1.1-1.79-1.6-2.89-1.1s-1.6,1.79-1.1,2.89,1.79,1.6,2.89,1.1c1.2-.5,1.69-1.79,1.1-2.89Zm1-2.19c1.2-.6,1.69-1.99,1.2-3.19s-1.99-1.69-3.19-1.2c-1.2,.6-1.69,1.99-1.2,3.19,.6,1.2,1.99,1.69,3.19,1.2Zm4.59,3.99c-.6-1.2-1.99-1.69-3.19-1.2s-1.69,1.99-1.2,3.19c.6,1.2,1.99,1.69,3.19,1.2s1.69-1.89,1.2-3.19Zm-1.4-6.58c-1.3,.6-1.89,2.19-1.3,3.49s2.19,1.89,3.49,1.3,1.89-2.19,1.3-3.49c-.6-1.4-2.19-1.89-3.49-1.3Zm-3.39-7.28c-1.3,.6-1.89,2.19-1.3,3.49s2.19,1.89,3.49,1.3,1.89-2.19,1.3-3.49-2.19-1.89-3.49-1.3Zm-3.39-7.18c-1.3,.6-1.89,2.19-1.3,3.49s2.19,1.89,3.49,1.3,1.89-2.19,1.3-3.49c-.6-1.4-2.19-1.89-3.49-1.3Zm-3.29-7.28c-1.3,.6-1.89,2.19-1.3,3.49s2.19,1.89,3.49,1.3,1.89-2.19,1.3-3.49c-.7-1.3-2.19-1.89-3.49-1.3Zm-4.69-3.79c.6,1.3,2.19,1.89,3.49,1.3s1.89-2.19,1.3-3.49-2.19-1.89-3.49-1.3c-1.3,.7-1.89,2.19-1.3,3.49Zm-5.08-1.99c.6,1.2,1.99,1.69,3.19,1.2,1.2-.6,1.69-1.99,1.2-3.19-.6-1.2-1.99-1.69-3.19-1.2s-1.79,1.99-1.2,3.19Zm-.7,2.29c-1.1,.5-1.6,1.79-1.1,2.89s1.79,1.6,2.89,1.1,1.6-1.79,1.1-2.89c-.5-1.1-1.79-1.6-2.89-1.1Zm-4.39-4.29c.5,1.1,1.79,1.6,2.89,1.1s1.6-1.79,1.1-2.89-1.79-1.6-2.89-1.1c-1.2,.5-1.6,1.79-1.1,2.89Zm-1.79,5.18c.5,1,1.69,1.4,2.69,1,1-.5,1.4-1.69,1-2.69-.5-1-1.69-1.4-2.69-1-1,.5-1.5,1.69-1,2.69Zm-1.79,5.28c.4,.9,1.5,1.3,2.39,.9,.9-.4,1.3-1.5,.9-2.39s-1.5-1.3-2.39-.9c-.9,.4-1.3,1.5-.9,2.39Zm-3.29-7.28c.4,.9,1.5,1.3,2.39,.9s1.3-1.5,.9-2.39c-.4-.9-1.5-1.3-2.39-.9-1,.4-1.3,1.5-.9,2.39Zm-1.79,5.18c.4,.8,1.3,1.1,2.09,.8,.8-.4,1.1-1.3,.8-2.09-.4-.8-1.3-1.2-2.09-.8-.8,.4-1.1,1.3-.8,2.09Zm-3.39-7.18c.4,.8,1.3,1.1,2.09,.8,.8-.4,1.2-1.3,.8-2.09-.4-.8-1.3-1.1-2.09-.8s-1.1,1.3-.8,2.09Zm-1.69,5.18c.3,.7,1.2,1,1.89,.7s1-1.2,.7-1.89c-.3-.7-1.2-1-1.89-.7-.7,.4-1,1.2-.7,1.89Zm-1.79,5.28c.3,.6,1,.9,1.6,.6s.9-1,.6-1.6c-.3-.6-1-.9-1.6-.6-.6,.2-.8,1-.6,1.6Zm-1.2,3.89c-.5,.2-.7,.8-.5,1.3s.8,.7,1.3,.5,.7-.8,.5-1.3c-.2-.6-.8-.8-1.3-.5Zm-2.09-11.17c.3,.6,1,.9,1.6,.6s.9-1,.6-1.6-1-.9-1.6-.6c-.7,.3-.9,1-.6,1.6Zm-1.79,5.18c.2,.5,.8,.7,1.3,.5s.7-.8,.5-1.3-.8-.7-1.3-.5c-.5,.2-.7,.8-.5,1.3Zm-.1,17.74c.1,.3,.5,.4,.8,.3s.4-.5,.3-.8c-.1-.3-.5-.4-.8-.3-.3,.1-.5,.5-.3,.8Zm-1.3-13.56c-.4,.2-.6,.7-.4,1.1,.2,.4,.7,.6,1.1,.4,.4-.2,.6-.7,.4-1.1s-.7-.6-1.1-.4Zm-1.99-11.36c.2,.5,.8,.7,1.3,.5s.7-.8,.5-1.3-.8-.7-1.3-.5c-.5,.2-.7,.8-.5,1.3Zm-.1,17.65c.1,.3,.5,.4,.8,.3s.4-.5,.3-.8c-.1-.3-.5-.4-.8-.3s-.5,.5-.3,.8Zm-1.6-12.46c.2,.4,.7,.6,1.1,.4,.4-.2,.6-.7,.4-1.1-.2-.4-.7-.6-1.1-.4-.5,.2-.6,.7-.4,1.1Zm-.2,17.65c.1,.2,.3,.3,.5,.2,.2-.1,.3-.3,.2-.5s-.3-.3-.5-.2-.3,.3-.2,.5Zm-1.6-12.36c.1,.3,.5,.4,.8,.3s.4-.5,.3-.8c-.1-.3-.5-.4-.8-.3-.3,.1-.4,.5-.3,.8Zm-.1,17.65c0,.1,.2,.1,.3,.1s.1-.2,.1-.3-.2-.1-.3-.1-.2,.2-.1,.3Zm-1.6-12.46c.1,.2,.3,.3,.5,.2,.2-.1,.3-.3,.2-.5s-.3-.3-.5-.2-.3,.3-.2,.5Zm-1.69-12.46c.1,.3,.5,.4,.8,.3s.4-.5,.3-.8c-.1-.3-.5-.4-.8-.3s-.4,.5-.3,.8Zm-.1,17.65c0,.1,.2,.1,.3,.1s.1-.2,.1-.3-.2-.1-.3-.1c-.1,.1-.1,.2-.1,.3Zm-1.6-12.46c.1,.2,.3,.3,.5,.2,.2-.1,.3-.3,.2-.5s-.3-.3-.5-.2c-.2,.1-.3,.3-.2,.5Zm-1.79,5.28c0,.1,.2,.1,.3,.1s.1-.2,.1-.3-.2-.1-.3-.1-.1,.2-.1,.3Zm-1.6-12.46c.1,.2,.3,.3,.5,.2,.2-.1,.3-.3,.2-.5s-.3-.3-.5-.2-.3,.3-.2,.5Zm-1.79,5.18c0,.1,.2,.1,.3,.1s.1-.2,.1-.3-.2-.1-.3-.1c-.1,.1-.1,.2-.1,.3Zm-3.29-7.18c0,.1,.2,.1,.3,.1s.1-.2,.1-.3-.2-.1-.3-.1-.2,.2-.1,.3Zm205.26-166.98c1.1,.8,2.59,.5,3.29-.6,.8-1.1,.5-2.59-.6-3.29-1.1-.8-2.59-.5-3.29,.6-.8,1.1-.5,2.59,.6,3.29Zm-1.89,2.69c-1.1-.8-2.59-.5-3.29,.6-.8,1.1-.5,2.59,.6,3.29,1.1,.8,2.59,.5,3.29-.6,.8-1.1,.5-2.59-.6-3.29Zm-11.86,16.95c1.1,.8,2.59,.5,3.29-.6,.8-1.1,.5-2.59-.6-3.29-1.1-.8-2.59-.5-3.29,.6-.7,1.1-.5,2.49,.6,3.29Zm-.9-5.68c1,.7,2.39,.5,3.09-.5s.5-2.39-.5-3.09-2.39-.5-3.09,.5c-.7,1-.5,2.39,.5,3.09Zm5.48-.9c1.1,.8,2.59,.5,3.29-.6,.8-1.1,.5-2.59-.6-3.29-1.1-.8-2.59-.5-3.29,.6-.8,1.1-.5,2.59,.6,3.29Zm6.18-15.75c-1-.7-2.39-.5-3.09,.5s-.5,2.39,.5,3.09,2.39,.5,3.09-.5c.8-1.1,.5-2.49-.5-3.09Zm-3.39-2.19c.9,.6,2.19,.4,2.79-.5,.6-.9,.4-2.19-.5-2.79s-2.19-.4-2.79,.5c-.6,.9-.4,2.19,.5,2.79Zm-1.2,8.67c-1-.7-2.39-.5-3.09,.5s-.5,2.39,.5,3.09,2.39,.5,3.09-.5c.8-1,.5-2.39-.5-3.09Zm-1-5.38c-.9-.6-2.09-.4-2.79,.5-.6,.9-.4,2.09,.5,2.79,.9,.6,2.09,.4,2.79-.5,.6-.9,.4-2.19-.5-2.79Zm-3.19-2.49c.8,.6,1.89,.4,2.49-.4s.4-1.89-.4-2.49-1.89-.4-2.49,.4-.4,1.99,.4,2.49Zm-4.19,9.47c-.6,.9-.4,2.09,.5,2.79,.9,.6,2.19,.4,2.79-.5,.6-.9,.4-2.09-.5-2.79-.9-.6-2.19-.4-2.79,.5Zm-3.29,15.05c1,.7,2.39,.5,3.09-.5s.5-2.39-.5-3.09-2.39-.5-3.09,.5c-.7,1.1-.5,2.39,.5,3.09Zm-.8-5.68c.9,.6,2.19,.4,2.79-.5,.6-.9,.4-2.19-.5-2.79-.9-.6-2.19-.4-2.79,.5-.7,.9-.4,2.09,.5,2.79Zm5.78-15.25c-.8-.6-1.89-.4-2.49,.4s-.4,1.89,.4,2.49,1.89,.4,2.49-.4,.4-1.89-.4-2.49Zm-1.1-5.38c-.7-.5-1.69-.3-2.19,.4s-.3,1.69,.4,2.19c.7,.5,1.69,.3,2.19-.4,.5-.6,.3-1.6-.4-2.19Zm-2.69-3.09c.6,.4,1.5,.3,1.99-.3s.3-1.5-.3-1.99-1.5-.3-1.99,.3-.4,1.6,.3,1.99Zm-3.29,15.45c-.6,.8-.4,1.89,.4,2.49s1.89,.4,2.49-.4,.4-1.89-.4-2.49-1.99-.4-2.49,.4Zm1.4-5.78c-.7-.5-1.69-.3-2.19,.4-.5,.7-.3,1.69,.4,2.19,.7,.5,1.69,.3,2.19-.4,.5-.7,.3-1.69-.4-2.19Zm-1.1-5.38h0c-.6-.4-1.5-.3-1.99,.3s-.3,1.5,.3,1.99,1.5,.3,1.99-.3,.3-1.6-.3-1.99Zm-1.1-5.38c-.5-.4-1.3-.2-1.69,.3s-.2,1.3,.3,1.69,1.3,.2,1.69-.3,.2-1.3-.3-1.69Zm-2.39,17.25c-.7-.5-1.69-.3-2.19,.4-.5,.7-.3,1.69,.4,2.19,.7,.5,1.69,.3,2.19-.4,.5-.6,.3-1.6-.4-2.19Zm.2-21.03c.5,.3,1.1,.2,1.4-.2,.3-.5,.2-1.1-.2-1.4-.5-.3-1.1-.2-1.4,.2-.4,.5-.3,1.1,.2,1.4Zm-1.3,15.75c-.6-.4-1.5-.3-1.99,.3s-.3,1.5,.3,1.99,1.5,.3,1.99-.3,.3-1.6-.3-1.99Zm-1.1-5.48c-.5-.4-1.3-.2-1.69,.3-.4,.5-.2,1.3,.3,1.69,.5,.4,1.3,.2,1.69-.3s.2-1.3-.3-1.69Zm-2.49-5.08c-.3,.5-.2,1.1,.2,1.4,.5,.3,1.1,.2,1.4-.2,.3-.5,.2-1.1-.2-1.4-.4-.4-1.1-.3-1.4,.2Zm-.8-5.48c-.2,.4-.2,.9,.2,1.1s.9,.2,1.1-.2,.2-.9-.2-1.1-.9-.1-1.1,.2Zm-.7-4.59c.3,.2,.6,.1,.8-.1,.2-.3,.1-.7-.1-.8-.3-.2-.7-.1-.8,.2-.2,.1-.2,.5,.1,.7Zm-.6,21.73c-.5-.4-1.3-.2-1.69,.3-.4,.5-.2,1.3,.3,1.69,.5,.4,1.3,.2,1.69-.3,.4-.6,.2-1.3-.3-1.69Zm-2.49-5.18c-.3,.5-.2,1.1,.2,1.4,.5,.3,1.1,.2,1.4-.2,.3-.5,.2-1.1-.2-1.4-.4-.3-1.1-.2-1.4,.2Zm-.8-5.38c-.2,.4-.2,.9,.2,1.1s.9,.2,1.1-.2,.2-.9-.2-1.1c-.3-.3-.8-.2-1.1,.2Zm-.8-5.48c-.2,.3-.1,.7,.1,.8,.3,.2,.7,.1,.8-.2s.1-.6-.2-.8c-.2-.1-.5-.1-.7,.2Zm-.7-4.88c.2,.1,.4,.1,.6-.1s.1-.4-.1-.6-.4-.1-.6,.1c-.2,.2-.1,.5,.1,.6Zm-3.09,16.85c-.2,.4-.2,.9,.2,1.1,.4,.2,.9,.2,1.1-.2,.2-.4,.2-.9-.2-1.1-.3-.2-.8-.1-1.1,.2Zm-.8-5.38c-.2,.3-.1,.7,.2,.8,.3,.2,.6,.1,.8-.2,.2-.3,.1-.6-.1-.8-.3-.2-.7-.1-.9,.2Zm-.7-4.88c.2,.1,.4,.1,.6-.1s.1-.4-.1-.6-.4-.1-.6,.1c-.2,.2-.1,.4,.1,.6Zm-.9-5.78c.1,.1,.2,0,.3-.1,.1-.1,0-.2,0-.3-.1-.1-.2,0-.3,0-.1,.2-.1,.4,0,.4Zm-3.69,12.26c.2,.1,.4,.1,.6-.1s.1-.4-.1-.6-.4-.1-.6,.1c-.1,.2-.1,.5,.1,.6Zm-.9-5.68c.1,.1,.2,0,.3,0,.1-.1,0-.2,0-.3-.1-.1-.2,0-.3,0-.1,.1-.1,.2,0,.3Zm-18.04,25.82c-.1-.1-.2,0-.3,0-.1,.1,0,.2,0,.3,.1,.1,.2,0,.3,0,.1-.1,.1-.3,0-.3Zm4.59-6.58c-.1-.1-.2,0-.3,0-.1,.1,0,.2,0,.3,.1,.1,.2,0,.3,0,.1-.1,.1-.2,0-.3Zm1.2,5.98c.1-.2,.1-.4-.1-.6s-.4-.1-.6,.1-.1,.4,.1,.6,.4,.1,.6-.1Zm1,4.79c-.3-.2-.7-.1-.8,.2-.2,.3-.1,.6,.2,.8,.3,.2,.6,.1,.8-.1,.1-.3,0-.7-.2-.9Zm2.39-17.25c-.1-.1-.2,0-.3,0-.1,.1,0,.2,0,.3,.1,.1,.2,0,.3,0,.1-.1,.1-.3,0-.3Zm1.2,5.88c.1-.2,.1-.4-.1-.6s-.4-.1-.6,.1-.1,.4,.1,.6,.4,.1,.6-.1Zm1.1,5.68c.2-.3,.1-.6-.2-.8-.3-.2-.6-.1-.8,.1-.2,.3-.1,.7,.1,.8,.3,.3,.7,.2,.9-.1Zm1,4.59c-.4-.2-.9-.2-1.1,.2-.2,.4-.2,.9,.2,1.1,.4,.2,.9,.2,1.1-.2,.2-.4,.1-.9-.2-1.1Zm1.3-22.73c-.1-.1-.2,0-.3,0-.1,.1,0,.2,0,.3,.1,.1,.2,0,.3,0,.1-.1,0-.2,0-.3Zm1.2,5.98c.1-.2,.1-.4-.1-.6s-.4-.1-.6,.1-.1,.4,.1,.6,.4,.1,.6-.1Zm1.1,5.68c.2-.3,.1-.7-.1-.8-.3-.2-.7-.1-.8,.2-.2,.3-.1,.6,.2,.8,.1,.1,.5,0,.7-.2Zm0,5.78c.4,.2,.9,.2,1.1-.2,.2-.4,.2-.9-.2-1.1-.4-.2-.9-.2-1.1,.2-.2,.4-.1,.9,.2,1.1Zm.9,5.78c.5,.3,1.1,.2,1.4-.2,.3-.5,.2-1.1-.2-1.4-.5-.3-1.1-.2-1.4,.2-.4,.4-.3,1.1,.2,1.4Zm2.19,3.69c-.5-.4-1.3-.2-1.69,.3-.4,.5-.2,1.3,.3,1.69,.5,.4,1.3,.2,1.69-.3s.3-1.3-.3-1.69Zm1.5-21.83c.2-.3,.1-.6-.2-.8-.3-.2-.6-.1-.8,.1-.2,.3-.1,.7,.1,.8,.3,.3,.7,.2,.9-.1Zm0,5.88c.4,.2,.9,.2,1.1-.2,.2-.4,.2-.9-.2-1.1-.4-.2-.9-.2-1.1,.2-.2,.3-.2,.8,.2,1.1Zm.9,5.68c.5,.3,1.1,.2,1.4-.2,.3-.5,.2-1.1-.2-1.4-.5-.3-1.1-.2-1.4,.2-.4,.5-.3,1.1,.2,1.4Zm.9,5.78c.5,.4,1.3,.2,1.69-.3,.4-.5,.2-1.3-.3-1.69-.5-.4-1.3-.2-1.69,.3s-.3,1.3,.3,1.69Zm2.39,3.39c-.6-.4-1.5-.3-1.99,.3s-.3,1.5,.3,1.99,1.5,.3,1.99-.3,.4-1.6-.3-1.99Zm2.69-15.95c.3-.5,.2-1.1-.2-1.4-.5-.3-1.1-.2-1.4,.2-.3,.5-.2,1.1,.2,1.4,.4,.4,1.1,.3,1.4-.2Zm-.6,5.98c.5,.4,1.3,.2,1.69-.3,.4-.5,.2-1.3-.3-1.69-.5-.4-1.3-.2-1.69,.3-.3,.6-.2,1.3,.3,1.69Zm.9,5.68c.6,.4,1.5,.3,1.99-.3s.3-1.5-.3-1.99-1.5-.3-1.99,.3-.3,1.6,.3,1.99Zm.9,5.78c.7,.5,1.69,.3,2.19-.4,.5-.7,.3-1.69-.4-2.19-.7-.5-1.69-.3-2.19,.4-.5,.7-.3,1.69,.4,2.19Zm2.89,2.79c-.8-.6-1.89-.4-2.49,.4s-.4,1.89,.4,2.49,1.89,.4,2.49-.4,.4-1.99-.4-2.49Zm.8-15.05c.6,.4,1.5,.3,1.99-.3s.3-1.5-.3-1.99-1.5-.3-1.99,.3-.3,1.5,.3,1.99Zm.9,5.68c.7,.5,1.69,.3,2.19-.4,.5-.7,.3-1.69-.4-2.19-.7-.5-1.69-.3-2.19,.4-.5,.7-.4,1.69,.4,2.19Zm.8,5.78c.8,.6,1.89,.4,2.49-.4s.4-1.89-.4-2.49-1.89-.4-2.49,.4-.4,1.89,.4,2.49Zm3.19,2.39c-.9-.6-2.19-.4-2.79,.5-.6,.9-.4,2.19,.5,2.79,.9,.6,2.19,.4,2.79-.5,.6-.9,.4-2.09-.5-2.79Zm3.89-9.37c.6-.8,.4-1.89-.4-2.49s-1.89-.4-2.49,.4-.4,1.89,.4,2.49,1.99,.4,2.49-.4Zm-1.6,6.08c.9,.6,2.19,.4,2.79-.5,.6-.9,.4-2.09-.5-2.79-.9-.6-2.19-.4-2.79,.5-.6,1-.4,2.19,.5,2.79Zm.9,5.78c1,.7,2.39,.5,3.09-.5s.5-2.39-.5-3.09-2.39-.5-3.09,.5c-.8,1-.5,2.39,.5,3.09Zm3.59,1.79c-1.1-.8-2.59-.5-3.29,.6-.8,1.1-.5,2.59,.6,3.29,1.1,.8,2.59,.5,3.29-.6,.7-1.1,.5-2.59-.6-3.29Zm1.79-2.59c1.1,.8,2.59,.5,3.29-.6,.8-1.1,.5-2.59-.6-3.29-1.1-.8-2.59-.5-3.29,.6-.7,1-.5,2.49,.6,3.29Zm3.89,1.4c-1.2-.8-2.79-.5-3.59,.6s-.5,2.79,.6,3.59c1.2,.8,2.79,.5,3.59-.6,.8-1.1,.5-2.69-.6-3.59Zm4.59-6.48c-1.2-.8-2.79-.5-3.59,.6-.8,1.2-.5,2.79,.6,3.59,1.2,.8,2.79,.5,3.59-.6s.5-2.79-.6-3.59Zm4.49-6.58c-1.2-.8-2.79-.5-3.59,.6-.8,1.2-.5,2.79,.6,3.59,1.2,.8,2.79,.5,3.59-.6s.6-2.79-.6-3.59Zm4.59-6.48c-1.2-.8-2.79-.5-3.59,.6-.8,1.2-.5,2.79,.6,3.59,1.2,.8,2.79,.5,3.59-.6s.6-2.79-.6-3.59Zm4.59-6.58c-1.2-.8-2.79-.5-3.59,.6-.8,1.2-.5,2.79,.6,3.59s2.79,.5,3.59-.6,.6-2.79-.6-3.59Zm-3.49,16.85c.1-.2,.1-.3,.2-.5-.2,.2-.4,.3-.7,.4,.2,.1,.3,.1,.5,.1Zm-129.1,180.04c.3-.2,.7-.2,1-.3-.3-.3-.5-.6-.7-1s-.3-.8-.3-1.2c-.2,.2-.5,.5-.9,.6-.5,.3-1.1,.3-1.69,.2,.4,.3,.8,.7,1,1.2s.3,1,.2,1.5c.4-.3,.8-.7,1.4-1Zm-3.39-7.28c.3-.2,.7-.2,1-.3-.3-.3-.5-.6-.7-1v-.1c-.2-.3-.4-.5-.6-.8-.2,.1-.3,.2-.5,.3-.6,.3-1.1,.3-1.69,.2,.4,.3,.8,.7,1,1.2s.3,1,.2,1.5c.3-.3,.7-.7,1.3-1Zm-3.79-6.98c-.4-.6-.8-1.2-1.3-1.79-.3,0-.6,.1-.9,0,.4,.3,.8,.7,1,1.2s.3,1,.2,1.5c.4-.3,.6-.6,1-.9Zm12.16,16.15c-.4-.5-.7-.9-1.1-1.4-.2,0-.3,.1-.5,.1,.2,.2,.5,.5,.6,.9,.1,.3,.2,.5,.2,.8,.2-.1,.4-.1,.6-.2,0-.1,.1-.2,.2-.2Z" style="fill:#fff;"/><path d="M335.25,426.26c-.1,.5,0,1,.2,1.5s.6,.9,1,1.2c-.6-.1-1.1,0-1.69,.3l-.9,.6c0-.4-.1-.8-.3-1.2-.2-.4-.4-.7-.7-1,.3,0,.7-.1,1-.3,.7-.2,1.1-.6,1.4-1.1Zm5.48,15.55c-.1,.1-.3,.1-.4,.1,.4,.6,.8,1.1,1.2,1.69,.5-.3,1.1-.3,1.69-.2-.4-.3-.8-.7-1-1.2s-.3-1-.2-1.5c-.3,.5-.8,.9-1.3,1.1Zm-89.42-192.2c.1-.2,.1-.3,.2-.5-.3,.1-.7,.1-1,.1s-.5-.1-.8-.2c0,.2-.1,.4-.1,.6v.3c.6-.1,1.1-.2,1.69-.3Zm244.84,36.69h0c-2.59,9.27-5.58,18.34-8.97,27.32-6.08,15.95-13.66,31.3-22.33,45.96-16.05,26.92-36.19,51.24-59.61,71.98-6.68,5.88-13.56,11.46-20.84,16.75-.3-.2-.8-.3-1.1-.1-.5,.2-.8,.8-.6,1.4-1.5,1.1-2.99,2.19-4.49,3.19,0-.3,0-.6-.1-.8-.4-.8-1.3-1.1-2.09-.8s-1.1,1.3-.8,2.09c.2,.4,.6,.7,1,.9-2.59,1.79-5.18,3.49-7.78,5.18-.6-.3-1.3-.3-1.89,0-.8,.4-1.3,1.2-1.3,1.99-1,.6-1.99,1.2-2.99,1.79-.7-1-2.09-1.4-3.19-.8-.5,.3-.9,.7-1.2,1.1l-.3-.3c.1-.5,0-1.1-.2-1.6-.5-1.1-1.6-1.69-2.69-1.6-.6-.7-1.2-1.4-1.79-2.09,1.2-.7,1.69-2.29,1.1-3.59-.7-1.4-2.29-1.99-3.69-1.4-.4,.2-.7,.4-.9,.7-.1-.1-.1-.2-.2-.2,0-.4-.1-.8-.3-1.1-.3-.5-.7-1-1.1-1.3,.5,.1,1,0,1.5-.2,1.4-.7,1.99-2.29,1.4-3.69s-2.29-1.99-3.69-1.4c-.5,.2-.9,.6-1.2,1,.1-.6,0-1.1-.2-1.69-.3-.5-.7-1-1.1-1.3,.5,.1,1,0,1.5-.2,1.4-.7,1.99-2.29,1.4-3.69-.7-1.4-2.29-1.99-3.69-1.4-.5,.2-.9,.6-1.2,1,.1-.6,0-1.1-.3-1.69-.3-.5-.7-1-1.1-1.3,.5,.1,1,0,1.5-.2,1.4-.7,1.99-2.29,1.4-3.69s-2.29-1.99-3.69-1.4c-.5,.2-.9,.6-1.2,1,.1-.6,0-1.1-.2-1.69-.3-.5-.6-1-1.1-1.3,.5,.1,1,0,1.5-.2,1.4-.7,1.99-2.29,1.4-3.69s-2.29-1.99-3.69-1.4c-.5,.2-.9,.6-1.2,1,.1-.6,0-1.1-.2-1.69-.1-.2-.2-.3-.3-.4,.7-.4,1.5-.9,2.19-1.3,0,.2,.1,.5,.2,.7,.6,1.3,2.19,1.89,3.49,1.3s1.89-2.19,1.3-3.49c-.2-.4-.5-.8-.9-1,1.3-.8,2.69-1.69,3.99-2.59-.5,.6-.6,1.5-.2,2.19,.5,1.1,1.79,1.6,2.89,1.1s1.6-1.79,1.1-2.89c-.4-1-1.5-1.4-2.49-1.2,.6-.4,1.3-.8,1.89-1.3,.4,.1,.9,.1,1.4-.1,.7-.3,1.1-.9,1.1-1.6,1.3-.9,2.59-1.79,3.89-2.79,.4,.7,1.3,1,1.99,.6,.8-.4,1.1-1.3,.8-2.09-.1-.2-.2-.3-.3-.4,27.91-20.84,51.34-47.65,68.19-78.26,7.88-14.36,14.36-29.41,19.14-45.06,1.2-3.79,2.19-7.68,3.19-11.56,8.77-34.99,8.07-73.67-8.77-105.77-6.58-12.16-15.95-23.23-29.11-28.11-16.25-6.08-34.19,.1-48.15,9.27-21.23,14.16-37.18,34.99-48.05,58.22-.3,.1-.5,.4-.6,.7,0,.1,0,.2,.1,.4-1.5,3.29-2.89,6.58-4.19,9.87-.8-.1-1.4,.5-1.5,1.3,0,.5,.2,.9,.5,1.2-1.1,2.89-2.09,5.88-2.99,8.87-.3-.2-.6-.3-.9-.3-1.1-.1-2.09,.7-2.19,1.79s.7,2.09,1.79,2.19h.2c-.1,.4-.2,.8-.4,1.2-.2,.8-.4,1.6-.6,2.39-1.1,.1-1.99,1-2.09,2.19-.1,.8,.3,1.6,.9,2.09-.1,.4-.2,.9-.3,1.3-.2-1.2-1.1-2.09-2.29-2.19-1.4-.1-2.69,.9-2.79,2.39-.1,1.4,.9,2.69,2.39,2.79,.9,.1,1.79-.3,2.29-1,0,.2-.1,.4-.1,.6-.5,.4-.9,1-1,1.69h-2.49c.1-1.5-1-2.79-2.49-2.89-1.5-.1-2.89,1-2.99,2.49v.4h-2.49c.1-.2,.1-.4,.2-.7,.1-1.5-1-2.89-2.49-2.99s-2.89,1-2.99,2.49c0,.5,0,.9,.2,1.3h-.2c-.4-.2-.8-.4-1.3-.4-.6-.1-1.2,.1-1.69,.3,.3-.4,.5-.9,.6-1.5,.1-1.5-1-2.89-2.49-2.99s-2.89,1-2.99,2.49c0,.5,.1,1.1,.3,1.5-.4-.4-1-.6-1.6-.6-.6-.1-1.2,.1-1.69,.3,.3-.4,.5-.9,.6-1.5,.1-1.5-1-2.89-2.49-2.99s-2.89,1-2.99,2.49c0,.5,.1,1.1,.3,1.5-.4-.3-1-.6-1.6-.6-.6-.1-1.2,.1-1.69,.3,.3-.4,.5-.9,.6-1.5,.1-1.5-1-2.89-2.49-2.99s-2.89,1-2.99,2.49c0,.5,.1,1.1,.3,1.5-.4-.3-1-.6-1.6-.6-.6-.1-1.2,.1-1.69,.3,.3-.4,.5-.9,.6-1.4,.1-1.5-1-2.89-2.49-2.99s-2.89,1-2.99,2.49c0,.5,.1,1.1,.3,1.5-.4-.4-1-.6-1.6-.6h-.3c.1-.8,.3-1.6,.5-2.39h.1c1.4,.1,2.69-.9,2.79-2.39,.1-1.3-.7-2.39-1.89-2.69,.2-1.1,.5-2.29,.7-3.39,.8-.3,1.4-1,1.5-1.89,.1-.7-.2-1.3-.7-1.79,.7-2.99,1.5-5.98,2.29-8.97,.3,.3,.6,.5,1.1,.6,.9,.1,1.69-.6,1.69-1.5,.1-.9-.6-1.69-1.5-1.69-.2,0-.5,0-.7,.1,.5-1.79,1-3.49,1.5-5.28,.5-.1,.8-.5,.9-1,0-.3-.1-.7-.3-.9,1.1-3.59,2.29-7.18,3.59-10.67,0,.3,.2,.5,.5,.5s.6-.2,.7-.5c0-.3-.2-.6-.5-.7-.2,0-.3,0-.4,.1,6.88-19.34,16.05-37.98,27.61-55.23,25.72-38.68,69.58-71.28,118.53-65.5,29.81,3.19,56.52,21.63,72.57,46.56,29.61,48.05,28.41,109.66,14.06,162.2Zm-193.1-91.52c0,.1,.1,.2,.2,.2s.2-.1,.2-.2-.1-.2-.2-.2-.2,.1-.2,.2Zm-4.49,3.59c0,.2,.2,.4,.4,.4s.4-.2,.4-.4-.1-.4-.4-.4c-.2,.1-.4,.2-.4,.4Zm-1.1,7.98c0,.4,.3,.8,.7,.9,.4,0,.8-.3,.9-.7,0-.4-.3-.8-.7-.9-.5-.1-.9,.2-.9,.7Zm-1.1,7.88c-.1,.7,.4,1.2,1.1,1.3s1.2-.4,1.3-1.1-.4-1.2-1.1-1.3c-.7,0-1.2,.4-1.3,1.1Zm-1.1,7.88c-.1,.9,.6,1.69,1.5,1.69,.9,.1,1.69-.6,1.69-1.5,.1-.9-.6-1.69-1.5-1.69-.8,0-1.6,.7-1.69,1.5Zm-24.72,1.89c.1-1-.6-1.89-1.6-1.99s-1.89,.6-1.99,1.6,.6,1.89,1.6,1.99c1,.1,1.89-.6,1.99-1.6Zm-2.29,5.58c-1.2-.1-2.29,.8-2.39,1.99-.1,1.2,.8,2.29,1.99,2.39,1.2,.1,2.29-.8,2.39-1.99,.1-1.2-.8-2.29-1.99-2.39Zm2.09-1.6c-.1,1.1,.7,2.09,1.79,2.19,1.1,.1,2.09-.7,2.19-1.79s-.7-2.09-1.79-2.19c-1.1-.1-2.09,.7-2.19,1.79Zm3.39,4.29c-.1,1.2,.8,2.29,1.99,2.39,1.2,.1,2.29-.8,2.39-1.99s-.8-2.29-1.99-2.39c-1.2-.1-2.29,.8-2.39,1.99Zm4.69-7.58c.1-1-.6-1.89-1.6-1.99s-1.89,.6-1.99,1.6,.6,1.89,1.6,1.99c1.1,.1,1.89-.6,1.99-1.6Zm-.1,3.99c-.1,1.1,.7,2.09,1.79,2.19,1.1,.1,2.09-.7,2.19-1.79s-.7-2.09-1.79-2.19c-1.2-.1-2.09,.7-2.19,1.79Zm3.39,4.29c-.1,1.2,.8,2.29,1.99,2.39,1.2,.1,2.29-.8,2.39-1.99s-.8-2.29-1.99-2.39c-1.2-.1-2.29,.8-2.39,1.99Zm4.69-7.58c.1-1-.6-1.89-1.6-1.99s-1.89,.6-1.99,1.6,.6,1.89,1.6,1.99,1.89-.6,1.99-1.6Zm-.2,3.99c-.1,1.1,.7,2.09,1.79,2.19,1.1,.1,2.09-.7,2.19-1.79s-.7-2.09-1.79-2.19c-1.1-.1-2.09,.7-2.19,1.79Zm3.49,4.29c-.1,1.2,.8,2.29,1.99,2.39,1.2,.1,2.29-.8,2.39-1.99s-.8-2.29-1.99-2.39-2.29,.8-2.39,1.99Zm4.69-7.58c.1-1-.6-1.89-1.6-1.99s-1.89,.6-1.99,1.6,.6,1.89,1.6,1.99c1,.1,1.89-.6,1.99-1.6Zm-.2,3.99c-.1,1.1,.7,2.09,1.79,2.19,1.1,.1,2.09-.7,2.19-1.79s-.7-2.09-1.79-2.19c-1.1-.1-2.09,.7-2.19,1.79Zm1-35.99c0,.1,.1,.2,.2,.2s.2-.1,.2-.2-.1-.2-.2-.2-.2,.1-.2,.2Zm-1.1,7.88c0,.3,.2,.6,.5,.7,.3,0,.6-.2,.7-.5,0-.3-.2-.6-.5-.7-.4,0-.7,.2-.7,.5Zm-1.1,7.98c0,.5,.4,1,.9,1.1,.5,0,1-.4,1.1-.9,0-.5-.4-1-.9-1.1-.6-.1-1.1,.3-1.1,.9Zm-1.1,7.88c-.1,.8,.5,1.5,1.3,1.5,.8,.1,1.5-.5,1.5-1.3,.1-.8-.5-1.5-1.3-1.5s-1.5,.6-1.5,1.3Zm-1.3-20.14c0,.2,.1,.4,.4,.4,.2,0,.4-.2,.4-.4s-.1-.4-.4-.4c-.1,.1-.3,.2-.4,.4Zm-1.1,7.98c0,.4,.3,.8,.7,.9s.8-.3,.9-.7-.3-.8-.7-.9-.8,.2-.9,.7Zm-1.1,7.88c-.1,.7,.4,1.2,1.1,1.3s1.2-.4,1.3-1.1-.4-1.2-1.1-1.3-1.2,.4-1.3,1.1Zm-1.1,7.88c-.1,.9,.6,1.69,1.5,1.69,.9,.1,1.69-.6,1.69-1.5,.1-.9-.6-1.69-1.5-1.69-.8,0-1.6,.7-1.69,1.5Zm-.1-28.01c0,.1,.1,.2,.2,.2s.2-.1,.2-.2-.1-.2-.2-.2-.2,.1-.2,.2Zm-1.1,7.98c0,.3,.2,.6,.5,.7,.3,0,.6-.2,.7-.5,0-.3-.2-.6-.5-.7-.4-.1-.7,.1-.7,.5Zm-1.1,7.88c0,.5,.4,1,.9,1.1,.5,0,1-.4,1.1-.9,0-.5-.4-1-.9-1.1-.6-.1-1,.3-1.1,.9Zm-1.1,7.88c-.1,.8,.5,1.5,1.3,1.5,.8,.1,1.5-.5,1.5-1.3,.1-.8-.5-1.5-1.3-1.5-.7,0-1.4,.6-1.5,1.3Zm-1.2-20.14c0,.2,.2,.4,.4,.4s.4-.1,.4-.4c0-.2-.2-.4-.4-.4-.2,.1-.4,.2-.4,.4Zm-1.1,7.98c0,.4,.3,.8,.7,.9s.8-.3,.9-.7-.3-.8-.7-.9-.9,.2-.9,.7Zm-1.1,7.88c-.1,.7,.4,1.2,1.1,1.3s1.2-.4,1.3-1.1c.1-.7-.4-1.2-1.1-1.3-.7,0-1.3,.5-1.3,1.1Zm-1.1,7.88c-.1,.9,.6,1.69,1.5,1.69,.9,.1,1.69-.6,1.69-1.5,.1-.9-.6-1.69-1.5-1.69s-1.6,.7-1.69,1.5Zm-.2-28.01c0,.1,.1,.2,.2,.2s.2-.1,.2-.2-.1-.2-.2-.2c-.1,0-.2,.1-.2,.2Zm-1.1,7.98c0,.3,.2,.6,.5,.7,.3,0,.6-.2,.7-.5,0-.3-.2-.6-.5-.7-.4-.1-.6,.1-.7,.5Zm-1.1,7.88c0,.5,.4,1,.9,1.1,.5,0,1-.4,1.1-.9s-.4-1-.9-1.1-1,.3-1.1,.9Zm-1.1,7.88c-.1,.8,.5,1.5,1.3,1.5,.8,.1,1.4-.5,1.5-1.3s-.5-1.5-1.3-1.5c-.7,0-1.4,.6-1.5,1.3Zm-1.2-20.14c0,.2,.2,.4,.4,.4s.4-.2,.4-.4-.1-.4-.4-.4c-.2,.1-.4,.2-.4,.4Zm-1.1,7.98c0,.4,.3,.8,.7,.9s.8-.3,.9-.7c0-.4-.3-.8-.7-.9-.5-.1-.9,.2-.9,.7Zm-1.1,7.88c-.1,.7,.4,1.2,1.1,1.3s1.2-.4,1.3-1.1-.4-1.2-1.1-1.3-1.2,.5-1.3,1.1Zm-1.1,7.88c-.1,.9,.6,1.69,1.5,1.69,.9,.1,1.69-.6,1.69-1.5,.1-.9-.6-1.69-1.5-1.69s-1.6,.7-1.69,1.5Zm-.2-28.01c0,.1,.1,.2,.2,.2s.2-.1,.2-.2-.1-.2-.2-.2l-.2,.2Zm-1,7.98c0,.3,.2,.6,.5,.7,.3,0,.6-.2,.7-.5,0-.3-.2-.6-.5-.7-.4-.1-.7,.1-.7,.5Zm-1.1,7.88c0,.5,.4,1,.9,1.1,.5,0,1-.4,1.1-.9,0-.5-.4-1-.9-1.1-.6-.1-1.1,.3-1.1,.9Zm-1.1,7.88c-.1,.8,.5,1.5,1.3,1.5,.8,.1,1.5-.5,1.5-1.3,.1-.8-.5-1.5-1.3-1.5s-1.5,.6-1.5,1.3Zm-1.3-20.14c0,.2,.2,.4,.4,.4s.4-.1,.4-.4c0-.2-.2-.4-.4-.4-.2,.1-.4,.2-.4,.4Zm-1.1,7.98c0,.4,.3,.8,.7,.9s.8-.3,.9-.7-.3-.8-.7-.9-.8,.2-.9,.7Zm-1.1,7.88c-.1,.7,.4,1.2,1.1,1.3s1.2-.4,1.3-1.1-.4-1.2-1.1-1.3c-.6,0-1.2,.5-1.3,1.1Zm-1.1,7.88c-.1,.9,.6,1.69,1.5,1.69s1.69-.6,1.69-1.5-.6-1.69-1.5-1.69c-.8,0-1.6,.7-1.69,1.5Zm-1.1,7.98c-.1,1.1,.7,2.09,1.79,2.19,1.1,.1,2.09-.7,2.19-1.79,.1-1.1-.7-2.09-1.79-2.19-1.1-.1-2.09,.7-2.19,1.79Zm-1.2-20.14c0,.5,.4,1,.9,1.1,.5,0,1-.4,1.1-.9,0-.5-.4-1-.9-1.1s-1.1,.3-1.1,.9Zm-1.1,7.88c-.1,.8,.5,1.5,1.3,1.5,.8,.1,1.5-.5,1.5-1.3,.1-.8-.5-1.5-1.3-1.5s-1.4,.6-1.5,1.3Zm-1.1,7.98c-.1,1,.6,1.89,1.6,1.99s1.89-.6,1.99-1.6-.6-1.89-1.6-1.99c-1-.1-1.89,.6-1.99,1.6Zm-1.1,7.88c-.1,1.2,.8,2.29,1.99,2.39,1.2,.1,2.29-.8,2.39-1.99,.1-1.2-.8-2.29-1.99-2.39s-2.29,.8-2.39,1.99Zm-3.39-4.29c-.1,1.1,.7,2.09,1.79,2.19,1.1,.1,2.09-.7,2.19-1.79,.1-1.1-.7-2.09-1.79-2.19-1.2-.1-2.09,.7-2.19,1.79Zm1,10.47c1.3,.1,2.49-.9,2.59-2.19s-.9-2.49-2.19-2.59-2.49,.9-2.59,2.19c-.1,1.3,.9,2.49,2.19,2.59Zm6.48,2.19c.1-1.4-.9-2.69-2.39-2.79-1.4-.1-2.69,.9-2.79,2.39-.1,1.4,.9,2.69,2.39,2.79,1.4,.1,2.69-1,2.79-2.39Zm1.5-1.5c1.3,.1,2.49-.9,2.59-2.19s-.9-2.49-2.19-2.59-2.49,.9-2.59,2.19c-.1,1.3,.9,2.49,2.19,2.59Zm6.48,2.19c.1-1.4-.9-2.69-2.39-2.79-1.4-.1-2.69,.9-2.79,2.39-.1,1.4,.9,2.69,2.39,2.79,1.4,.1,2.59-1,2.79-2.39Zm1.5-1.5c1.3,.1,2.49-.9,2.59-2.19s-.9-2.49-2.19-2.59-2.49,.9-2.59,2.19c-.1,1.3,.9,2.49,2.19,2.59Zm6.38,2.19c.1-1.4-.9-2.69-2.39-2.79-1.4-.1-2.69,.9-2.79,2.39-.1,1.4,.9,2.69,2.39,2.79s2.69-1,2.79-2.39Zm1.6-1.5c1.3,.1,2.49-.9,2.59-2.19s-.9-2.49-2.19-2.59c-1.3-.1-2.49,.9-2.59,2.19-.1,1.3,.8,2.49,2.19,2.59Zm6.38,2.19c.1-1.4-.9-2.69-2.39-2.79-1.4-.1-2.69,.9-2.79,2.39-.1,1.4,.9,2.69,2.39,2.79,1.4,.1,2.69-1,2.79-2.39Zm1.5-1.5c1.3,.1,2.49-.9,2.59-2.19s-.9-2.49-2.19-2.59c-1.3-.1-2.49,.9-2.59,2.19-.1,1.3,.9,2.49,2.19,2.59Zm6.48,2.19c.1-1.4-.9-2.69-2.39-2.79-1.4-.1-2.69,.9-2.79,2.39s.9,2.69,2.39,2.79c1.4,.1,2.59-1,2.79-2.39Zm4.09-3.69c.1-1.3-.9-2.49-2.19-2.59-1.3-.1-2.49,.9-2.59,2.19s.9,2.49,2.19,2.59,2.49-.9,2.59-2.19Zm4.09-3.59c.1-1.2-.8-2.29-1.99-2.39-1.2-.1-2.29,.8-2.39,1.99s.8,2.29,1.99,2.39c1.3,.1,2.29-.8,2.39-1.99Zm.3-7.98c.1-1-.6-1.89-1.6-1.99s-1.89,.6-1.99,1.6,.6,1.89,1.6,1.99c1.1,.1,1.89-.6,1.99-1.6Zm.3-7.98c.1-.8-.5-1.5-1.3-1.5-.8-.1-1.5,.5-1.5,1.3-.1,.8,.5,1.5,1.3,1.5s1.5-.6,1.5-1.3Zm.3-7.98c0-.5-.4-1-.9-1.1-.5,0-1,.4-1.1,.9,0,.5,.4,1,.9,1.1,.6,0,1.1-.4,1.1-.9Zm.3-7.98c0-.3-.2-.6-.5-.7-.3,0-.6,.2-.7,.5,0,.3,.2,.6,.5,.7,.4,0,.7-.2,.7-.5Zm3.29,20.24c.1-.9-.6-1.69-1.5-1.69-.9-.1-1.69,.6-1.69,1.5-.1,.9,.6,1.69,1.5,1.69,.8,.1,1.6-.6,1.69-1.5Zm.3-7.98c.1-.7-.4-1.2-1.1-1.3s-1.2,.4-1.3,1.1,.4,1.2,1.1,1.3c.6,.1,1.2-.4,1.3-1.1Zm.3-7.98c0-.4-.3-.8-.7-.9-.4,0-.8,.3-.9,.7,0,.4,.3,.8,.7,.9,.4,.1,.8-.3,.9-.7Zm.3-7.98c0-.2-.1-.4-.4-.4-.2,0-.4,.1-.4,.4,0,.2,.1,.4,.4,.4,.1,0,.3-.2,.4-.4Zm3.49,12.26c0-.5-.4-1-.9-1.1-.5,0-1,.4-1.1,.9,0,.5,.4,1,.9,1.1,.6,.1,1-.3,1.1-.9Zm.3-7.88c0-.3-.2-.6-.5-.7-.3,0-.6,.2-.7,.5,0,.3,.2,.6,.5,.7,.4,0,.7-.2,.7-.5Zm.3-7.98c0-.1-.1-.2-.2-.2s-.2,.1-.2,.2,.1,.2,.2,.2c.1-.1,.2-.1,.2-.2Zm3.79,4.29c0-.2-.2-.4-.4-.4s-.4,.1-.4,.4c0,.2,.2,.4,.4,.4s.4-.2,.4-.4Zm4.19-3.59c0-.1-.1-.2-.2-.2s-.2,.1-.2,.2,.1,.2,.2,.2c.1-.1,.2-.1,.2-.2Zm67.09,212.14c0,.1,.2,.1,.3,.1s.1-.2,.1-.3-.2-.1-.3-.1c-.1,.1-.1,.2-.1,.3Zm-2.09,5.38c.1,.2,.3,.3,.5,.2,.2-.1,.3-.3,.2-.5-.1-.2-.3-.3-.5-.2s-.3,.3-.2,.5Zm-1.3-12.66c0,.1,.2,.1,.3,.1s.1-.2,.1-.3-.2-.1-.3-.1c-.1,.1-.1,.2-.1,.3Zm-2.09,5.38c.1,.2,.3,.3,.5,.2s.3-.3,.2-.5c-.1-.2-.3-.3-.5-.2-.2,.1-.3,.3-.2,.5Zm-.8,18.04c.2,.4,.7,.6,1.1,.4s.6-.7,.4-1.1-.7-.6-1.1-.4c-.5,.2-.6,.7-.4,1.1Zm-.5-30.6c0,.1,.2,.1,.3,.1s.1-.2,.1-.3-.2-.1-.3-.1c-.1,.1-.1,.2-.1,.3Zm-.8,17.94c.1,.3,.5,.4,.8,.3s.4-.5,.3-.8-.5-.4-.8-.3-.4,.5-.3,.8Zm-.4,16.75c-.5,.2-.7,.8-.5,1.3s.8,.7,1.3,.5,.7-.8,.5-1.3c-.2-.6-.8-.8-1.3-.5Zm-.9-29.31c.1,.2,.3,.3,.5,.2s.3-.3,.2-.5-.3-.3-.5-.2c-.2,0-.3,.3-.2,.5Zm-.8,17.94c.2,.4,.7,.6,1.1,.4s.6-.7,.4-1.1-.7-.6-1.1-.4c-.4,.3-.6,.7-.4,1.1Zm-1.3-12.56c.1,.3,.5,.4,.8,.3s.4-.5,.3-.8-.5-.4-.8-.3-.4,.5-.3,.8Zm-.4,16.65c-.5,.2-.7,.8-.5,1.3s.8,.7,1.3,.5,.7-.8,.5-1.3c-.2-.5-.8-.7-1.3-.5Zm-14.75,6.08c-.9,.4-1.3,1.5-.9,2.39s1.5,1.3,2.39,.9,1.3-1.5,.9-2.39c-.4-1-1.5-1.4-2.39-.9Zm1.3-3.09c.4,.8,1.3,1.1,2.09,.8,.8-.4,1.1-1.3,.8-2.09s-1.3-1.1-2.09-.8c-.9,.4-1.2,1.3-.8,2.09Zm-3.29,8.17c-1,.5-1.4,1.69-1,2.69,.5,1,1.69,1.4,2.69,1,1-.5,1.4-1.69,1-2.69-.5-1-1.69-1.5-2.69-1Zm.9,6.18c-.5-1.1-1.79-1.6-2.89-1.1s-1.6,1.79-1.1,2.89,1.79,1.6,2.89,1.1,1.6-1.79,1.1-2.89Zm-1.6-12.46c-.5-1-1.69-1.4-2.69-1-1,.5-1.4,1.69-1,2.69,.5,1,1.69,1.4,2.69,1,1-.5,1.4-1.69,1-2.69Zm-4.69,4.19c-1.1,.5-1.6,1.79-1.1,2.89s1.79,1.6,2.89,1.1,1.6-1.79,1.1-2.89c-.5-1.2-1.79-1.6-2.89-1.1Zm-1.99,5.08c-1.2,.6-1.69,1.99-1.2,3.19s1.99,1.69,3.19,1.2,1.69-1.99,1.2-3.19-1.99-1.79-3.19-1.2Zm2.19,10.37c.6,1.2,1.99,1.69,3.19,1.2s1.69-1.99,1.2-3.19c-.6-1.2-1.99-1.69-3.19-1.2s-1.79,1.99-1.2,3.19Zm3.39,7.28c.6,1.2,1.99,1.69,3.19,1.2s1.69-1.99,1.2-3.19c-.6-1.2-1.99-1.69-3.19-1.2s-1.79,1.99-1.2,3.19Zm4.98-4.29c1.1-.5,1.6-1.79,1.1-2.89s-1.79-1.6-2.89-1.1-1.6,1.79-1.1,2.89,1.79,1.6,2.89,1.1Zm1.89-5.48c1-.5,1.4-1.69,1-2.69-.5-1-1.69-1.4-2.69-1-1,.5-1.4,1.69-1,2.69,.5,1,1.69,1.4,2.69,1Zm1.79-5.48c.9-.4,1.3-1.5,.9-2.39s-1.5-1.3-2.39-.9-1.3,1.5-.9,2.39,1.5,1.3,2.39,.9Zm2.49-13.56c-.7,.3-1,1.2-.7,1.89,.3,.7,1.2,1,1.89,.7,.7-.3,1-1.2,.7-1.89s-1.2-1-1.89-.7Zm1.5-3.49c.3,.6,1,.9,1.6,.6s.9-1,.6-1.6-1-.9-1.6-.6c-.6,.3-.9,1-.6,1.6Zm-3.49,8.67c-.8,.4-1.1,1.3-.8,2.09s1.3,1.1,2.09,.8c.8-.4,1.1-1.3,.8-2.09s-1.3-1.2-2.09-.8Zm.5,14.65c.4,.9,1.5,1.3,2.39,.9s1.3-1.5,.9-2.39-1.5-1.3-2.39-.9c-.9,.5-1.3,1.5-.9,2.39Zm4.19-4.59c.8-.4,1.1-1.3,.8-2.09-.4-.8-1.3-1.1-2.09-.8-.8,.4-1.1,1.3-.8,2.09,.4,.8,1.3,1.2,2.09,.8Zm1.89-5.48c.7-.3,1-1.2,.7-1.89-.3-.7-1.2-1-1.89-.7-.7,.3-1,1.2-.7,1.89,.4,.7,1.2,1,1.89,.7Zm1.79-5.48c.6-.3,.9-1,.6-1.6s-1-.9-1.6-.6-.9,1-.6,1.6,1,.9,1.6,.6Zm-.7-18.54c.2,.4,.7,.6,1.1,.4s.6-.7,.4-1.1-.7-.6-1.1-.4c-.4,.2-.6,.7-.4,1.1Zm-1.3-12.66c.1,.3,.5,.4,.8,.3s.4-.5,.3-.8-.5-.4-.8-.3c-.3,.2-.4,.5-.3,.8Zm-.3,16.75c-.5,.2-.7,.8-.5,1.3s.8,.7,1.3,.5,.7-.8,.5-1.3c-.2-.6-.8-.8-1.3-.5Zm-1.79-11.27c.2,.4,.7,.6,1.1,.4s.6-.7,.4-1.1-.7-.6-1.1-.4-.6,.6-.4,1.1Zm-2.09,5.28c.2,.5,.8,.7,1.3,.5s.7-.8,.5-1.3-.8-.7-1.3-.5-.7,.8-.5,1.3Zm-2.09,5.38c.3,.6,1,.9,1.6,.6s.9-1,.6-1.6-1-.9-1.6-.6-.9,1-.6,1.6Zm-1.4,3.59c-.7,.3-1,1.2-.7,1.89s1.2,1,1.89,.7c.7-.3,1-1.2,.7-1.89-.4-.7-1.2-1-1.89-.7Zm-1.99-10.77c.3,.6,1,.9,1.6,.6s.9-1,.6-1.6-1-.9-1.6-.6c-.6,.3-.9,1-.6,1.6Zm-2.09,5.38c.3,.7,1.2,1,1.89,.7,.7-.3,1-1.2,.7-1.89-.3-.7-1.2-1-1.89-.7-.7,.4-1,1.2-.7,1.89Zm-2.09,5.38c.4,.8,1.3,1.1,2.09,.8s1.1-1.3,.8-2.09-1.3-1.1-2.09-.8c-.8,.3-1.2,1.3-.8,2.09Zm-2.09,5.38c.4,.9,1.5,1.3,2.39,.9s1.3-1.5,.9-2.39-1.5-1.3-2.39-.9c-1,.4-1.4,1.5-.9,2.39Zm-3.39-7.28c.4,.9,1.5,1.3,2.39,.9s1.3-1.5,.9-2.39-1.5-1.3-2.39-.9c-1,.5-1.3,1.5-.9,2.39Zm-2.09,5.38c.5,1,1.69,1.4,2.69,1,1-.5,1.4-1.69,1-2.69-.5-1-1.69-1.4-2.69-1-1.1,.5-1.5,1.69-1,2.69Zm-2.09,5.38c.5,1.1,1.79,1.6,2.89,1.1s1.6-1.79,1.1-2.89-1.79-1.6-2.89-1.1c-1.2,.5-1.69,1.79-1.1,2.89Zm-1,2.29c-1.2,.6-1.69,1.99-1.2,3.19,.6,1.2,1.99,1.69,3.19,1.2s1.69-1.99,1.2-3.19-1.99-1.79-3.19-1.2Zm-4.49-4.09c.6,1.2,1.99,1.69,3.19,1.2s1.69-1.99,1.2-3.19c-.6-1.2-1.99-1.69-3.19-1.2s-1.79,1.99-1.2,3.19Zm1.3,6.58c1.3-.6,1.89-2.19,1.3-3.49s-2.19-1.89-3.49-1.3-1.89,2.19-1.3,3.49c.6,1.4,2.19,1.99,3.49,1.3Zm3.39,7.28c1.3-.6,1.89-2.19,1.3-3.49s-2.19-1.89-3.49-1.3-1.89,2.19-1.3,3.49,2.19,1.89,3.49,1.3Zm3.39,7.28c1.3-.6,1.89-2.19,1.3-3.49s-2.19-1.89-3.49-1.3-1.89,2.19-1.3,3.49,2.19,1.89,3.49,1.3Zm3.29,7.18c1.3-.6,1.89-2.19,1.3-3.49s-2.19-1.89-3.49-1.3-1.89,2.19-1.3,3.49c.7,1.3,2.19,1.89,3.49,1.3Zm4.69,3.79c-.6-1.3-2.19-1.89-3.49-1.3s-1.89,2.19-1.3,3.49,2.19,1.89,3.49,1.3c1.3-.7,1.89-2.19,1.3-3.49Zm5.08,1.99c-.6-1.2-1.99-1.69-3.19-1.2-1.2,.6-1.69,1.99-1.2,3.19s1.99,1.69,3.19,1.2,1.79-1.99,1.2-3.19Zm1.79-5.18c-.5-1.1-1.79-1.6-2.89-1.1s-1.6,1.79-1.1,2.89,1.79,1.6,2.89,1.1,1.6-1.79,1.1-2.89Zm1.69-5.18c-.5-1-1.69-1.4-2.69-1-1,.5-1.4,1.69-1,2.69,.5,1,1.69,1.4,2.69,1,1-.6,1.5-1.69,1-2.69Zm3.39,7.18c-.5-1-1.69-1.4-2.69-1-1,.5-1.4,1.69-1,2.69,.5,1,1.69,1.4,2.69,1,1-.5,1.5-1.69,1-2.69Zm1.79-5.18c-.4-.9-1.5-1.3-2.39-.9s-1.3,1.5-.9,2.39,1.5,1.3,2.39,.9c.9-.5,1.3-1.5,.9-2.39Zm1.69-5.28c-.4-.8-1.3-1.1-2.09-.8s-1.1,1.3-.8,2.09c.4,.8,1.3,1.1,2.09,.8s1.2-1.3,.8-2.09Zm1.79-5.18c-.3-.7-1.2-1-1.89-.7-.7,.3-1,1.2-.7,1.89,.3,.7,1.2,1,1.89,.7,.7-.4,1-1.2,.7-1.89Zm1.1-3.59c.6-.3,.9-1,.6-1.6s-1-.9-1.6-.6-.9,1-.6,1.6c.3,.6,1,.8,1.6,.6Zm2.19,10.87c-.3-.7-1.2-1-1.89-.7-.7,.3-1,1.2-.7,1.89,.3,.7,1.2,1,1.89,.7,.8-.4,1.1-1.2,.7-1.89Zm1.79-5.28c-.3-.6-1-.9-1.6-.6s-.9,1-.6,1.6,1,.9,1.6,.6c.6-.3,.9-1,.6-1.6Zm1.69-5.18c-.2-.5-.8-.7-1.3-.5s-.7,.8-.5,1.3,.8,.7,1.3,.5c.6-.2,.8-.8,.5-1.3Zm.2-17.65c-.1-.3-.5-.4-.8-.3s-.4,.5-.3,.8,.5,.4,.8,.3c.3-.2,.4-.5,.3-.8Zm1.2,13.46c.4-.2,.6-.7,.4-1.1s-.7-.6-1.1-.4-.6,.7-.4,1.1,.7,.6,1.1,.4Zm1.99,11.46c-.2-.5-.8-.7-1.3-.5s-.7,.8-.5,1.3,.8,.7,1.3,.5c.5-.2,.8-.8,.5-1.3Zm.2-17.74c-.1-.3-.5-.4-.8-.3s-.4,.5-.3,.8,.5,.4,.8,.3c.3-.1,.4-.5,.3-.8Zm1.6,12.46c-.2-.4-.7-.6-1.1-.4s-.6,.7-.4,1.1,.7,.6,1.1,.4,.6-.7,.4-1.1Zm.1-17.65c-.1-.2-.3-.3-.5-.2-.2,.1-.3,.3-.2,.5,.1,.2,.3,.3,.5,.2s.3-.3,.2-.5Zm1.6,12.46c-.1-.3-.5-.4-.8-.3s-.4,.5-.3,.8,.5,.4,.8,.3c.3-.2,.5-.5,.3-.8Zm.2-17.65c0-.1-.2-.1-.3-.1s-.1,.2-.1,.3,.2,.1,.3,.1c.1-.1,.1-.2,.1-.3Zm1.6,12.46c-.1-.2-.3-.3-.5-.2s-.3,.3-.2,.5c.1,.2,.3,.3,.5,.2s.3-.3,.2-.5Zm1.6,12.36c-.1-.3-.5-.4-.8-.3s-.4,.5-.3,.8,.5,.4,.8,.3c.3-.1,.4-.5,.3-.8Zm.1-17.65c0-.1-.2-.1-.3-.1s-.1,.2-.1,.3,.2,.1,.3,.1c.1-.1,.2-.2,.1-.3Zm1.69,12.46c-.1-.2-.3-.3-.5-.2s-.3,.3-.2,.5c.1,.2,.3,.3,.5,.2,.2,0,.3-.3,.2-.5Zm1.69-5.18c0-.1-.2-.1-.3-.1s-.1,.2-.1,.3,.2,.1,.3,.1c.1-.1,.2-.2,.1-.3Zm-59.61,4.69c-.3,.2-.7,.2-1,.3,.3,.3,.5,.6,.7,1s.3,.8,.3,1.2c.2-.2,.5-.5,.9-.6,.5-.3,1.1-.3,1.69-.3-.4-.3-.8-.7-1-1.2s-.3-1-.2-1.5c-.4,.4-.8,.8-1.4,1.1Zm-82.54-189.21c-.6,0-1-.3-1.5-.6,.3,.5,.4,1.1,.3,1.69,0,.4-.1,.7-.3,1,.4-.1,.8-.2,1.2-.1,.4,0,.8,.2,1.2,.3-.1-.3-.1-.7-.1-1,.1-.6,.3-1.1,.6-1.6-.3,.2-.8,.3-1.4,.3Zm90.52,202.57c-.1,.1-.2,.3-.3,.4,.1,.1,.2,.3,.3,.4v-.8Zm-82.54-201.87c-.5,0-1-.3-1.4-.6,.3,.5,.4,1.1,.3,1.69,0,.4-.1,.7-.3,1,.4-.1,.8-.2,1.2-.1h0c.3,0,.7-.1,1-.1v-.6c.1-.6,.3-1.2,.6-1.6-.3,.2-.9,.3-1.4,.3Zm7.98,.7c-.5,0-1-.3-1.4-.6,.2,.4,.3,.7,.3,1.2,.7-.1,1.5-.1,2.19-.2,.1-.3,.2-.5,.4-.7-.5,.2-1,.3-1.5,.3Zm59.52,180.04h.3c-.2-.2-.5-.5-.6-.9h0c-.1,0-.1,.1-.2,.1,.2,.3,.3,.5,.5,.8Z" style="fill:#fff;"/></g><circle cx="350" cy="350" r="9.97" style="fill:none;"/><rect x="26.92" y="26.87" width="600" height="600" style="fill:none;"/></g></svg>