<?xml version="1.0" encoding="utf-8"?>
<!-- Generator: Adobe Illustrator 26.3.1, SVG Export Plug-In . SVG Version: 6.00 Build 0)  -->
<svg version="1.1" id="uuid-585a4d23-2cff-4231-9130-f4ad2e98346a"
	 xmlns="http://www.w3.org/2000/svg" xmlns:xlink="http://www.w3.org/1999/xlink" x="0px" y="0px" viewBox="0 0 1529.5 600"
	 style="enable-background:new 0 0 1529.5 600;" xml:space="preserve">
<style type="text/css">
	.st0{fill:#238700;}
	.st1{fill:none;}
</style>
<g>
	<path d="M624.3,242.3l42.5-124.2h36l37.4,124.2h-40.5l-6.5-26.3H658l-8.3,26.3H624.3z M688.2,195.5l-10.4-43l-13.5,43H688.2z"/>
	<path d="M779,154.1l3.4,29.9c1.4-16.6,6.7-31.7,26.8-31.7c18.9,0,25,11,25.9,28.3c2.5-15.1,9.2-28.3,26.8-28.3
		c21.1,0,24.8,13.5,24.8,34.2v55.8H854v-40c0-19.3-2.3-22.9-7.9-22.9c-8.1,0-10.8,10.6-10.8,38.3v24.5h-32.8v-40
		c0-19.3-2.3-22.9-7.9-22.9c-8.1,0-10.8,10.6-10.8,38.3v24.5h-32.8v-86.4L779,154.1L779,154.1z"/>
	<path d="M936.6,114.5v52.7c3.8-8.6,10.6-14.9,22.9-14.9c18.9,0,34,15.3,34,45.7c0,27.2-14.2,47-34,47c-14.4,0-21.8-7.2-25.2-21.1
		l-2.9,18.4h-27.5v-126C903.9,116.3,936.6,114.5,936.6,114.5z M948.2,177.9c-7,0-11.5,6.1-11.5,23.6c0,9.7,2.5,20.9,11.7,20.9
		c8.1,0,11.7-10.1,11.7-20.7C960,185.2,956.4,177.9,948.2,177.9L948.2,177.9z"/>
	<path d="M1039.8,154.1v88.2H1007v-86.4L1039.8,154.1L1039.8,154.1z M1007.9,109.1h32.8v26.3h-32.8V109.1z"/>
	<path d="M1060.1,170.7h-10.4v-11.2l10.4-3.1v-17.6l32.8-2.7v19.8h18.4v14.8h-18.4v42.5c0,7.9,2.7,10.3,7.4,10.3s6.1-2.5,6.1-5.6
		h6.7c0,16.4-5.6,27.2-23.4,27.2s-29.5-7.7-29.5-36.9V170.7z"/>
	<path d="M1157.5,154.1v88.2h-32.8v-86.4L1157.5,154.1L1157.5,154.1z M1125.6,109.1h32.8v26.3h-32.8V109.1z"/>
	<path d="M1216.5,152.3c24.3,0,44.3,16.4,44.3,47.7c0,27.5-15.5,45-44.3,45c-25.7,0-44.6-15.3-44.6-45.7
		C1171.9,172.1,1190.1,152.3,1216.5,152.3z M1216.3,177.7c-8.1,0-11.7,8.6-11.7,20.7c0,16.4,3.6,24.1,11.9,24.1
		c7,0,11.5-6.5,11.5-23.9C1228.1,187.8,1225.5,177.7,1216.3,177.7L1216.3,177.7z"/>
	<path d="M1302.2,154.1l3.4,29.3c1.4-16.9,7-31.1,27.4-31.1s27,13.5,27,34.2v55.8h-32.8v-40c0-19.3-3.2-22.9-8.8-22.9
		c-8.1,0-11.3,10.6-11.3,38.3v24.5h-32.8v-86.4L1302.2,154.1L1302.2,154.1z"/>
	<path d="M658.5,412.3v-99h-34.2v-25.2h102.8v25.2h-34.2v99H658.5z"/>
	<path d="M753.6,324.1l3.1,26.3c1.8-15.1,7-28.1,20.9-28.1c12.2,0,17.6,10.8,17.6,20.7c0,6.8-0.9,10.1-2.2,13.9h-12.6
		c-0.2-1.1-0.4-2-0.5-2.9c-1.1-3.6-3.6-5.9-7.7-5.9c-6.8,0-13.1,6.3-13.1,38v26.3h-32.8v-86.4L753.6,324.1L753.6,324.1z"/>
	<path d="M830.4,363.3c4.3,0,10.6,0.7,14.2,2.7v-3.2c0-12.4-5.4-17.6-15.7-17.6c-8.8,0-14.4,6.1-16.4,11.7h-8.5
		c0-17.8,10.3-34.6,36.4-34.6c22.5,0,35.1,12.2,35.1,34v25.7c0,8.5,0.4,14.2,1.6,18.7c0.7,2.5,2,5.2,4.7,7v4.3
		c-2.2,1.1-8.1,2.2-13.1,2.2c-10.6,0-19.4-2.5-22.7-12.2c-4.3,7.4-11.5,13-23.6,13c-17.5,0-24.7-11.5-24.7-24.3
		C797.9,376.8,805.8,363.3,830.4,363.3L830.4,363.3z M836,394.5c7.2,0,8.6-7.2,8.6-16.9v-1.1c-1.3-0.4-3.1-0.9-5.6-0.9
		c-6.7,0-10.3,4-10.3,11.2C828.8,391.4,831.2,394.5,836,394.5z"/>
	<path d="M920.6,324.1l3.4,29.3c1.4-16.9,7-31.1,27.4-31.1s27,13.5,27,34.2v55.8h-32.8v-40c0-19.3-3.2-22.9-8.8-22.9
		c-8.1,0-11.3,10.6-11.3,38.3v24.5h-32.8v-86.4L920.6,324.1L920.6,324.1z"/>
	<path d="M1001.1,384.9c2.7,9.4,9.9,15.1,19.6,15.1c7,0,10.6-2.2,10.6-6.7s-3.1-6.7-12.2-9.4c-16.2-4.9-26.5-13.5-26.5-30.2
		s13.3-31.5,36.4-31.5s34,11.7,30.4,30.6h-12.8c-0.9-4.9-4-11.9-12.4-11.9c-6.1,0-9.7,2.9-9.7,6.7c0,4.3,1.8,5.9,14.2,9.9
		c17.1,5.4,24.3,14.2,24.3,27.7c0,16.2-11.5,29.7-37.6,29.7c-21.8,0-34.2-11.3-34.2-30.1L1001.1,384.9L1001.1,384.9z"/>
	<path d="M1109.3,324.1v88.2h-32.8v-86.4L1109.3,324.1z M1077.4,279.1h32.8v26.3h-32.8V279.1z"/>
	<path d="M1129.6,340.7h-10.4v-11.2l10.4-3.1v-17.6l32.8-2.7v19.8h18.4v14.8h-18.4v42.5c0,7.9,2.7,10.3,7.4,10.3s6.1-2.5,6.1-5.6
		h6.7c0,16.4-5.6,27.2-23.4,27.2s-29.5-7.7-29.5-36.9V340.7z"/>
	<path d="M1227,324.1v88.2h-32.8v-86.4L1227,324.1z M1195.1,279.1h32.8v26.3h-32.8V279.1z"/>
	<path d="M1286,322.3c24.3,0,44.3,16.4,44.3,47.7c0,27.5-15.5,45-44.3,45c-25.7,0-44.6-15.3-44.6-45.7
		C1241.4,342.1,1259.6,322.3,1286,322.3z M1285.8,347.7c-8.1,0-11.7,8.6-11.7,20.7c0,16.4,3.6,24.1,11.9,24.1
		c7,0,11.5-6.5,11.5-23.9C1297.5,357.8,1295,347.7,1285.8,347.7L1285.8,347.7z"/>
	<path d="M1371.7,324.1l3.4,29.3c1.4-16.9,7-31.1,27.4-31.1s27,13.5,27,34.2v55.8h-32.8v-40c0-19.3-3.2-22.9-8.8-22.9
		c-8.1,0-11.3,10.6-11.3,38.3v24.5h-32.8v-86.4L1371.7,324.1L1371.7,324.1z"/>
	<path d="M634.4,487.1c0.5,5,4.2,6.9,8.5,6.9c4,0,7.1-1.4,7.1-5.5s-3.2-5.2-8.2-6.7c-5.3-1.5-8.9-4.1-8.9-9.8c0-6,4.6-9.5,11.1-9.5
		s11,3.5,10.5,9.6h-2.7c-0.2-3.8-3.3-5.9-7.2-5.9s-6.5,1.8-6.5,5.4c0,3.4,3.2,4.8,8,6.1c5.8,1.6,9.4,4.5,9.4,10.2
		c0,6.5-5.2,9.9-11.8,9.9c-7.3,0-12-3.6-12-10.7H634.4L634.4,487.1z"/>
	<path d="M670.8,472.8c6.1,0,10.8,4.4,10.8,12.6c0,7.8-4.1,12.4-10.8,12.4c-6.3,0-11-4.2-11-12.5
		C659.8,477.6,664.3,472.8,670.8,472.8z M670.7,476.6c-3.7,0-6,3.2-6,8.6c0,6,2.3,9.1,6.1,9.1c3.5,0,6-3,6-9.1
		C676.8,480,674.6,476.6,670.7,476.6z"/>
	<path d="M696.2,472.8c5.7,0,7.8,3.1,8.1,6.1c0.1,0.8,0.1,1.5,0,2.2h-2.2c-0.3-2.1-1.3-4.7-5.2-4.7c-4.2,0-6.3,4-6.3,9.1
		c0,5.8,3,8.9,6.7,8.9s5.6-2.1,6-5.5h1.8c0,5.1-3,8.8-8.8,8.8c-5.3,0-10.7-3-10.7-11.9C685.6,478.5,689.6,472.8,696.2,472.8
		L696.2,472.8z"/>
	<path d="M710.8,461.8h5.3v4.9h-5.3V461.8z M715.7,473.3v24h-4.8v-23.8L715.7,473.3z"/>
	<path d="M732.3,472.8c6.4,0,8.6,4.1,8.6,8c0,1.2-0.2,3.4-0.3,4h-14v0.8c0,5.5,2.3,8.8,7,8.8c4,0,6-2.2,6.3-5.4h1.8
		c0,5.4-3.4,8.8-9.2,8.8c-6.7,0-10.8-4-10.8-11.8S725.7,472.8,732.3,472.8L732.3,472.8z M726.8,482.3h10.1c0-0.1,0.1-0.7,0.1-1.4
		c0-2.1-0.8-4.4-4.4-4.4C729.5,476.6,727.4,478.7,726.8,482.3L726.8,482.3z M736.3,459l3,2.8l-7.8,8l-2-1.6L736.3,459z"/>
	<path d="M747.8,475.9h-3.8V474l3.8-0.5v-5.6l4.8-0.4v6h6.5v2.4h-6.5v14.9c0,2.2,0.6,3.8,3,3.8c2,0,2.8-0.9,2.8-2.4h1.2
		c0,3.6-1.5,5.7-5.5,5.7c-4.5,0-6.3-2.4-6.3-7.8V475.9L747.8,475.9z"/>
	<path d="M773.1,472.8c6.4,0,8.6,4.1,8.6,8c0,1.2-0.2,3.4-0.3,4h-14v0.8c0,5.5,2.3,8.8,7,8.8c4,0,6-2.2,6.3-5.4h1.8
		c0,5.4-3.4,8.8-9.2,8.8c-6.7,0-10.8-4-10.8-11.8S766.5,472.8,773.1,472.8L773.1,472.8z M767.6,482.3h10.1c0-0.1,0.1-0.7,0.1-1.4
		c0-2.1-0.8-4.4-4.4-4.4C770.3,476.6,768.2,478.7,767.6,482.3L767.6,482.3z M777.1,459l3,2.8l-7.8,8l-2-1.6L777.1,459z"/>
	<path d="M813.3,462.4c8.7,0,11.3,6.4,11,9.4h-2.7c-0.2-1.2-2.2-4.9-7.7-4.9c-6,0-10.5,4.8-10.5,13.5s4.5,13.2,10.2,13.2
		c6,0,8.5-4,8.8-5.8h2.5c0,3.4-2.8,10-12,10c-8.5,0-15-5.5-15-17.5S804.8,462.4,813.3,462.4L813.3,462.4z"/>
	<path d="M839.6,472.8c6.1,0,10.8,4.4,10.8,12.6c0,7.8-4.1,12.4-10.8,12.4c-6.3,0-11-4.2-11-12.5
		C828.7,477.6,833.2,472.8,839.6,472.8z M839.6,476.6c-3.7,0-6,3.2-6,8.6c0,6,2.3,9.1,6.1,9.1c3.5,0,6-3,6-9.1
		C845.6,480,843.5,476.6,839.6,476.6z"/>
	<path d="M865.4,472.8c6.1,0,10.8,4.4,10.8,12.6c0,7.8-4.1,12.4-10.8,12.4c-6.3,0-11-4.2-11-12.5C854.5,477.6,859,472.8,865.4,472.8
		z M865.4,476.6c-3.7,0-6,3.2-6,8.6c0,6,2.3,9.1,6.1,9.1c3.5,0,6-3,6-9.1C871.4,480,869.3,476.6,865.4,476.6z"/>
	<path d="M885.9,473.3l0.5,6.5c1-4.2,3.3-7,7.8-7s9.5,3.8,9.5,12.4c0,7.8-4,12.6-9.5,12.6c-3.5,0-6.2-2-7.5-6.1v17.6h-4.8v-35.8
		L885.9,473.3z M892.6,476.6c-3.6,0-6,3-6,9.2c0,5.4,2.9,8.5,6,8.5c3.8,0,6-3.4,6-8.6C898.7,479.3,895.7,476.6,892.6,476.6z"/>
	<path d="M918.2,472.8c6.4,0,8.6,4.1,8.6,8c0,1.2-0.2,3.4-0.3,4h-14v0.8c0,5.5,2.3,8.8,7,8.8c4,0,6-2.2,6.3-5.4h1.8
		c0,5.4-3.4,8.8-9.2,8.8c-6.7,0-10.8-4-10.8-11.8S911.6,472.8,918.2,472.8L918.2,472.8z M912.7,482.3h10.1c0-0.1,0.1-0.7,0.1-1.4
		c0-2.1-0.8-4.4-4.4-4.4C915.4,476.6,913.4,478.7,912.7,482.3L912.7,482.3z M922.2,459l3,2.8l-7.8,8l-2-1.6L922.2,459z"/>
	<path d="M937.2,473.3l0.4,7.2c0.7-4.1,2.4-7.8,6.6-7.8c3.9,0,5,3.8,5,6.1c0,1-0.2,1.7-0.3,2.4h-2c0-0.8,0-1.5-0.3-2.2
		c-0.4-1.2-1.3-2.2-3.1-2.2c-4.2,0-5.5,4.5-5.5,11.5v8.9h-4.8v-23.8L937.2,473.3L937.2,473.3z"/>
	<path d="M960.5,484.4c1.6,0,3.7,0.4,4.8,1V482c0-3.8-1.8-5.6-5.1-5.6s-5.1,2.2-5.5,4.8h-1.9c0-4.5,2.5-8.3,8.6-8.3
		c5.8,0,8.5,3.2,8.5,8.3v9.5c0,4.1,1,4.9,2.1,4.9c0.3,0,0.6-0.1,0.9-0.3l0.5,0.9c-0.5,0.9-1.8,1.6-3.3,1.6c-2.7,0-4.3-0.9-4.7-4.2
		c-1.2,2.4-3.5,4.3-7.2,4.3c-4.2,0-6.5-2.7-6.5-6.2C951.7,487.7,954.1,484.4,960.5,484.4L960.5,484.4z M960.1,494.6
		c3.8,0,5.2-3.8,5.2-7.2v-0.2c-0.9-0.2-2.3-0.5-3.7-0.5c-3.5,0-5.2,1.8-5.2,4.5C956.5,493.4,957.8,494.6,960.1,494.6L960.1,494.6z"
		/>
	<path d="M977.9,475.9h-3.8V474l3.8-0.5v-5.6l4.8-0.4v6h6.5v2.4h-6.5v14.9c0,2.2,0.6,3.8,3,3.8c2,0,2.8-0.9,2.8-2.4h1.2
		c0,3.6-1.5,5.7-5.5,5.7c-4.5,0-6.3-2.4-6.3-7.8V475.9L977.9,475.9z"/>
	<path d="M994.8,461.8h5.3v4.9h-5.3V461.8z M999.8,473.3v24h-4.8v-23.8L999.8,473.3z"/>
	<path d="M1009.5,473.5l6.1,18.2l6.2-18.2h4.3l-8.5,23.8h-4.9l-8.5-23.8H1009.5z"/>
	<path d="M1038.7,472.8c6.4,0,8.6,4.1,8.6,8c0,1.2-0.2,3.4-0.3,4h-14v0.8c0,5.5,2.3,8.8,7,8.8c4,0,6-2.2,6.3-5.4h1.8
		c0,5.4-3.4,8.8-9.2,8.8c-6.7,0-10.8-4-10.8-11.8S1032.1,472.8,1038.7,472.8L1038.7,472.8z M1033.2,482.3h10.1
		c0.1-0.1,0.1-0.7,0.1-1.4c0-2.1-0.8-4.4-4.4-4.4C1035.9,476.6,1033.9,478.7,1033.2,482.3L1033.2,482.3z"/>
	<path d="M1073.1,472.8c3.4,0,6.2,2.1,7.6,6.2v-17l4.8-0.2v35.5h-3.8l-0.5-6.9c-0.9,4.8-3.3,7.4-8.1,7.4s-9.4-3.8-9.4-12.4
		C1063.6,477.6,1067.6,472.8,1073.1,472.8z M1074.6,476.6c-3.7,0-6.1,3.5-6.1,8.6c0,6.4,2.9,9,6.1,9c3.6,0,5.9-3,5.9-9.2
		C1080.6,479.8,1077.7,476.6,1074.6,476.6L1074.6,476.6z"/>
	<path d="M1094.3,467.2c-1.8,0-2.8-1-2.8-2.7c0-1.6,1.2-2.8,2.8-2.8c1.9,0,2.9,1.3,2.9,3c0,4.5-3.1,8.3-5.2,9.6l-1.1-1.5
		C1092.1,472,1093.9,469.7,1094.3,467.2L1094.3,467.2z"/>
	<path d="M1108.1,462.8v34.5h-5.2v-34.5H1108.1z"/>
	<path d="M1131.1,497.3v-12.8c0-5.4-1.2-7.7-4.7-7.7c-3.8,0-5.7,4-5.7,10.5v9.9h-4.8v-23.8l4.2-0.2l0.5,7.2v0.2c0.7-4.5,2.8-8,7.9-8
		c5.8,0,7.5,3.8,7.5,9.5v15L1131.1,497.3L1131.1,497.3z"/>
	<path d="M1143.6,475.9h-3.8V474l3.8-0.5v-5.6l4.8-0.4v6h6.4v2.4h-6.4v14.9c0,2.2,0.6,3.8,2.9,3.8c1.9,0,2.8-0.9,2.8-2.4h1.2
		c0,3.6-1.6,5.7-5.5,5.7c-4.4,0-6.3-2.4-6.3-7.8V475.9L1143.6,475.9z"/>
	<path d="M1168.9,472.8c6.4,0,8.6,4.1,8.6,8c0,1.2-0.2,3.4-0.3,4h-14v0.8c0,5.5,2.3,8.8,7,8.8c4,0,6-2.2,6.3-5.4h1.8
		c0,5.4-3.4,8.8-9.2,8.8c-6.7,0-10.8-4-10.8-11.8S1162.3,472.8,1168.9,472.8L1168.9,472.8z M1163.4,482.3h10.1
		c0.1-0.1,0.1-0.7,0.1-1.4c0-2.1-0.8-4.4-4.4-4.4C1166.1,476.6,1164,478.7,1163.4,482.3L1163.4,482.3z M1172.9,459l3.1,2.8l-7.8,8
		l-2-1.6L1172.9,459L1172.9,459z"/>
	<path d="M1187.9,473.3l0.4,7.2c0.7-4.1,2.4-7.8,6.6-7.8c3.9,0,5.1,3.8,5.1,6.1c0,1-0.2,1.7-0.3,2.4h-2.1c0-0.8-0.1-1.5-0.3-2.2
		c-0.4-1.2-1.3-2.2-3.1-2.2c-4.2,0-5.5,4.5-5.5,11.5v8.9h-4.8v-23.8L1187.9,473.3L1187.9,473.3z"/>
	<path d="M1213.3,472.8c6.4,0,8.6,4.1,8.6,8c0,1.2-0.2,3.4-0.3,4h-14v0.8c0,5.5,2.3,8.8,7,8.8c4,0,6-2.2,6.3-5.4h1.8
		c0,5.4-3.4,8.8-9.2,8.8c-6.7,0-10.8-4-10.8-11.8S1206.7,472.8,1213.3,472.8L1213.3,472.8z M1212.4,459.6h2.7l6.8,8.5l-1.7,1.6
		l-6.4-6.3l-6.4,6.3l-1.7-1.6L1212.4,459.6L1212.4,459.6z M1207.8,482.3h10.1c0.1-0.1,0.1-0.7,0.1-1.4c0-2.1-0.8-4.4-4.4-4.4
		C1210.5,476.6,1208.5,478.7,1207.8,482.3L1207.8,482.3z"/>
	<path d="M1228.8,475.9h-3.8V474l3.8-0.5v-5.6l4.8-0.4v6h6.4v2.4h-6.4v14.9c0,2.2,0.6,3.8,2.9,3.8c1.9,0,2.8-0.9,2.8-2.4h1.2
		c0,3.6-1.6,5.7-5.5,5.7c-4.4,0-6.3-2.4-6.3-7.8V475.9L1228.8,475.9z"/>
	<path d="M1270.8,462.4c8.7,0,11.3,6.4,11.1,9.4h-2.7c-0.2-1.2-2.2-4.9-7.7-4.9c-6,0-10.5,4.8-10.5,13.5s4.6,13.2,10.2,13.2
		c6,0,8.5-4,8.8-5.8h2.4c0,3.4-2.8,10-12,10c-8.4,0-14.9-5.5-14.9-17.5S1262.4,462.4,1270.8,462.4L1270.8,462.4z"/>
	<path d="M1297.2,472.8c6.1,0,10.8,4.4,10.8,12.6c0,7.8-4.1,12.4-10.8,12.4c-6.3,0-10.9-4.2-10.9-12.5
		C1286.2,477.6,1290.7,472.8,1297.2,472.8z M1297.1,476.6c-3.7,0-6.1,3.2-6.1,8.6c0,6,2.3,9.1,6.1,9.1c3.6,0,6-3,6-9.1
		C1303.2,480,1301,476.6,1297.1,476.6L1297.1,476.6z"/>
	<path d="M1318.6,461.8v35.5h-4.8V462L1318.6,461.8z"/>
	<path d="M1331,461.8v35.5h-4.8V462L1331,461.8z"/>
	<path d="M1347.3,472.8c6.4,0,8.6,4.1,8.6,8c0,1.2-0.2,3.4-0.3,4h-14v0.8c0,5.5,2.3,8.8,7,8.8c4,0,6-2.2,6.3-5.4h1.8
		c0,5.4-3.4,8.8-9.2,8.8c-6.7,0-10.8-4-10.8-11.8S1340.7,472.8,1347.3,472.8L1347.3,472.8z M1341.8,482.3h10.1
		c0.1-0.1,0.1-0.7,0.1-1.4c0-2.1-0.8-4.4-4.4-4.4C1344.5,476.6,1342.5,478.7,1341.8,482.3L1341.8,482.3z"/>
	<path d="M1371.3,472.8c5.7,0,7.8,3.1,8.1,6.1c0.1,0.8,0.1,1.5,0,2.2h-2.2c-0.3-2.1-1.3-4.7-5.2-4.7c-4.2,0-6.3,4-6.3,9.1
		c0,5.8,3.1,8.9,6.7,8.9s5.6-2.1,6.1-5.5h1.8c0,5.1-2.9,8.8-8.8,8.8c-5.3,0-10.7-3-10.7-11.9
		C1360.7,478.5,1364.7,472.8,1371.3,472.8L1371.3,472.8z"/>
	<path d="M1386.3,475.9h-3.8V474l3.8-0.5v-5.6l4.8-0.4v6h6.4v2.4h-6.4v14.9c0,2.2,0.6,3.8,2.9,3.8c1.9,0,2.8-0.9,2.8-2.4h1.2
		c0,3.6-1.6,5.7-5.5,5.7c-4.4,0-6.3-2.4-6.3-7.8V475.9L1386.3,475.9z"/>
	<path d="M1403.2,461.8h5.3v4.9h-5.3V461.8z M1408.1,473.3v24h-4.8v-23.8L1408.1,473.3z"/>
	<path d="M1416.7,476.2v-0.3h-3.8v-1.9l3.8-0.5c-0.2-1.9-0.4-2.9-0.4-4.9c0-3.9,2.6-6.9,7.1-6.9c3.3,0,5,1.5,5.5,3.6
		c0.2,0.7,0.2,1.4,0.1,2.3h-1.5c-0.2-1.5-1.2-2.6-3.3-2.6c-2.6,0-3.8,1.8-3.8,3.8c0.1,1.7,0.5,2.7,0.8,4.6h6.3v2.4h-6
		c0.1,0.8,0.1,1.8,0.1,2.9v18.5h-4.8V476.2L1416.7,476.2z"/>
</g>
<g>
	<path class="st0" d="M264.3,270c-0.1,0.3-0.2,0.6-0.3,1c-0.1,0.6,0.1,1.2,0.3,1.7c-0.4-0.3-0.9-0.5-1.5-0.6c-0.5,0-1.1,0.1-1.5,0.3
		c0.3-0.4,0.6-1,0.6-1.6c0-0.4,0-0.7-0.1-1c0.4,0.2,0.7,0.3,1.2,0.3S263.9,270.1,264.3,270L264.3,270z M266.3,268
		c0,0.1-0.1,0.2-0.1,0.4c0.3-0.1,0.7-0.1,1-0.1h0.1V268H266.3z M255.2,269.4c-0.4,0-0.8-0.2-1.2-0.3c0.1,0.3,0.1,0.7,0.1,1.1
		c-0.1,0.6-0.3,1.1-0.6,1.6c0.5-0.2,1-0.3,1.5-0.3s1,0.3,1.5,0.6c-0.3-0.5-0.4-1.1-0.3-1.7c0-0.4,0.1-0.7,0.3-1
		C256,269.4,255.6,269.4,255.2,269.4L255.2,269.4z M246.1,269.4C246.1,269.4,246.2,269.4,246.1,269.4c-0.1,0.6-0.3,1.2-0.6,1.6
		c0.5-0.2,1-0.3,1.5-0.3s1,0.3,1.4,0.6c-0.3-0.5-0.4-1.1-0.3-1.7c0-0.1,0-0.3,0.1-0.4C247.5,269.2,246.8,269.3,246.1,269.4
		L246.1,269.4z M240.5,270.6c-0.1-0.1-0.1-0.3-0.2-0.4c-0.2,0-0.3,0-0.5,0.1C240.1,270.3,240.3,270.4,240.5,270.6z M548.2,462.7
		c-9.4,64.9-67,96.8-128.7,84.8c-42.5-8.3-79.6-31.8-110.2-61.4c-8.3-8.1-16-16.6-23.3-25.5c-10.8-13.3-20.3-27.5-28.7-42.5
		c-17.1-30.7-28.9-64.3-34.6-99c-0.8-5-1.5-10-2-15c0.3-0.2,0.6-0.5,0.6-0.9c0.1-0.6-0.3-1.1-0.9-1.2c-0.2-1.8-0.4-3.7-0.5-5.5
		c0.2,0.2,0.5,0.3,0.8,0.3c0.9,0.1,1.7-0.6,1.7-1.5c0.1-0.9-0.6-1.7-1.5-1.7c-0.5,0-0.9,0.1-1.3,0.5c-0.2-3.1-0.5-6.2-0.6-9.3
		c0.5-0.4,0.9-0.9,1-1.6c0.1-0.9-0.4-1.7-1.1-2.1c0-1.2-0.1-2.3-0.1-3.5c1.2-0.1,2.2-1.1,2.3-2.4c0-0.6-0.1-1.1-0.4-1.6
		c0.1,0,0.3-0.1,0.4-0.1c0.4,0.3,0.9,0.6,1.5,0.6c1.2,0.1,2.2-0.5,2.7-1.5c0.2,0,0.4-0.1,0.5-0.1c0.7-0.1,1.4-0.3,2.2-0.4
		c0,1.4,1.1,2.6,2.5,2.7c1.5,0.1,2.9-1,3-2.5c0-0.4,0-0.8-0.1-1.1c0.1,0,0.2,0,0.3-0.1c0.3,0.2,0.7,0.3,1.1,0.3
		c0.6,0.1,1.2-0.1,1.7-0.3c-0.3,0.4-0.5,0.9-0.6,1.5c-0.1,1.5,1,2.9,2.5,3s2.9-1,3-2.5c0-0.5-0.1-1.1-0.3-1.5c0.4,0.3,1,0.6,1.6,0.6
		c0.6,0.1,1.2-0.1,1.7-0.3c-0.3,0.4-0.5,0.9-0.6,1.4c-0.1,1.5,1,2.9,2.5,3c1.5,0.1,2.9-1,3-2.5c0-0.5-0.1-1.1-0.3-1.5
		c0.4,0.3,1,0.6,1.6,0.6c0.6,0.1,1.2-0.1,1.7-0.3c-0.3,0.4-0.5,0.9-0.6,1.4c-0.1,1.5,1,2.9,2.5,3s2.9-1,3-2.5c0-0.5-0.1-1.1-0.3-1.5
		c0.4,0.3,1,0.6,1.6,0.6c0.6,0.1,1.2-0.1,1.7-0.3c-0.3,0.4-0.5,0.9-0.6,1.4c-0.1,1.5,1,2.9,2.5,3s2.9-1,3-2.5c0-0.5-0.1-1.1-0.3-1.5
		c0.4,0.3,1,0.6,1.6,0.6h0.6v2.6c-0.3-0.1-0.5-0.2-0.8-0.2c-1.4-0.1-2.7,0.9-2.8,2.4c-0.1,1.4,0.9,2.7,2.4,2.8c0.5,0,1-0.1,1.4-0.3
		c0,0.6,0,1.2,0.1,1.7v0.8c0,0.9,0.1,1.8,0.1,2.7c-0.2-0.9-1-1.6-1.9-1.7c-1.2-0.1-2.3,0.8-2.4,2s0.8,2.3,2,2.4s2.2-0.8,2.4-1.9
		c0.1,0.9,0.1,1.7,0.2,2.6c-0.4,0.3-0.6,0.8-0.7,1.3c-0.1,0.8,0.3,1.5,0.9,1.9c0.1,1.6,0.3,3.1,0.4,4.7c-0.9,0-1.6,0.6-1.7,1.5
		s0.6,1.7,1.5,1.7c0.2,0,0.4,0,0.6-0.1c4,34.6,15.4,68.3,33.6,98.3c8.4,13.9,18.2,26.9,29.5,39c0.5,0.6,1.1,1.2,1.6,1.7
		c26.9,28.8,63.9,50.9,103.8,52.2c46.7,0.6,60.1-32.9,51.6-74.3c-4.1-19.3-12.8-37.7-24.1-54c0.1-0.3-0.1-0.6-0.3-0.8
		c-0.1-0.1-0.2-0.1-0.3-0.1c-2.1-2.9-4.2-5.8-6.5-8.6c0.4-0.6,0.2-1.5-0.4-1.9c-0.4-0.3-0.9-0.3-1.3-0.2c-2-2.4-4-4.8-6.1-7.1
		c0.3-0.1,0.6-0.4,0.8-0.6c0.6-0.9,0.4-2.2-0.5-2.8s-2.2-0.4-2.8,0.5l-0.1,0.1c-0.6-0.6-1.1-1.2-1.7-1.8l-0.9-0.9
		c0.4-1,0.1-2.2-0.8-2.9c-0.7-0.5-1.5-0.6-2.3-0.3l-0.9-0.9c1.1,0.4,2.3,0,3-0.9c0.8-1.2,0.5-2.8-0.6-3.6c-1.2-0.8-2.8-0.5-3.6,0.6
		c-0.5,0.7-0.6,1.7-0.3,2.5l-0.4-0.4c-0.1-0.6-0.4-1.2-0.9-1.7c0.4-0.7,0.8-1.4,1.2-2.1c1.3,0.8,2.9,0.5,3.8-0.7
		c0.9-1.3,0.6-3-0.7-3.9c-0.1-0.1-0.2-0.1-0.4-0.2c0.4-0.7,0.8-1.5,1.2-2.2c0.1,0.2,0.3,0.3,0.5,0.5c1.3,0.9,3,0.6,3.9-0.7
		c0.9-1.3,0.6-3-0.7-3.9c-0.4-0.3-0.8-0.4-1.2-0.5c0-0.1,0.1-0.1,0.1-0.2c0.4-0.2,0.8-0.5,1-0.9c0.3-0.5,0.5-1.1,0.5-1.6
		c0.2,0.5,0.5,0.9,1,1.2c1.3,0.9,3,0.6,3.9-0.7c0.9-1.3,0.6-3-0.7-3.9c-0.5-0.3-1-0.5-1.5-0.5c0.5-0.2,1-0.6,1.3-1.1
		s0.5-1.1,0.5-1.6c0.2,0.5,0.5,0.9,1,1.2c1.3,0.9,3,0.6,3.9-0.7c0.9-1.3,0.6-3-0.7-3.9c-0.4-0.3-1-0.5-1.5-0.5
		c0.5-0.2,1-0.6,1.3-1.1s0.5-1.1,0.5-1.6c0.2,0.5,0.5,0.9,1,1.2c1.3,0.9,3,0.6,3.9-0.7c0.9-1.3,0.6-3-0.7-3.9
		c-0.4-0.3-1-0.5-1.5-0.5c0.5-0.2,1-0.6,1.3-1.1s0.5-1.1,0.5-1.6c0.2,0.5,0.5,0.9,1,1.2c1.3,0.9,3,0.6,3.9-0.7
		c0.9-1.3,0.6-3-0.7-3.9c-0.5-0.3-1-0.5-1.5-0.5c0.5-0.2,1-0.6,1.4-1.1c0-0.1,0.1-0.1,0.1-0.2c0.6,0.5,1.2,1,1.9,1.6l0,0
		c-0.8,1.2-0.5,2.8,0.6,3.6c1,0.7,2.4,0.6,3.3-0.2c0.9,0.8,1.7,1.5,2.6,2.3c-0.1,0.8,0.2,1.7,0.9,2.2c0.5,0.4,1.2,0.5,1.8,0.3
		c2.3,2.1,4.5,4.3,6.7,6.5c-0.4,0.1-0.8,0.3-1,0.7c-0.5,0.7-0.3,1.7,0.4,2.2c0.7,0.5,1.7,0.3,2.2-0.4l0.3-0.6c1.3,1.3,2.6,2.6,3.8,4
		c-0.1,0.5,0,1,0.4,1.3c0.3,0.2,0.6,0.3,0.9,0.2c2.6,2.8,5.1,5.6,7.6,8.5c-0.3-0.2-0.6-0.1-0.8,0.2c-0.2,0.3-0.1,0.6,0.1,0.8
		c0.3,0.2,0.7,0.1,0.8-0.1c0.1-0.2,0.1-0.4,0-0.6c18.1,21.2,32.8,45.2,42.4,71.7l1.5,4.5C548.2,419.7,551.2,441.2,548.2,462.7
		L548.2,462.7z M263.1,294.9c-0.1,1,0.6,1.9,1.6,2s1.9-0.6,2-1.6s-0.6-1.9-1.6-2C264,293.2,263.2,293.9,263.1,294.9z M228.1,283.9
		c0.1-1.2-0.8-2.3-2-2.4s-2.3,0.8-2.4,2c-0.1,1.2,0.8,2.3,2,2.4S228,285,228.1,283.9z M225.4,289.8c-1-0.1-1.9,0.6-2,1.6
		s0.6,1.9,1.6,2s1.9-0.6,2-1.6C227.1,290.7,226.4,289.9,225.4,289.8z M227.6,287.7c-0.1,1.1,0.7,2.1,1.8,2.2s2.1-0.7,2.2-1.8
		c0.1-1.1-0.7-2.1-1.8-2.2C228.5,285.9,227.7,286.7,227.6,287.7z M231.3,292.1c-0.1,1,0.6,1.9,1.6,2s1.9-0.6,2-1.6s-0.6-1.9-1.6-2
		C232.3,290.4,231.4,291.1,231.3,292.1z M236,284.6c0.1-1.2-0.8-2.3-2-2.4s-2.3,0.8-2.4,2c-0.1,1.2,0.8,2.3,2,2.4
		C234.8,286.6,235.9,285.7,236,284.6z M235.4,288.4c-0.1,1.1,0.7,2.1,1.8,2.2s2.1-0.7,2.2-1.8c0.1-1.1-0.7-2.1-1.8-2.2
		S235.5,287.4,235.4,288.4z M239.3,292.8c-0.1,1,0.6,1.9,1.6,2s1.9-0.6,2-1.6s-0.6-1.9-1.6-2C240.2,291.1,239.4,291.8,239.3,292.8z
		 M243.9,285.3c0.1-1.2-0.8-2.3-2-2.4s-2.3,0.8-2.4,2c-0.1,1.2,0.8,2.3,2,2.4C242.8,287.3,243.8,286.4,243.9,285.3z M243.4,289.1
		c-0.1,1.1,0.7,2.1,1.8,2.2c1.1,0.1,2.1-0.7,2.2-1.8c0.1-1.1-0.7-2.1-1.8-2.2C244.5,287.3,243.5,288.1,243.4,289.1z M247.2,293.5
		c-0.1,1,0.6,1.9,1.6,2s1.9-0.6,2-1.6s-0.6-1.9-1.6-2S247.3,292.5,247.2,293.5z M251.9,286c0.1-1.2-0.8-2.3-2-2.4s-2.3,0.8-2.4,2
		s0.8,2.3,2,2.4C250.8,288,251.8,287.1,251.9,286z M251.4,289.8c-0.1,1.1,0.7,2.1,1.8,2.2c1.1,0.1,2.1-0.7,2.2-1.8
		c0.1-1.1-0.7-2.1-1.8-2.2C252.5,288,251.5,288.8,251.4,289.8z M255.2,294.2c-0.1,1,0.6,1.9,1.6,2s1.9-0.6,2-1.6s-0.6-1.9-1.6-2
		C256.2,292.5,255.3,293.2,255.2,294.2L255.2,294.2z M259.9,286.7c0.1-1.2-0.8-2.3-2-2.4s-2.3,0.8-2.4,2s0.8,2.3,2,2.4
		C258.7,288.7,259.8,287.8,259.9,286.7L259.9,286.7z M259.3,290.5c-0.1,1.1,0.7,2.1,1.8,2.2c1.1,0.1,2.1-0.7,2.2-1.8
		c0.1-1.1-0.7-2.1-1.8-2.2C260.4,288.7,259.5,289.5,259.3,290.5z M262.2,280.5c-1.3-0.1-2.5,0.9-2.6,2.2c-0.1,1.3,0.9,2.5,2.2,2.6
		c1.3,0.1,2.5-0.9,2.6-2.2C264.5,281.7,263.6,280.6,262.2,280.5z M255.8,278.3c-0.1,1.4,0.9,2.7,2.4,2.8c1.4,0.1,2.7-0.9,2.8-2.4
		c0.1-1.4-0.9-2.7-2.4-2.8C257.2,275.8,255.9,276.9,255.8,278.3L255.8,278.3z M254.3,279.8c-1.3-0.1-2.5,0.9-2.6,2.2
		c-0.1,1.3,0.9,2.5,2.2,2.6c1.3,0.1,2.5-0.9,2.6-2.2C256.6,281,255.6,279.9,254.3,279.8z M247.8,277.6c-0.1,1.4,0.9,2.7,2.4,2.8
		c1.4,0.1,2.7-0.9,2.8-2.4c0.1-1.4-0.9-2.7-2.4-2.8C249.2,275.1,248,276.2,247.8,277.6z M246.3,279.1c-1.3-0.1-2.5,0.9-2.6,2.2
		c-0.1,1.3,0.9,2.5,2.2,2.6c1.3,0.1,2.5-0.9,2.6-2.2C248.6,280.3,247.6,279.2,246.3,279.1z M239.9,276.9c-0.1,1.4,0.9,2.7,2.4,2.8
		c1.4,0.1,2.7-0.9,2.8-2.4c0.1-1.4-0.9-2.7-2.4-2.8C241.3,274.4,240,275.5,239.9,276.9z M238.3,278.4c-1.3-0.1-2.5,0.9-2.6,2.2
		c-0.1,1.3,0.9,2.5,2.2,2.6s2.5-0.9,2.6-2.2C240.6,279.6,239.7,278.5,238.3,278.4z M231.9,276.2c-0.1,1.4,0.9,2.7,2.4,2.8
		c1.4,0.1,2.7-0.9,2.8-2.4c0.1-1.4-0.9-2.7-2.4-2.8C233.3,273.7,232,274.8,231.9,276.2z M230.4,277.7c-1.3-0.1-2.5,0.9-2.6,2.2
		c-0.1,1.3,0.9,2.5,2.2,2.6s2.5-0.9,2.6-2.2C232.7,278.9,231.7,277.8,230.4,277.7z M224,275.5c-0.1,1.4,0.9,2.7,2.4,2.8
		c1.4,0.1,2.7-0.9,2.8-2.4c0.1-1.4-0.9-2.7-2.4-2.8C225.3,273,224.1,274.1,224,275.5z M222.1,281.7c1.3,0.1,2.5-0.9,2.6-2.2
		c0.1-1.3-0.9-2.5-2.2-2.6s-2.5,0.9-2.6,2.2C219.8,280.5,220.8,281.6,222.1,281.7z M223.6,287.5c0.1-1.1-0.7-2.1-1.8-2.2
		s-2.1,0.7-2.2,1.8c-0.1,1.1,0.7,2.1,1.8,2.2S223.5,288.6,223.6,287.5z M223.7,315.5c0-0.3-0.2-0.6-0.5-0.7c-0.3,0-0.6,0.2-0.7,0.5
		c0,0.3,0.2,0.6,0.5,0.7S223.7,315.9,223.7,315.5z M224.8,307.6c0-0.6-0.4-1-0.9-1.1c-0.6,0-1,0.4-1.1,0.9s0.4,1,0.9,1.1
		C224.3,308.5,224.8,308.1,224.8,307.6z M225.9,299.7c0.1-0.8-0.5-1.5-1.3-1.5c-0.8-0.1-1.5,0.5-1.5,1.3c-0.1,0.8,0.5,1.5,1.3,1.5
		S225.9,300.4,225.9,299.7z M227.2,319.8c0-0.2-0.1-0.4-0.4-0.4c-0.2,0-0.4,0.1-0.4,0.4c0,0.2,0.1,0.4,0.4,0.4
		S227.1,320.1,227.2,319.8z M228.3,311.9c0-0.4-0.3-0.8-0.7-0.9c-0.4,0-0.8,0.3-0.9,0.7c0,0.4,0.3,0.8,0.7,0.9
		S228.2,312.3,228.3,311.9z M229.4,304c0.1-0.7-0.4-1.2-1.1-1.3s-1.2,0.4-1.3,1.1s0.4,1.2,1.1,1.3
		C228.7,305.1,229.3,304.6,229.4,304z M230.5,296c0.1-0.9-0.6-1.7-1.5-1.7s-1.7,0.6-1.7,1.5s0.6,1.7,1.5,1.7S230.4,296.9,230.5,296z
		 M230.6,324.1c0-0.1-0.1-0.2-0.2-0.2s-0.2,0.1-0.2,0.2s0.1,0.2,0.2,0.2C230.5,324.2,230.6,324.2,230.6,324.1z M231.7,316.2
		c0-0.3-0.2-0.6-0.5-0.7c-0.3,0-0.6,0.2-0.7,0.5c0,0.3,0.2,0.6,0.5,0.7C231.4,316.8,231.7,316.6,231.7,316.2z M232.8,308.3
		c0-0.6-0.4-1-0.9-1.1c-0.6,0-1,0.4-1.1,0.9s0.4,1,0.9,1.1C232.3,309.2,232.8,308.8,232.8,308.3z M233.9,300.4
		c0.1-0.8-0.5-1.5-1.3-1.5c-0.8-0.1-1.5,0.5-1.5,1.3c-0.1,0.8,0.5,1.5,1.3,1.5C233.1,301.7,233.8,301.1,233.9,300.4z M235.1,320.4
		c0-0.2-0.1-0.4-0.4-0.4s-0.4,0.1-0.4,0.4s0.1,0.4,0.4,0.4C234.9,320.8,235.1,320.7,235.1,320.4z M236.2,312.6
		c0-0.4-0.3-0.8-0.7-0.9s-0.8,0.3-0.9,0.7c0,0.4,0.3,0.8,0.7,0.9C235.8,313.4,236.2,313,236.2,312.6z M237.3,304.7
		c0.1-0.7-0.4-1.2-1.1-1.3s-1.2,0.4-1.3,1.1s0.4,1.2,1.1,1.3S237.3,305.3,237.3,304.7z M238.4,296.7c0.1-0.9-0.6-1.7-1.5-1.7
		s-1.7,0.6-1.7,1.5s0.6,1.7,1.5,1.7S238.3,297.6,238.4,296.7z M238.6,324.8c0-0.1-0.1-0.2-0.2-0.2s-0.2,0.1-0.2,0.2s0.1,0.2,0.2,0.2
		C238.5,324.9,238.6,324.9,238.6,324.8z M239.7,316.8c0-0.3-0.2-0.6-0.5-0.7c-0.3,0-0.6,0.2-0.7,0.5s0.2,0.6,0.5,0.7
		S239.6,317.1,239.7,316.8z M240.8,309c0-0.6-0.4-1-0.9-1.1s-1,0.4-1.1,0.9s0.4,1,0.9,1.1C240.2,309.9,240.7,309.5,240.8,309z
		 M241.9,301.1c0.1-0.8-0.5-1.5-1.3-1.5c-0.8-0.1-1.5,0.5-1.5,1.3c-0.1,0.8,0.5,1.5,1.3,1.5C241.1,302.4,241.8,301.8,241.9,301.1z
		 M243.1,321.1c0-0.2-0.1-0.4-0.4-0.4s-0.4,0.1-0.4,0.4c0,0.2,0.1,0.4,0.4,0.4S243.1,321.4,243.1,321.1z M244.2,313.2
		c0-0.4-0.3-0.8-0.7-0.9c-0.4,0-0.8,0.3-0.9,0.7c0,0.4,0.3,0.8,0.7,0.9C243.8,314,244.2,313.6,244.2,313.2z M245.3,305.4
		c0.1-0.7-0.4-1.2-1.1-1.3c-0.7-0.1-1.2,0.4-1.3,1.1s0.4,1.2,1.1,1.3S245.2,306,245.3,305.4z M246.4,297.4c0.1-0.9-0.6-1.7-1.5-1.7
		s-1.7,0.6-1.7,1.5s0.6,1.7,1.5,1.7C245.5,299,246.3,298.3,246.4,297.4z M246.6,325.5c0-0.1-0.1-0.2-0.2-0.2s-0.2,0.1-0.2,0.2
		s0.1,0.2,0.2,0.2C246.4,325.6,246.5,325.6,246.6,325.5z M247.6,317.5c0-0.3-0.2-0.6-0.5-0.7s-0.6,0.2-0.7,0.5
		c0,0.3,0.2,0.6,0.5,0.7C247.3,318.1,247.6,317.8,247.6,317.5z M248.7,309.6c0-0.6-0.4-1-0.9-1.1s-1,0.4-1.1,0.9s0.4,1,0.9,1.1
		C248.2,310.5,248.7,310.1,248.7,309.6z M249.8,301.7c0.1-0.8-0.5-1.5-1.3-1.5c-0.8-0.1-1.5,0.5-1.5,1.3c-0.1,0.8,0.5,1.5,1.3,1.5
		S249.8,302.4,249.8,301.7z M251.1,321.8c0-0.2-0.1-0.4-0.4-0.4c-0.2,0-0.4,0.1-0.4,0.4s0.1,0.4,0.4,0.4
		C250.9,322.2,251.1,322.1,251.1,321.8z M252.2,313.9c0-0.4-0.3-0.8-0.7-0.9c-0.4,0-0.8,0.3-0.9,0.7c0,0.4,0.3,0.8,0.7,0.9
		C251.8,314.7,252.1,314.3,252.2,313.9z M253.3,306c0.1-0.7-0.4-1.2-1.1-1.3c-0.7-0.1-1.2,0.4-1.3,1.1s0.4,1.2,1.1,1.3
		S253.2,306.6,253.3,306z M254.4,298c0.1-0.9-0.6-1.7-1.5-1.7c-0.9-0.1-1.7,0.6-1.7,1.5c-0.1,0.9,0.6,1.7,1.5,1.7
		C253.5,299.6,254.3,298.9,254.4,298z M254.5,326.1c0-0.1-0.1-0.2-0.2-0.2s-0.2,0.1-0.2,0.2s0.1,0.2,0.2,0.2
		S254.5,326.2,254.5,326.1z M255.6,318.2c0-0.3-0.2-0.6-0.5-0.7s-0.6,0.2-0.7,0.5c0,0.3,0.2,0.6,0.5,0.7
		C255.3,318.8,255.6,318.5,255.6,318.2z M256.7,310.3c0-0.6-0.4-1-0.9-1.1s-1,0.4-1.1,0.9s0.4,1,0.9,1.1
		C256.2,311.2,256.7,310.8,256.7,310.3z M257.8,302.4c0.1-0.8-0.5-1.5-1.3-1.5c-0.8-0.1-1.5,0.5-1.5,1.3c-0.1,0.8,0.5,1.5,1.3,1.5
		C257,303.7,257.7,303.1,257.8,302.4z M259.1,322.5c0-0.2-0.1-0.4-0.4-0.4s-0.4,0.1-0.4,0.4c0,0.2,0.1,0.4,0.4,0.4
		S259,322.7,259.1,322.5z M260.1,314.6c0-0.4-0.3-0.8-0.7-0.9s-0.8,0.3-0.9,0.7c0,0.4,0.3,0.8,0.7,0.9
		C259.7,315.3,260.1,315,260.1,314.6z M261.2,306.7c0.1-0.7-0.4-1.2-1.1-1.3s-1.2,0.4-1.3,1.1s0.4,1.2,1.1,1.3
		S261.2,307.3,261.2,306.7z M262.3,298.7c0.1-0.9-0.6-1.7-1.5-1.7c-0.9-0.1-1.7,0.6-1.7,1.5c-0.1,0.9,0.6,1.7,1.5,1.7
		S262.3,299.6,262.3,298.7z M262.5,326.7c0-0.1-0.1-0.2-0.2-0.2s-0.2,0.1-0.2,0.2s0.1,0.2,0.2,0.2S262.5,326.8,262.5,326.7z
		 M263.6,318.8c0-0.3-0.2-0.6-0.5-0.7c-0.3,0-0.6,0.2-0.7,0.5c0,0.3,0.2,0.6,0.5,0.7C263.3,319.4,263.6,319.1,263.6,318.8z
		 M264.7,311c0-0.6-0.4-1-0.9-1.1s-1,0.4-1.1,0.9s0.4,1,0.9,1.1C264.1,311.9,264.6,311.5,264.7,311z M265.8,303
		c0.1-0.8-0.5-1.5-1.3-1.5c-0.8-0.1-1.5,0.5-1.5,1.3c-0.1,0.8,0.5,1.5,1.3,1.5C265,304.4,265.7,303.8,265.8,303z M267,323.1
		c0-0.2-0.1-0.4-0.4-0.4s-0.4,0.1-0.4,0.4c0,0.2,0.1,0.4,0.4,0.4S267,323.3,267,323.1z M268.1,315.2c0-0.4-0.3-0.8-0.7-0.9
		c-0.4,0-0.8,0.3-0.9,0.7c0,0.4,0.3,0.8,0.7,0.9C267.7,315.9,268.1,315.6,268.1,315.2z M269.2,307.4c0.1-0.7-0.4-1.2-1.1-1.3
		c-0.7-0.1-1.2,0.4-1.3,1.1s0.4,1.2,1.1,1.3C268.6,308.5,269.1,308,269.2,307.4z M270.5,327.4c0-0.1-0.1-0.2-0.2-0.2
		s-0.2,0.1-0.2,0.2s0.1,0.2,0.2,0.2C270.3,327.6,270.5,327.5,270.5,327.4z M271.6,319.5c0-0.3-0.2-0.6-0.5-0.7
		c-0.3,0-0.6,0.2-0.7,0.5c0,0.3,0.2,0.6,0.5,0.7S271.5,319.8,271.6,319.5z M485.9,318.7c-0.5-0.4-1.3-0.2-1.7,0.3
		c-0.4,0.5-0.2,1.3,0.3,1.7c0.5,0.4,1.3,0.2,1.7-0.3C486.6,319.8,486.4,319.1,485.9,318.7z M483.4,315.3c0.6,0.5,1.5,0.3,2-0.3
		c0.5-0.6,0.3-1.5-0.3-2c-0.6-0.5-1.5-0.3-2,0.3C482.6,313.9,482.8,314.8,483.4,315.3z M481.3,325.3c-0.5-0.4-1.3-0.2-1.7,0.3
		c-0.4,0.5-0.2,1.3,0.3,1.7c0.5,0.4,1.3,0.2,1.7-0.3C482,326.4,481.8,325.6,481.3,325.3z M480.4,319.5c-0.6-0.5-1.5-0.3-2,0.3
		c-0.5,0.6-0.3,1.5,0.3,2c0.6,0.5,1.5,0.3,2-0.3C481.2,320.8,481.1,320,480.4,319.5z M479.6,313.8c-0.7-0.5-1.7-0.3-2.2,0.4
		c-0.5,0.7-0.3,1.7,0.4,2.2c0.7,0.5,1.7,0.3,2.2-0.4C480.5,315.3,480.3,314.3,479.6,313.8z M456.2,326.4c1,0.7,2.4,0.5,3.1-0.5
		s0.5-2.4-0.5-3.1s-2.4-0.5-3.1,0.5C454.9,324.3,455.2,325.7,456.2,326.4z M458.4,320.4c0.8-1.1,0.5-2.6-0.6-3.3
		c-1.1-0.8-2.6-0.5-3.3,0.6c-0.8,1.1-0.5,2.6,0.6,3.3C456.2,321.8,457.7,321.5,458.4,320.4z M459.7,314.4c1.1,0.8,2.6,0.5,3.3-0.6
		c0.8-1.1,0.5-2.6-0.6-3.3c-1.1-0.8-2.6-0.5-3.3,0.6C458.3,312.3,458.6,313.7,459.7,314.4z M460.8,319.8c1,0.7,2.4,0.5,3.1-0.5
		s0.5-2.4-0.5-3.1s-2.4-0.5-3.1,0.5C459.5,317.8,459.8,319.1,460.8,319.8z M461.9,325.3c0.9,0.6,2.2,0.4,2.8-0.5s0.4-2.2-0.5-2.8
		s-2.2-0.4-2.8,0.5C460.7,323.4,461,324.6,461.9,325.3z M465.4,313.3c1,0.7,2.4,0.5,3.1-0.5s0.5-2.4-0.5-3.1s-2.4-0.5-3.1,0.5
		C464.1,311.3,464.4,312.6,465.4,313.3z M463,330.7c0.8,0.6,1.9,0.4,2.5-0.4s0.4-1.9-0.4-2.5s-1.9-0.4-2.5,0.4
		C461.9,329,462.1,330.1,463,330.7z M466.4,318.7c0.9,0.6,2.2,0.4,2.8-0.5s0.4-2.2-0.5-2.8s-2.2-0.4-2.8,0.5
		S465.5,318.1,466.4,318.7z M467.5,324.1c0.8,0.6,1.9,0.4,2.5-0.4s0.4-1.9-0.4-2.5s-1.9-0.4-2.5,0.4S466.7,323.5,467.5,324.1z
		 M468.6,329.5c0.7,0.5,1.7,0.3,2.2-0.4c0.5-0.7,0.3-1.7-0.4-2.2c-0.7-0.5-1.7-0.3-2.2,0.4C467.7,328,467.9,329,468.6,329.5z
		 M469.7,334.9c0.6,0.5,1.5,0.3,2-0.3c0.5-0.6,0.3-1.5-0.3-2c-0.6-0.5-1.5-0.3-2,0.3C468.9,333.6,469.1,334.5,469.7,334.9z
		 M470.8,340.3c0.5,0.4,1.3,0.2,1.7-0.3c0.4-0.5,0.2-1.3-0.3-1.7c-0.5-0.4-1.3-0.2-1.7,0.3C470.2,339.2,470.3,340,470.8,340.3z
		 M473.2,323c0.7,0.5,1.7,0.3,2.2-0.4c0.5-0.7,0.3-1.7-0.4-2.2c-0.7-0.5-1.7-0.3-2.2,0.4C472.3,321.5,472.5,322.5,473.2,323z
		 M474.3,328.4c0.6,0.5,1.5,0.3,2-0.3c0.5-0.6,0.3-1.5-0.3-2c-0.6-0.5-1.5-0.3-2,0.3C473.5,327.1,473.7,327.9,474.3,328.4z
		 M475.4,333.8c0.5,0.4,1.3,0.2,1.7-0.3c0.4-0.5,0.2-1.3-0.3-1.7c-0.5-0.4-1.3-0.2-1.7,0.3S474.9,333.4,475.4,333.8z M478.8,308.1
		c-0.8-0.6-1.9-0.4-2.5,0.4s-0.4,1.9,0.4,2.5s1.9,0.4,2.5-0.4C479.8,309.7,479.6,308.6,478.8,308.1z M475.6,305.7
		c0.9,0.6,2.2,0.4,2.8-0.5s0.4-2.2-0.5-2.8s-2.2-0.4-2.8,0.5S474.7,305.1,475.6,305.7z M474.2,314.6c-0.8-0.6-1.9-0.4-2.5,0.4
		s-0.4,1.9,0.4,2.5s1.9,0.4,2.5-0.4S475,315.2,474.2,314.6z M473.3,308.9c-0.9-0.6-2.2-0.4-2.8,0.5s-0.4,2.2,0.5,2.8
		s2.2,0.4,2.8-0.5C474.5,310.8,474.2,309.5,473.3,308.9z M472.5,303.2c-1-0.7-2.4-0.5-3.1,0.5s-0.5,2.4,0.5,3.1s2.4,0.5,3.1-0.5
		C473.7,305.3,473.5,303.9,472.5,303.2z M468.8,301.4c1.1,0.8,2.6,0.5,3.3-0.6c0.8-1.1,0.5-2.6-0.6-3.3c-1.1-0.8-2.6-0.5-3.3,0.6
		S467.8,300.7,468.8,301.4z M467,304.1c-1.1-0.8-2.6-0.5-3.3,0.6c-0.8,1.1-0.5,2.6,0.6,3.3c1.1,0.8,2.6,0.5,3.3-0.6
		C468.4,306.3,468.1,304.8,467,304.1z M463.2,302.6c1.2,0.8,2.8,0.5,3.6-0.6c0.8-1.2,0.5-2.8-0.6-3.6s-2.8-0.5-3.6,0.6
		S462,301.8,463.2,302.6z M458.6,309c1.2,0.8,2.8,0.5,3.6-0.6s0.5-2.8-0.6-3.6c-1.2-0.8-2.8-0.5-3.6,0.6
		C457.1,306.7,457.4,308.2,458.6,309z M454,315.6c1.2,0.8,2.8,0.5,3.6-0.6s0.5-2.8-0.6-3.6c-1.2-0.8-2.8-0.5-3.6,0.6
		C452.5,313.2,452.8,314.8,454,315.6z M449.4,322.1c1.2,0.8,2.8,0.5,3.6-0.6c0.8-1.2,0.5-2.8-0.6-3.6s-2.8-0.5-3.6,0.6
		S448.2,321.3,449.4,322.1z M444.8,328.7c1.2,0.8,2.8,0.5,3.6-0.6s0.5-2.8-0.6-3.6s-2.8-0.5-3.6,0.6
		C443.4,326.3,443.6,327.9,444.8,328.7z M445.9,334.1c1.1,0.8,2.6,0.5,3.3-0.6c0.8-1.1,0.5-2.6-0.6-3.3c-1.1-0.8-2.6-0.5-3.3,0.6
		C444.6,331.8,444.8,333.3,445.9,334.1z M449.5,335.9c-1-0.7-2.4-0.5-3.1,0.5s-0.5,2.4,0.5,3.1s2.4,0.5,3.1-0.5
		C450.8,337.9,450.5,336.6,449.5,335.9z M450.5,327.6c1.1,0.8,2.6,0.5,3.3-0.6c0.8-1.1,0.5-2.6-0.6-3.3c-1.1-0.8-2.6-0.5-3.3,0.6
		C449.1,325.3,449.4,326.8,450.5,327.6z M451.6,333c1,0.7,2.4,0.5,3.1-0.5s0.5-2.4-0.5-3.1s-2.4-0.5-3.1,0.5
		C450.3,330.9,450.6,332.3,451.6,333z M452.7,338.3c0.9,0.6,2.2,0.4,2.8-0.5s0.4-2.2-0.5-2.8s-2.2-0.4-2.8,0.5
		S451.8,337.6,452.7,338.3z M453.8,343.7c0.8,0.6,1.9,0.4,2.5-0.4s0.4-1.9-0.4-2.5s-1.9-0.4-2.5,0.4S453,343.1,453.8,343.7z
		 M456.7,346.5c-0.7-0.5-1.7-0.3-2.2,0.4c-0.5,0.7-0.3,1.7,0.4,2.2c0.7,0.5,1.7,0.3,2.2-0.4C457.6,348,457.4,347,456.7,346.5z
		 M460.1,331.3c0.6-0.9,0.4-2.2-0.5-2.8s-2.2-0.4-2.8,0.5s-0.4,2.2,0.5,2.8S459.4,332.2,460.1,331.3z M458.4,337.1
		c0.8,0.6,1.9,0.4,2.5-0.4s0.4-1.9-0.4-2.5s-1.9-0.4-2.5,0.4S457.6,336.6,458.4,337.1z M459.5,342.5c0.7,0.5,1.7,0.3,2.2-0.4
		c0.5-0.7,0.3-1.7-0.4-2.2c-0.7-0.5-1.7-0.3-2.2,0.4C458.6,341,458.7,342,459.5,342.5z M460.6,347.9c0.6,0.5,1.5,0.3,2-0.3
		c0.5-0.6,0.3-1.5-0.3-2c-0.6-0.5-1.5-0.3-2,0.3C459.8,346.6,459.9,347.5,460.6,347.9z M461.7,353.3c0.5,0.4,1.3,0.2,1.7-0.3
		c0.4-0.5,0.2-1.3-0.3-1.7c-0.5-0.4-1.3-0.2-1.7,0.3C461,352.2,461.1,353,461.7,353.3z M463.9,357.1c-0.5-0.3-1.1-0.2-1.4,0.2
		c-0.3,0.5-0.2,1.1,0.2,1.4c0.5,0.3,1.1,0.2,1.4-0.2C464.5,358.1,464.4,357.4,463.9,357.1z M466.3,335.6c0.5-0.7,0.3-1.7-0.4-2.2
		c-0.7-0.5-1.7-0.3-2.2,0.4c-0.5,0.7-0.3,1.7,0.4,2.2C464.8,336.5,465.8,336.3,466.3,335.6z M465.1,341.4c0.6,0.5,1.5,0.3,2-0.3
		c0.5-0.6,0.3-1.5-0.3-2c-0.6-0.5-1.5-0.3-2,0.3C464.4,340.1,464.5,340.9,465.1,341.4z M466.3,346.8c0.5,0.4,1.3,0.2,1.7-0.3
		c0.4-0.5,0.2-1.3-0.3-1.7c-0.5-0.4-1.3-0.2-1.7,0.3C465.6,345.7,465.7,346.4,466.3,346.8z M468.7,351.9c0.3-0.5,0.2-1.1-0.2-1.4
		c-0.5-0.3-1.1-0.2-1.4,0.2c-0.3,0.5-0.2,1.1,0.2,1.4S468.4,352.4,468.7,351.9z M469.6,357.4c0.2-0.4,0.2-0.9-0.2-1.1
		s-0.9-0.2-1.1,0.2s-0.2,0.9,0.2,1.1S469.3,357.8,469.6,357.4z M470.2,362c-0.3-0.2-0.7-0.1-0.8,0.1c-0.2,0.3-0.1,0.7,0.2,0.8
		c0.3,0.2,0.6,0.1,0.8-0.2C470.6,362.6,470.5,362.2,470.2,362L470.2,362z M471.1,367.7c-0.2-0.1-0.4-0.1-0.6,0.1s-0.1,0.4,0.1,0.6
		s0.4,0.1,0.6-0.1S471.3,367.8,471.1,367.7z M472,373.4c-0.1-0.1-0.2,0-0.3,0c-0.1,0.1,0,0.2,0,0.3c0.1,0.1,0.2,0,0.3,0
		C472.1,373.6,472,373.5,472,373.4z M473.3,345.4c0.3-0.5,0.2-1.1-0.2-1.4c-0.5-0.3-1.1-0.2-1.4,0.2c-0.3,0.5-0.2,1.1,0.2,1.4
		C472.4,346,473,345.8,473.3,345.4z M474.2,350.8c0.2-0.4,0.2-0.9-0.2-1.1s-0.9-0.2-1.1,0.2s-0.2,0.9,0.2,1.1
		S473.9,351.2,474.2,350.8z M475,356.3c0.2-0.3,0.1-0.6-0.1-0.8c-0.3-0.2-0.7-0.1-0.8,0.1c-0.2,0.3-0.1,0.7,0.2,0.8
		C474.4,356.7,474.8,356.6,475,356.3L475,356.3z M475.7,361.1c-0.2-0.1-0.4-0.1-0.6,0.1c-0.1,0.2-0.1,0.4,0.1,0.6
		c0.2,0.1,0.4,0.1,0.6-0.1C475.9,361.5,475.9,361.2,475.7,361.1z M476.6,366.8c-0.1-0.1-0.2,0-0.3,0c-0.1,0.1,0,0.2,0,0.3
		c0.1,0.1,0.2,0,0.3,0C476.7,367,476.6,366.9,476.6,366.8z M477.9,338.8c0.3-0.5,0.2-1.1-0.2-1.4c-0.5-0.3-1.1-0.2-1.4,0.2
		c-0.3,0.5-0.2,1.1,0.2,1.4C477,339.4,477.6,339.3,477.9,338.8z M478.7,344.3c0.2-0.4,0.2-0.9-0.2-1.1s-0.9-0.2-1.1,0.2
		s-0.2,0.9,0.2,1.1S478.5,344.7,478.7,344.3z M479.6,349.8c0.2-0.3,0.1-0.7-0.2-0.8c-0.3-0.2-0.6-0.1-0.8,0.2
		c-0.2,0.3-0.1,0.6,0.1,0.8C479,350.1,479.4,350,479.6,349.8z M480.3,354.7c-0.2-0.1-0.4-0.1-0.6,0.1s-0.1,0.4,0.1,0.6
		s0.4,0.1,0.6-0.1C480.5,355,480.5,354.8,480.3,354.7z M481.1,360.3c-0.1-0.1-0.2,0-0.3,0c-0.1,0.1,0,0.2,0,0.3c0.1,0.1,0.2,0,0.3,0
		C481.3,360.5,481.2,360.4,481.1,360.3z M482.5,332.3c0.3-0.5,0.2-1.1-0.2-1.4c-0.5-0.3-1.1-0.2-1.4,0.2c-0.3,0.5-0.2,1.1,0.2,1.4
		S482.2,332.7,482.5,332.3z M483.3,337.8c0.2-0.4,0.2-0.9-0.2-1.1s-0.9-0.2-1.1,0.2s-0.2,0.9,0.2,1.1S483.1,338.1,483.3,337.8z
		 M484.2,343.2c0.2-0.3,0.1-0.7-0.2-0.8c-0.3-0.2-0.6-0.1-0.8,0.2c-0.2,0.3-0.1,0.6,0.1,0.8C483.6,343.5,484,343.5,484.2,343.2z
		 M484.9,348.1c-0.2-0.1-0.4-0.1-0.6,0.1c-0.1,0.2-0.1,0.4,0.1,0.6s0.4,0.1,0.6-0.1C485.1,348.5,485,348.2,484.9,348.1z
		 M485.7,353.7c-0.1-0.1-0.2,0-0.3,0c-0.1,0.1,0,0.2,0,0.3c0.1,0.1,0.2,0,0.3,0C485.8,353.9,485.8,353.8,485.7,353.7z M487.1,325.7
		c0.3-0.5,0.2-1.1-0.2-1.4c-0.5-0.3-1.1-0.2-1.4,0.2c-0.3,0.5-0.2,1.1,0.2,1.4C486.2,326.3,486.8,326.2,487.1,325.7z M487.9,331.2
		c0.2-0.4,0.2-0.9-0.2-1.1s-0.9-0.2-1.1,0.2s-0.2,0.9,0.2,1.1S487.7,331.5,487.9,331.2z M488.7,336.7c0.2-0.3,0.1-0.6-0.1-0.8
		c-0.3-0.2-0.7-0.1-0.8,0.1c-0.2,0.3-0.1,0.7,0.2,0.8C488.2,337,488.5,336.9,488.7,336.7L488.7,336.7z M489.4,341.5
		c-0.2-0.1-0.4-0.1-0.6,0.1s-0.1,0.4,0.1,0.6c0.2,0.1,0.4,0.1,0.6-0.1S489.6,341.7,489.4,341.5z M490.3,347.3c-0.1-0.1-0.2,0-0.3,0
		c-0.1,0.1,0,0.2,0,0.3c0.1,0.1,0.2,0,0.3,0C490.4,347.5,490.4,347.3,490.3,347.3z M491.7,319.3c0.3-0.5,0.2-1.1-0.2-1.4
		c-0.5-0.3-1.1-0.2-1.4,0.2s-0.2,1.1,0.2,1.4C490.8,319.8,491.4,319.7,491.7,319.3z M492.5,324.6c0.2-0.4,0.2-0.9-0.2-1.1
		s-0.9-0.2-1.1,0.2s-0.2,0.9,0.2,1.1S492.3,325,492.5,324.6z M493.3,330.1c0.2-0.3,0.1-0.7-0.2-0.8c-0.3-0.2-0.6-0.1-0.8,0.2
		c-0.2,0.3-0.1,0.6,0.1,0.8C492.8,330.4,493.1,330.4,493.3,330.1z M494,335c-0.2-0.1-0.4-0.1-0.6,0.1s-0.1,0.4,0.1,0.6
		s0.4,0.1,0.6-0.1S494.2,335.1,494,335z M494.9,340.7c-0.1-0.1-0.2,0-0.3,0c-0.1,0.1,0,0.2,0,0.3c0.1,0.1,0.2,0,0.3,0
		C495,340.9,495,340.8,494.9,340.7z M498.6,328.4c-0.2-0.1-0.4-0.1-0.6,0.1s-0.1,0.4,0.1,0.6c0.2,0.1,0.4,0.1,0.6-0.1
		S498.8,328.6,498.6,328.4z M499.5,334.2c-0.1-0.1-0.2,0-0.3,0c-0.1,0.1,0,0.2,0,0.3c0.1,0.1,0.2,0,0.3,0
		C499.6,334.4,499.6,334.2,499.5,334.2z M460.3,287.5c0.1-0.2,0.3-0.4,0.5-0.5c-0.2-0.2-0.4-0.3-0.6-0.5c-0.2,0.5-0.4,1.1-0.6,1.6
		c0.1,0.1,0.2,0.3,0.3,0.4C460,288.1,460.1,287.8,460.3,287.5L460.3,287.5z M452.3,306.3c0.3-0.4,0.7-0.8,1.2-1
		c-0.4,0-0.8-0.1-1.2-0.3c-0.3,0.7-0.6,1.3-0.9,2c0.2,0.2,0.3,0.5,0.4,0.7C451.8,307.3,452,306.7,452.3,306.3L452.3,306.3z
		 M456.4,301.2c0-0.5,0.2-1,0.5-1.5c0.3-0.4,0.7-0.8,1.2-1c-0.6,0-1.1-0.2-1.6-0.5c-0.3-0.2-0.5-0.5-0.7-0.8
		c-0.1,0.4-0.2,0.8-0.5,1.1v0.1c-0.1,0.3-0.3,0.6-0.4,0.9c0.2,0.1,0.4,0.2,0.5,0.3C455.8,300.2,456.2,300.7,456.4,301.2z M461,294.7
		c0-0.5,0.2-1,0.5-1.5s0.7-0.8,1.2-1c-0.6,0-1.1-0.2-1.6-0.5c-0.3-0.2-0.5-0.5-0.7-0.8c-0.1,0.4-0.2,0.8-0.5,1.1
		c-0.2,0.3-0.5,0.6-0.9,0.8c0.3,0.1,0.7,0.2,1,0.4C460.4,293.7,460.8,294.1,461,294.7z"/>
	<path class="st0" d="M403.3,290.6c0.3,0.2,0.6,0.3,1,0.4c-0.3,0.2-0.6,0.5-0.9,0.8c-0.2,0.3-0.4,0.7-0.5,1.1
		c-0.2-0.3-0.4-0.5-0.7-0.8c-0.5-0.3-1.1-0.5-1.6-0.5c0.5-0.2,0.9-0.5,1.2-1c0.3-0.4,0.5-1,0.5-1.5
		C402.4,289.8,402.8,290.2,403.3,290.6z M397.6,295.8c0,0.5-0.2,1-0.5,1.4c-0.3,0.5-0.7,0.8-1.2,1c0.6,0,1.1,0.2,1.6,0.5
		c0.3,0.2,0.5,0.5,0.7,0.7c0.1-0.4,0.2-0.8,0.5-1.1c0.2-0.3,0.5-0.6,0.9-0.8c-0.3-0.1-0.7-0.2-1-0.4
		C398.2,296.8,397.9,296.3,397.6,295.8L397.6,295.8z M406.8,282.7c0,0.5-0.2,1-0.5,1.5c-0.3,0.4-0.7,0.8-1.2,1
		c0.6,0,1.1,0.2,1.6,0.5l0.3,0.3c0.3-0.6,0.6-1.3,0.8-1.9l0,0C407.4,283.7,407,283.2,406.8,282.7L406.8,282.7z M398.3,302.9
		C398.3,303,398.2,303,398.3,302.9c0,0.1,0.1,0.2,0.1,0.2c0.2-0.3,0.3-0.6,0.5-0.9c-0.1-0.1-0.1-0.2-0.2-0.2
		C398.6,302.3,398.5,302.6,398.3,302.9z M417,260c0,0.1-0.1,0.2-0.1,0.4c-0.5,0.2-1,0.5-1.4,1c-0.7,1-0.6,2.3,0,3.2
		c-0.3,0.9-0.6,1.7-0.9,2.6c-1.2-0.7-2.9-0.4-3.7,0.8c-0.9,1.3-0.6,3,0.7,3.9c0.3,0.2,0.7,0.4,1.1,0.5c0,0.1-0.1,0.2-0.1,0.3
		c-0.3,0.2-0.7,0.5-0.9,0.8c-0.3,0.5-0.5,1.1-0.5,1.6c-0.2-0.5-0.5-0.9-1-1.2c-1.3-0.9-3-0.6-3.9,0.7c-0.9,1.3-0.6,3,0.7,3.9
		c0.5,0.3,1,0.5,1.5,0.5c-0.5,0.2-1,0.6-1.3,1.1s-0.5,1.1-0.5,1.6c-0.2-0.5-0.5-0.9-1-1.2c-1.3-0.9-3-0.6-3.9,0.7
		c-0.9,1.3-0.6,3,0.7,3.9c0.4,0.3,0.9,0.5,1.4,0.5c-0.5,0.2-1,0.6-1.3,1.1s-0.5,1.1-0.5,1.6c-0.2-0.5-0.5-0.9-1-1.2
		c-1.3-0.9-3-0.6-3.9,0.7c-0.9,1.3-0.6,3,0.7,3.9c0.4,0.3,1,0.5,1.5,0.5c-0.5,0.2-1,0.6-1.3,1.1s-0.5,1-0.5,1.6
		c-0.2-0.5-0.5-0.9-1-1.2c-1.3-0.9-3-0.6-3.9,0.7c-0.9,1.3-0.6,3,0.7,3.9c0.5,0.3,1,0.5,1.5,0.5c-0.5,0.2-1,0.6-1.3,1.1
		c-0.1,0.2-0.2,0.3-0.3,0.5c-0.8-0.4-1.5-0.9-2.3-1.3l0.6-0.6c0.8-1.2,0.5-2.8-0.6-3.6s-2.8-0.5-3.6,0.6c-0.3,0.4-0.4,0.9-0.5,1.4
		c-0.5-0.3-1-0.5-1.5-0.8l-0.1-0.1c-0.2-0.1-0.4-0.2-0.7-0.3c-0.8-0.4-1.6-0.8-2.4-1.2c0.9,0.3,1.9,0,2.5-0.8c0.7-1,0.5-2.4-0.5-3.1
		s-2.4-0.5-3.1,0.5s-0.5,2.3,0.5,3c-0.8-0.4-1.5-0.8-2.3-1.2c-0.1-0.5-0.4-1-0.8-1.3c-0.6-0.4-1.5-0.5-2.1-0.1
		c-1.4-0.7-2.8-1.3-4.3-2c0.5-0.7,0.3-1.7-0.4-2.2c-0.7-0.5-1.7-0.3-2.2,0.4c-0.1,0.2-0.2,0.4-0.2,0.5
		c-32-13.9-66.9-20.8-101.8-20.1c-13.9,0.3-27.7,1.8-41.5,4.7c-2.4,0.4-4.8,0.9-7.2,1.5c-41.9,9.4-84,33.1-103.3,71.7l0,0
		c-18.7,39.6,10.1,65.3,46.6,75.8c17.7,5.1,36.3,6.4,54.6,4.8c0.2,0.2,0.6,0.3,0.9,0.2l0.3-0.3c3.6-0.3,7.1-0.8,10.7-1.3l0,0
		c0.3,0.7,1.2,1,1.9,0.7c0.5-0.2,0.7-0.6,0.8-1.1c3.1-0.5,6.1-1.1,9.2-1.8c0,0.3,0,0.7,0.2,1c0.5,1,1.7,1.4,2.7,1
		c1-0.5,1.4-1.7,1-2.7c0-0.1-0.1-0.1-0.1-0.2c1.2-0.3,2.4-0.6,3.6-0.9c0.7,0.9,1.9,1.2,2.9,0.7c0.8-0.4,1.3-1.1,1.4-1.9
		c0.4-0.1,0.9-0.2,1.3-0.4c-0.9,0.7-1.2,2-0.7,3.1c0.6,1.3,2.2,1.9,3.5,1.3c1.3-0.6,1.9-2.2,1.3-3.5c-0.4-0.8-1.2-1.4-2-1.5
		c0.2-0.1,0.4-0.1,0.5-0.2c0.6,0.2,1.3,0.3,2,0.1c0.4,0.7,0.8,1.4,1.2,2.1c-1.3,0.7-1.9,2.3-1.3,3.7c0.7,1.4,2.3,2,3.7,1.4
		c0.1-0.1,0.2-0.1,0.4-0.2c0.4,0.7,0.9,1.5,1.3,2.2c-0.2,0-0.4,0.1-0.7,0.2c-1.4,0.7-2,2.3-1.4,3.7c0.7,1.4,2.3,2,3.7,1.4
		c0.4-0.2,0.8-0.5,1-0.8c0,0.1,0.1,0.1,0.1,0.2c0,0.4,0.1,0.9,0.3,1.3c0.3,0.6,0.7,1,1.1,1.3c-0.5-0.1-1,0-1.5,0.2
		c-1.4,0.7-2,2.3-1.4,3.7c0.7,1.4,2.3,2,3.7,1.4c0.5-0.2,0.9-0.6,1.2-1c-0.1,0.6,0,1.1,0.2,1.7c0.3,0.6,0.7,1,1.1,1.3
		c-0.5-0.1-1,0-1.5,0.2c-1.4,0.7-2,2.3-1.4,3.7c0.7,1.4,2.3,2,3.7,1.4c0.5-0.2,0.9-0.6,1.2-1c-0.1,0.6,0,1.1,0.2,1.7
		c0.3,0.6,0.7,1,1.1,1.3c-0.5-0.1-1,0-1.5,0.2c-1.4,0.7-2,2.3-1.4,3.7s2.3,2,3.7,1.4c0.5-0.2,0.9-0.6,1.2-1c-0.1,0.6,0,1.1,0.2,1.7
		c0.3,0.5,0.7,1,1.1,1.3c-0.5-0.1-1,0-1.5,0.2c-1.4,0.7-2,2.3-1.4,3.7c0.7,1.4,2.3,2,3.7,1.4c0.5-0.2,0.9-0.6,1.2-1
		c-0.1,0.6,0,1.2,0.2,1.7c0,0.1,0.1,0.2,0.2,0.3c-0.8,0.3-1.5,0.6-2.3,0.8v-0.1c-0.6-1.3-2.2-1.9-3.5-1.3c-1.2,0.5-1.7,1.8-1.4,3
		c-1.1,0.4-2.2,0.7-3.3,1.1c-0.6-0.6-1.6-0.8-2.4-0.4c-0.6,0.3-1.1,0.9-1.2,1.5c-3,0.9-6,1.8-9,2.6c0.2-0.4,0.2-0.9,0-1.3
		c-0.4-0.8-1.3-1.1-2.1-0.8c-0.8,0.4-1.2,1.3-0.8,2.1c0.1,0.2,0.3,0.4,0.5,0.6c-1.8,0.5-3.6,0.9-5.4,1.3c-0.3-0.4-0.9-0.5-1.4-0.3
		c-0.3,0.2-0.5,0.4-0.6,0.8c-32.1,7.4-65.4,8.9-97.7,2.7c-26.1-5.4-51.4-16.5-70.5-35.8c-23.1-22.9-33.5-56.4-26.8-88.4
		c6.3-31.4,26.6-58.3,51.1-78.1c23.5-18.9,51.1-32.3,79.9-41.1c13-4,26.1-7,39.4-9.1c16.9-2.7,34-3.9,51-3.6
		c40.2,0.6,80.1,9.2,117,25.1c0,0.4,0.1,0.8,0.5,1.1c0.5,0.4,1.2,0.2,1.6-0.2c1.7,0.8,3.4,1.5,5.1,2.3c-0.3,0.1-0.5,0.3-0.7,0.6
		c-0.5,0.7-0.3,1.7,0.4,2.2c0.7,0.5,1.7,0.3,2.2-0.4c0.3-0.4,0.4-1,0.2-1.4c2.8,1.3,5.6,2.7,8.4,4.2c0,0.7,0.3,1.3,0.9,1.8
		c0.8,0.5,1.7,0.5,2.5,0c1,0.5,2,1.1,3,1.6c-0.6,1.1-0.2,2.5,0.8,3.3C415.8,260,416.4,260.1,417,260L417,260z M221.8,463.2
		c0-0.1-0.2-0.1-0.3-0.1s-0.1,0.2-0.1,0.3s0.2,0.1,0.3,0.1S221.9,463.3,221.8,463.2z M223.9,457.8c-0.1-0.2-0.3-0.3-0.5-0.2
		c-0.2,0.1-0.3,0.3-0.2,0.5s0.3,0.3,0.5,0.2C223.9,458.3,224,458,223.9,457.8z M225.2,470.5c0-0.1-0.2-0.1-0.3-0.1s-0.1,0.2-0.1,0.3
		s0.2,0.1,0.3,0.1C225.2,470.7,225.3,470.6,225.2,470.5z M227.3,465.1c-0.1-0.2-0.3-0.3-0.5-0.2s-0.3,0.3-0.2,0.5s0.3,0.3,0.5,0.2
		S227.4,465.3,227.3,465.1z M228.2,447c-0.2-0.4-0.7-0.6-1.1-0.4c-0.4,0.2-0.6,0.7-0.4,1.1c0.2,0.4,0.7,0.6,1.1,0.4
		C228.2,447.9,228.4,447.4,228.2,447z M229.4,459.7c-0.1-0.3-0.5-0.4-0.8-0.3s-0.4,0.5-0.3,0.8c0.1,0.3,0.5,0.4,0.8,0.3
		C229.4,460.3,229.6,460,229.4,459.7z M230.7,472.3c-0.1-0.2-0.3-0.3-0.5-0.2c-0.2,0.1-0.3,0.3-0.2,0.5s0.3,0.3,0.5,0.2
		C230.7,472.8,230.8,472.5,230.7,472.3z M231.5,454.3c-0.2-0.4-0.7-0.6-1.1-0.4c-0.4,0.2-0.6,0.7-0.4,1.1s0.7,0.6,1.1,0.4
		C231.6,455.2,231.7,454.7,231.5,454.3z M232.8,466.9c-0.1-0.3-0.5-0.4-0.8-0.3s-0.4,0.5-0.3,0.8c0.1,0.3,0.5,0.4,0.8,0.3
		S233,467.2,232.8,466.9z M233.2,450.2c0.5-0.2,0.7-0.8,0.5-1.3s-0.8-0.7-1.3-0.5s-0.7,0.8-0.5,1.3S232.7,450.4,233.2,450.2z
		 M258.7,448.4c1.1-0.5,1.6-1.8,1.1-2.9s-1.8-1.6-2.9-1.1s-1.6,1.8-1.1,2.9C256.3,448.5,257.6,448.9,258.7,448.4z M257.7,450.9
		c-0.5-1-1.7-1.4-2.7-1c-1,0.5-1.4,1.7-1,2.7c0.5,1,1.7,1.4,2.7,1C257.7,453.1,258.1,451.9,257.7,450.9z M259.2,454.6
		c0.5,1.1,1.8,1.6,2.9,1.1s1.6-1.8,1.1-2.9s-1.8-1.6-2.9-1.1S258.7,453.5,259.2,454.6z M264.1,450.5c1.2-0.6,1.7-2,1.2-3.2
		s-2-1.7-3.2-1.2c-1.2,0.6-1.7,2-1.2,3.2S262.9,451.1,264.1,450.5z M261.9,440.2c-0.6-1.2-2-1.7-3.2-1.2c-1.2,0.6-1.7,2-1.2,3.2
		c0.6,1.2,2,1.7,3.2,1.2C261.9,442.7,262.5,441.4,261.9,440.2z M258.5,432.9c-0.6-1.2-2-1.7-3.2-1.2s-1.7,2-1.2,3.2
		c0.6,1.2,2,1.7,3.2,1.2C258.6,435.6,259.1,434.1,258.5,432.9z M253.5,437.3c-1.1,0.5-1.6,1.8-1.1,2.9s1.8,1.6,2.9,1.1
		s1.6-1.8,1.1-2.9C255.9,437.2,254.6,436.8,253.5,437.3z M251.6,442.8c-1,0.5-1.4,1.7-1,2.7c0.5,1,1.7,1.4,2.7,1
		c1-0.5,1.4-1.7,1-2.7C253.8,442.6,252.6,442.2,251.6,442.8z M252.2,449c-0.4-0.9-1.5-1.3-2.4-0.9s-1.3,1.5-0.9,2.4s1.5,1.3,2.4,0.9
		S252.6,449.9,252.2,449z M250.9,436.5c-0.5-1-1.7-1.4-2.7-1c-1,0.5-1.4,1.7-1,2.7c0.5,1,1.7,1.4,2.7,1
		C250.9,438.7,251.4,437.5,250.9,436.5z M246.4,441c-0.9,0.4-1.3,1.5-0.9,2.4c0.4,0.9,1.5,1.3,2.4,0.9s1.3-1.5,0.9-2.4
		S247.3,440.6,246.4,441z M244.6,446.4c-0.8,0.4-1.1,1.3-0.8,2.1c0.4,0.8,1.3,1.1,2.1,0.8c0.8-0.4,1.1-1.3,0.8-2.1
		C246.3,446.4,245.4,446,244.6,446.4z M242.7,451.9c-0.7,0.3-1,1.2-0.7,1.9c0.3,0.7,1.2,1,1.9,0.7s1-1.2,0.7-1.9
		C244.2,451.9,243.4,451.6,242.7,451.9z M243.3,440c-0.4-0.8-1.3-1.2-2.1-0.8s-1.1,1.3-0.8,2.1c0.4,0.8,1.3,1.1,2.1,0.8
		S243.7,440.8,243.3,440z M239.3,444.8c-0.7,0.3-1,1.2-0.7,1.9c0.3,0.7,1.2,1,1.9,0.7s1-1.2,0.7-1.9
		C240.9,444.7,240,444.4,239.3,444.8z M237.6,450.2c-0.6,0.3-0.9,1-0.6,1.6c0.3,0.6,1,0.9,1.6,0.6s0.9-1,0.6-1.6
		C238.9,450.1,238.2,449.9,237.6,450.2z M237.9,438.2c-0.3-0.7-1.2-1-1.9-0.7s-1,1.2-0.7,1.9c0.3,0.7,1.2,1,1.9,0.7
		C237.9,439.7,238.2,438.9,237.9,438.2z M234.2,443c-0.6,0.3-0.9,1-0.6,1.6s1,0.9,1.6,0.6s0.9-1,0.6-1.6
		C235.5,443,234.8,442.7,234.2,443z M234.9,461.6c-0.2-0.4-0.7-0.6-1.1-0.4s-0.6,0.7-0.4,1.1s0.7,0.6,1.1,0.4
		S235.1,461.9,234.9,461.6z M236.2,474.2c-0.1-0.3-0.5-0.4-0.8-0.3s-0.4,0.5-0.3,0.8s0.5,0.4,0.8,0.3
		C236.2,474.8,236.4,474.5,236.2,474.2z M236.6,457.5c0.5-0.2,0.7-0.8,0.5-1.3s-0.8-0.7-1.3-0.5s-0.7,0.8-0.5,1.3
		S236.1,457.7,236.6,457.5z M238.3,468.8c-0.2-0.4-0.7-0.6-1.1-0.4c-0.4,0.2-0.6,0.7-0.4,1.1c0.2,0.4,0.7,0.6,1.1,0.4
		C238.3,469.7,238.5,469.2,238.3,468.8z M240.3,463.4c-0.2-0.5-0.8-0.7-1.3-0.5s-0.7,0.8-0.5,1.3s0.8,0.7,1.3,0.5
		S240.6,463.9,240.3,463.4z M241.9,459.6c0.6-0.3,0.9-1,0.6-1.6c-0.3-0.6-1-0.9-1.6-0.6s-0.9,1-0.6,1.6
		C240.6,459.6,241.3,459.9,241.9,459.6z M243.7,470.6c-0.2-0.5-0.8-0.7-1.3-0.5s-0.7,0.8-0.5,1.3s0.8,0.7,1.3,0.5
		S243.9,471.1,243.7,470.6z M245.8,465.2c-0.3-0.6-1-0.9-1.6-0.6s-0.9,1-0.6,1.6c0.3,0.6,1,0.9,1.6,0.6
		C245.8,466.6,246.1,465.8,245.8,465.2z M248,459.8c-0.3-0.7-1.2-1-1.9-0.7c-0.7,0.3-1,1.2-0.7,1.9c0.3,0.7,1.2,1,1.9,0.7
		C248,461.4,248.3,460.5,248,459.8z M249.3,456.6c0.8-0.4,1.1-1.3,0.8-2.1c-0.4-0.8-1.3-1.1-2.1-0.8c-0.8,0.4-1.1,1.3-0.8,2.1
		C247.5,456.6,248.5,456.9,249.3,456.6z M251.3,467.1c-0.3-0.7-1.2-1-1.9-0.7c-0.7,0.3-1,1.2-0.7,1.9c0.3,0.7,1.2,1,1.9,0.7
		C251.4,468.6,251.7,467.8,251.3,467.1z M253.4,461.7c-0.4-0.8-1.3-1.2-2.1-0.8c-0.8,0.4-1.2,1.3-0.8,2.1s1.3,1.1,2.1,0.8
		C253.5,463.4,253.8,462.5,253.4,461.7z M255.6,456.3c-0.4-0.9-1.5-1.3-2.4-0.9s-1.3,1.5-0.9,2.4s1.5,1.3,2.4,0.9
		S256,457.2,255.6,456.3z M258.9,463.5c-0.4-0.9-1.5-1.3-2.4-0.9s-1.3,1.5-0.9,2.4s1.5,1.3,2.4,0.9
		C259,465.5,259.4,464.4,258.9,463.5z M260.1,460.8c1-0.5,1.4-1.7,1-2.7c-0.5-1-1.7-1.4-2.7-1c-1,0.5-1.4,1.7-1,2.7
		C257.9,460.8,259.1,461.3,260.1,460.8z M264.4,465.4c-0.5-1-1.7-1.4-2.7-1c-1,0.5-1.4,1.7-1,2.7c0.5,1,1.7,1.4,2.7,1
		C264.5,467.6,264.9,466.4,264.4,465.4z M266.5,460c-0.5-1.1-1.8-1.6-2.9-1.1s-1.6,1.8-1.1,2.9s1.8,1.6,2.9,1.1
		C266.6,462.4,267,461.1,266.5,460z M267.5,457.8c1.2-0.6,1.7-2,1.2-3.2s-2-1.7-3.2-1.2c-1.2,0.6-1.7,2-1.2,3.2
		C264.9,457.8,266.3,458.3,267.5,457.8z M272,461.8c-0.6-1.2-2-1.7-3.2-1.2s-1.7,2-1.2,3.2c0.6,1.2,2,1.7,3.2,1.2
		S272.5,463.1,272,461.8z M270.6,455.3c-1.3,0.6-1.9,2.2-1.3,3.5s2.2,1.9,3.5,1.3s1.9-2.2,1.3-3.5
		C273.5,455.2,271.9,454.7,270.6,455.3z M267.3,448c-1.3,0.6-1.9,2.2-1.3,3.5s2.2,1.9,3.5,1.3s1.9-2.2,1.3-3.5
		S268.6,447.4,267.3,448z M263.9,440.8c-1.3,0.6-1.9,2.2-1.3,3.5s2.2,1.9,3.5,1.3s1.9-2.2,1.3-3.5
		C266.8,440.7,265.2,440.2,263.9,440.8z M260.6,433.5c-1.3,0.6-1.9,2.2-1.3,3.5s2.2,1.9,3.5,1.3s1.9-2.2,1.3-3.5
		C263.4,433.5,261.9,432.9,260.6,433.5z M255.9,429.7c0.6,1.3,2.2,1.9,3.5,1.3s1.9-2.2,1.3-3.5s-2.2-1.9-3.5-1.3
		C255.9,426.9,255.3,428.4,255.9,429.7L255.9,429.7z M250.8,427.7c0.6,1.2,2,1.7,3.2,1.2c1.2-0.6,1.7-2,1.2-3.2
		c-0.6-1.2-2-1.7-3.2-1.2S250.2,426.5,250.8,427.7z M250.1,430c-1.1,0.5-1.6,1.8-1.1,2.9s1.8,1.6,2.9,1.1s1.6-1.8,1.1-2.9
		S251.2,429.5,250.1,430z M245.7,425.7c0.5,1.1,1.8,1.6,2.9,1.1s1.6-1.8,1.1-2.9s-1.8-1.6-2.9-1.1
		C245.6,423.3,245.2,424.6,245.7,425.7z M243.9,430.9c0.5,1,1.7,1.4,2.7,1c1-0.5,1.4-1.7,1-2.7c-0.5-1-1.7-1.4-2.7-1
		C243.9,428.7,243.4,429.9,243.9,430.9z M242.1,436.2c0.4,0.9,1.5,1.3,2.4,0.9c0.9-0.4,1.3-1.5,0.9-2.4s-1.5-1.3-2.4-0.9
		C242.1,434.2,241.7,435.3,242.1,436.2z M238.8,428.9c0.4,0.9,1.5,1.3,2.4,0.9s1.3-1.5,0.9-2.4c-0.4-0.9-1.5-1.3-2.4-0.9
		C238.7,426.9,238.4,428,238.8,428.9z M237.1,434.1c0.4,0.8,1.3,1.1,2.1,0.8c0.8-0.4,1.1-1.3,0.8-2.1c-0.4-0.8-1.3-1.2-2.1-0.8
		C237.1,432.4,236.8,433.3,237.1,434.1z M233.7,426.9c0.4,0.8,1.3,1.1,2.1,0.8c0.8-0.4,1.2-1.3,0.8-2.1c-0.4-0.8-1.3-1.1-2.1-0.8
		S233.4,426.1,233.7,426.9z M232,432.1c0.3,0.7,1.2,1,1.9,0.7s1-1.2,0.7-1.9c-0.3-0.7-1.2-1-1.9-0.7
		C232,430.6,231.7,431.4,232,432.1z M230.2,437.4c0.3,0.6,1,0.9,1.6,0.6s0.9-1,0.6-1.6c-0.3-0.6-1-0.9-1.6-0.6
		C230.2,436,230,436.8,230.2,437.4z M229,441.3c-0.5,0.2-0.7,0.8-0.5,1.3s0.8,0.7,1.3,0.5s0.7-0.8,0.5-1.3
		C230.1,441.2,229.5,441,229,441.3z M226.9,430.1c0.3,0.6,1,0.9,1.6,0.6s0.9-1,0.6-1.6s-1-0.9-1.6-0.6
		C226.8,428.8,226.6,429.5,226.9,430.1z M225.1,435.3c0.2,0.5,0.8,0.7,1.3,0.5s0.7-0.8,0.5-1.3s-0.8-0.7-1.3-0.5
		S224.9,434.8,225.1,435.3z M225,453c0.1,0.3,0.5,0.4,0.8,0.3s0.4-0.5,0.3-0.8c-0.1-0.3-0.5-0.4-0.8-0.3S224.8,452.7,225,453z
		 M223.7,439.5c-0.4,0.2-0.6,0.7-0.4,1.1c0.2,0.4,0.7,0.6,1.1,0.4c0.4-0.2,0.6-0.7,0.4-1.1S224.1,439.3,223.7,439.5z M221.7,428.1
		c0.2,0.5,0.8,0.7,1.3,0.5s0.7-0.8,0.5-1.3s-0.8-0.7-1.3-0.5S221.5,427.6,221.7,428.1z M221.6,445.7c0.1,0.3,0.5,0.4,0.8,0.3
		s0.4-0.5,0.3-0.8c-0.1-0.3-0.5-0.4-0.8-0.3S221.4,445.4,221.6,445.7z M220,433.3c0.2,0.4,0.7,0.6,1.1,0.4c0.4-0.2,0.6-0.7,0.4-1.1
		c-0.2-0.4-0.7-0.6-1.1-0.4C219.9,432.4,219.8,432.9,220,433.3z M219.8,450.9c0.1,0.2,0.3,0.3,0.5,0.2c0.2-0.1,0.3-0.3,0.2-0.5
		s-0.3-0.3-0.5-0.2S219.7,450.7,219.8,450.9z M218.2,438.6c0.1,0.3,0.5,0.4,0.8,0.3s0.4-0.5,0.3-0.8c-0.1-0.3-0.5-0.4-0.8-0.3
		S218.1,438.3,218.2,438.6z M218.1,456.2c0,0.1,0.2,0.1,0.3,0.1s0.1-0.2,0.1-0.3s-0.2-0.1-0.3-0.1S218,456.1,218.1,456.2z
		 M216.5,443.8c0.1,0.2,0.3,0.3,0.5,0.2c0.2-0.1,0.3-0.3,0.2-0.5s-0.3-0.3-0.5-0.2S216.4,443.6,216.5,443.8z M214.8,431.3
		c0.1,0.3,0.5,0.4,0.8,0.3s0.4-0.5,0.3-0.8c-0.1-0.3-0.5-0.4-0.8-0.3S214.7,431,214.8,431.3z M214.7,449c0,0.1,0.2,0.1,0.3,0.1
		s0.1-0.2,0.1-0.3s-0.2-0.1-0.3-0.1C214.7,448.8,214.7,448.9,214.7,449z M213.1,436.5c0.1,0.2,0.3,0.3,0.5,0.2
		c0.2-0.1,0.3-0.3,0.2-0.5s-0.3-0.3-0.5-0.2C213.1,436.1,213,436.3,213.1,436.5z M211.3,441.8c0,0.1,0.2,0.1,0.3,0.1
		s0.1-0.2,0.1-0.3s-0.2-0.1-0.3-0.1S211.3,441.7,211.3,441.8z M209.7,429.3c0.1,0.2,0.3,0.3,0.5,0.2c0.2-0.1,0.3-0.3,0.2-0.5
		s-0.3-0.3-0.5-0.2S209.6,429.1,209.7,429.3z M207.9,434.5c0,0.1,0.2,0.1,0.3,0.1s0.1-0.2,0.1-0.3s-0.2-0.1-0.3-0.1
		C207.9,434.3,207.9,434.4,207.9,434.5z M204.7,427.3c0,0.1,0.2,0.1,0.3,0.1s0.1-0.2,0.1-0.3s-0.2-0.1-0.3-0.1
		S204.6,427.2,204.7,427.3z M409.9,260.3c1.1,0.8,2.6,0.5,3.3-0.6c0.8-1.1,0.5-2.6-0.6-3.3c-1.1-0.8-2.6-0.5-3.3,0.6
		C408.5,258.2,408.8,259.6,409.9,260.3z M408,263c-1.1-0.8-2.6-0.5-3.3,0.6c-0.8,1.1-0.5,2.6,0.6,3.3c1.1,0.8,2.6,0.5,3.3-0.6
		C409.4,265.2,409.1,263.7,408,263z M396.2,280c1.1,0.8,2.6,0.5,3.3-0.6c0.8-1.1,0.5-2.6-0.6-3.3c-1.1-0.8-2.6-0.5-3.3,0.6
		S395.1,279.2,396.2,280z M395.3,274.3c1,0.7,2.4,0.5,3.1-0.5s0.5-2.4-0.5-3.1s-2.4-0.5-3.1,0.5
		C394.1,272.2,394.3,273.6,395.3,274.3z M400.7,273.4c1.1,0.8,2.6,0.5,3.3-0.6c0.8-1.1,0.5-2.6-0.6-3.3c-1.1-0.8-2.6-0.5-3.3,0.6
		C399.3,271.2,399.6,272.7,400.7,273.4z M406.9,257.7c-1-0.7-2.4-0.5-3.1,0.5s-0.5,2.4,0.5,3.1s2.4,0.5,3.1-0.5
		C408.2,259.6,407.9,258.3,406.9,257.7z M403.5,255.5c0.9,0.6,2.2,0.4,2.8-0.5s0.4-2.2-0.5-2.8s-2.2-0.4-2.8,0.5
		S402.6,254.9,403.5,255.5z M402.3,264.1c-1-0.7-2.4-0.5-3.1,0.5s-0.5,2.4,0.5,3.1s2.4,0.5,3.1-0.5
		C403.6,266.2,403.3,264.8,402.3,264.1z M401.3,258.8c-0.9-0.6-2.1-0.4-2.8,0.5c-0.6,0.9-0.4,2.1,0.5,2.8c0.9,0.6,2.1,0.4,2.8-0.5
		C402.4,260.6,402.2,259.4,401.3,258.8z M398.1,256.3c0.8,0.6,1.9,0.4,2.5-0.4s0.4-1.9-0.4-2.5s-1.9-0.4-2.5,0.4
		S397.3,255.8,398.1,256.3z M393.9,265.7c-0.6,0.9-0.4,2.1,0.5,2.8c0.9,0.6,2.2,0.4,2.8-0.5s0.4-2.1-0.5-2.8
		C395.8,264.6,394.5,264.8,393.9,265.7z M390.7,280.8c1,0.7,2.4,0.5,3.1-0.5s0.5-2.4-0.5-3.1s-2.4-0.5-3.1,0.5
		C389.5,278.8,389.7,280.1,390.7,280.8z M389.9,275.1c0.9,0.6,2.2,0.4,2.8-0.5s0.4-2.2-0.5-2.8s-2.2-0.4-2.8,0.5
		C388.7,273.2,389,274.4,389.9,275.1z M395.6,259.9c-0.8-0.6-1.9-0.4-2.5,0.4s-0.4,1.9,0.4,2.5s1.9,0.4,2.5-0.4
		S396.4,260.5,395.6,259.9z M394.5,254.5c-0.7-0.5-1.7-0.3-2.2,0.4s-0.3,1.7,0.4,2.2c0.7,0.5,1.7,0.3,2.2-0.4
		C395.4,256.1,395.2,255.1,394.5,254.5z M391.8,251.4c0.6,0.4,1.5,0.3,2-0.3s0.3-1.5-0.3-2s-1.5-0.3-2,0.3S391.1,251,391.8,251.4z
		 M388.6,266.8c-0.6,0.8-0.4,1.9,0.4,2.5s1.9,0.4,2.5-0.4s0.4-1.9-0.4-2.5S389.1,266,388.6,266.8z M390,261.1
		c-0.7-0.5-1.7-0.3-2.2,0.4c-0.5,0.7-0.3,1.7,0.4,2.2c0.7,0.5,1.7,0.3,2.2-0.4C390.9,262.5,390.7,261.6,390,261.1z M388.9,255.7
		L388.9,255.7c-0.6-0.4-1.5-0.3-2,0.3c-0.5,0.6-0.3,1.5,0.3,2s1.5,0.3,2-0.3S389.5,256.1,388.9,255.7L388.9,255.7z M387.8,250.3
		c-0.5-0.4-1.3-0.2-1.7,0.3s-0.2,1.3,0.3,1.7s1.3,0.2,1.7-0.3S388.3,250.7,387.8,250.3z M385.4,267.5c-0.7-0.5-1.7-0.3-2.2,0.4
		c-0.5,0.7-0.3,1.7,0.4,2.2c0.7,0.5,1.7,0.3,2.2-0.4C386.3,269.1,386.1,268.1,385.4,267.5z M385.6,246.5c0.5,0.3,1.1,0.2,1.4-0.2
		c0.3-0.5,0.2-1.1-0.2-1.4c-0.5-0.3-1.1-0.2-1.4,0.2C385,245.6,385.1,246.2,385.6,246.5z M384.3,262.3c-0.6-0.4-1.5-0.3-2,0.3
		s-0.3,1.5,0.3,2s1.5,0.3,2-0.3S384.9,262.7,384.3,262.3z M383.2,256.8c-0.5-0.4-1.3-0.2-1.7,0.3c-0.4,0.5-0.2,1.3,0.3,1.7
		c0.5,0.4,1.3,0.2,1.7-0.3S383.7,257.2,383.2,256.8z M380.7,251.7c-0.3,0.5-0.2,1.1,0.2,1.4c0.5,0.3,1.1,0.2,1.4-0.2
		c0.3-0.5,0.2-1.1-0.2-1.4C381.7,251.1,381,251.2,380.7,251.7z M379.9,246.2c-0.2,0.4-0.2,0.9,0.2,1.1s0.9,0.2,1.1-0.2
		s0.2-0.9-0.2-1.1S380.1,245.9,379.9,246.2z M379.2,241.6c0.3,0.2,0.6,0.1,0.8-0.1c0.2-0.3,0.1-0.7-0.1-0.8
		c-0.3-0.2-0.7-0.1-0.8,0.2C378.9,241,378.9,241.4,379.2,241.6L379.2,241.6z M378.6,263.4c-0.5-0.4-1.3-0.2-1.7,0.3
		c-0.4,0.5-0.2,1.3,0.3,1.7c0.5,0.4,1.3,0.2,1.7-0.3C379.3,264.5,379.1,263.8,378.6,263.4z M376.1,258.2c-0.3,0.5-0.2,1.1,0.2,1.4
		c0.5,0.3,1.1,0.2,1.4-0.2c0.3-0.5,0.2-1.1-0.2-1.4C377.1,257.7,376.4,257.8,376.1,258.2z M375.3,252.8c-0.2,0.4-0.2,0.9,0.2,1.1
		s0.9,0.2,1.1-0.2s0.2-0.9-0.2-1.1C376.1,252.3,375.6,252.4,375.3,252.8z M374.5,247.3c-0.2,0.3-0.1,0.7,0.1,0.8
		c0.3,0.2,0.7,0.1,0.8-0.2s0.1-0.6-0.2-0.8C375,247,374.7,247,374.5,247.3L374.5,247.3z M373.8,242.4c0.2,0.1,0.4,0.1,0.6-0.1
		s0.1-0.4-0.1-0.6s-0.4-0.1-0.6,0.1C373.5,242,373.6,242.3,373.8,242.4z M370.7,259.3c-0.2,0.4-0.2,0.9,0.2,1.1
		c0.4,0.2,0.9,0.2,1.1-0.2c0.2-0.4,0.2-0.9-0.2-1.1C371.5,258.9,371,259,370.7,259.3z M369.9,253.9c-0.2,0.3-0.1,0.7,0.2,0.8
		c0.3,0.2,0.6,0.1,0.8-0.2c0.2-0.3,0.1-0.6-0.1-0.8C370.5,253.5,370.1,253.6,369.9,253.9z M369.2,249c0.2,0.1,0.4,0.1,0.6-0.1
		s0.1-0.4-0.1-0.6s-0.4-0.1-0.6,0.1C368.9,248.6,369,248.8,369.2,249z M368.3,243.3c0.1,0.1,0.2,0,0.3-0.1c0.1-0.1,0-0.2,0-0.3
		c-0.1-0.1-0.2,0-0.3,0C368.2,243.1,368.2,243.3,368.3,243.3L368.3,243.3z M364.6,255.5c0.2,0.1,0.4,0.1,0.6-0.1s0.1-0.4-0.1-0.6
		s-0.4-0.1-0.6,0.1C364.4,255.1,364.4,255.4,364.6,255.5z M363.7,249.8c0.1,0.1,0.2,0,0.3,0c0.1-0.1,0-0.2,0-0.3
		c-0.1-0.1-0.2,0-0.3,0C363.6,249.6,363.6,249.7,363.7,249.8z M345.7,275.7c-0.1-0.1-0.2,0-0.3,0c-0.1,0.1,0,0.2,0,0.3
		c0.1,0.1,0.2,0,0.3,0C345.8,275.9,345.8,275.7,345.7,275.7z M350.3,269.1c-0.1-0.1-0.2,0-0.3,0c-0.1,0.1,0,0.2,0,0.3
		c0.1,0.1,0.2,0,0.3,0C350.4,269.3,350.4,269.2,350.3,269.1z M351.5,275.1c0.1-0.2,0.1-0.4-0.1-0.6s-0.4-0.1-0.6,0.1
		s-0.1,0.4,0.1,0.6S351.3,275.3,351.5,275.1z M352.5,279.8c-0.3-0.2-0.7-0.1-0.8,0.2c-0.2,0.3-0.1,0.6,0.2,0.8
		c0.3,0.2,0.6,0.1,0.8-0.1C352.8,280.4,352.7,280,352.5,279.8z M354.9,262.6c-0.1-0.1-0.2,0-0.3,0c-0.1,0.1,0,0.2,0,0.3
		c0.1,0.1,0.2,0,0.3,0C355,262.8,355,262.6,354.9,262.6z M356.1,268.5c0.1-0.2,0.1-0.4-0.1-0.6s-0.4-0.1-0.6,0.1s-0.1,0.4,0.1,0.6
		S355.9,268.7,356.1,268.5z M357.2,274.2c0.2-0.3,0.1-0.6-0.2-0.8c-0.3-0.2-0.6-0.1-0.8,0.1c-0.2,0.3-0.1,0.7,0.1,0.8
		C356.6,274.6,357,274.5,357.2,274.2z M358.2,278.7c-0.4-0.2-0.9-0.2-1.1,0.2c-0.2,0.4-0.2,0.9,0.2,1.1c0.4,0.2,0.9,0.2,1.1-0.2
		C358.6,279.4,358.5,278.9,358.2,278.7z M359.5,256c-0.1-0.1-0.2,0-0.3,0c-0.1,0.1,0,0.2,0,0.3c0.1,0.1,0.2,0,0.3,0
		C359.6,256.2,359.5,256.1,359.5,256z M360.7,262c0.1-0.2,0.1-0.4-0.1-0.6s-0.4-0.1-0.6,0.1s-0.1,0.4,0.1,0.6S360.5,262.2,360.7,262
		z M361.8,267.7c0.2-0.3,0.1-0.7-0.1-0.8c-0.3-0.2-0.7-0.1-0.8,0.2c-0.2,0.3-0.1,0.6,0.2,0.8C361.2,268,361.6,267.9,361.8,267.7
		L361.8,267.7z M361.8,273.5c0.4,0.2,0.9,0.2,1.1-0.2c0.2-0.4,0.2-0.9-0.2-1.1c-0.4-0.2-0.9-0.2-1.1,0.2
		C361.4,272.8,361.5,273.3,361.8,273.5z M362.7,279.2c0.5,0.3,1.1,0.2,1.4-0.2c0.3-0.5,0.2-1.1-0.2-1.4c-0.5-0.3-1.1-0.2-1.4,0.2
		C362.1,278.2,362.2,278.9,362.7,279.2z M364.8,282.9c-0.5-0.4-1.3-0.2-1.7,0.3c-0.4,0.5-0.2,1.3,0.3,1.7c0.5,0.4,1.3,0.2,1.7-0.3
		S365.4,283.3,364.8,282.9z M366.3,261.1c0.2-0.3,0.1-0.6-0.2-0.8c-0.3-0.2-0.6-0.1-0.8,0.1c-0.2,0.3-0.1,0.7,0.1,0.8
		C365.7,261.5,366.1,261.4,366.3,261.1z M366.3,267c0.4,0.2,0.9,0.2,1.1-0.2c0.2-0.4,0.2-0.9-0.2-1.1c-0.4-0.2-0.9-0.2-1.1,0.2
		C365.9,266.2,365.9,266.7,366.3,267z M367.2,272.7c0.5,0.3,1.1,0.2,1.4-0.2c0.3-0.5,0.2-1.1-0.2-1.4c-0.5-0.3-1.1-0.2-1.4,0.2
		C366.6,271.8,366.7,272.4,367.2,272.7z M368.1,278.4c0.5,0.4,1.3,0.2,1.7-0.3c0.4-0.5,0.2-1.3-0.3-1.7c-0.5-0.4-1.3-0.2-1.7,0.3
		S367.5,278,368.1,278.4z M370.5,281.8c-0.6-0.4-1.5-0.3-2,0.3s-0.3,1.5,0.3,2s1.5,0.3,2-0.3S371.2,282.2,370.5,281.8z M373.2,265.9
		c0.3-0.5,0.2-1.1-0.2-1.4c-0.5-0.3-1.1-0.2-1.4,0.2c-0.3,0.5-0.2,1.1,0.2,1.4C372.2,266.5,372.9,266.4,373.2,265.9z M372.6,271.9
		c0.5,0.4,1.3,0.2,1.7-0.3c0.4-0.5,0.2-1.3-0.3-1.7c-0.5-0.4-1.3-0.2-1.7,0.3C372,270.8,372.1,271.5,372.6,271.9z M373.5,277.5
		c0.6,0.4,1.5,0.3,2-0.3s0.3-1.5-0.3-2s-1.5-0.3-2,0.3S372.9,277.1,373.5,277.5z M374.4,283.3c0.7,0.5,1.7,0.3,2.2-0.4
		c0.5-0.7,0.3-1.7-0.4-2.2c-0.7-0.5-1.7-0.3-2.2,0.4C373.5,281.8,373.7,282.8,374.4,283.3z M377.3,286.1c-0.8-0.6-1.9-0.4-2.5,0.4
		s-0.4,1.9,0.4,2.5s1.9,0.4,2.5-0.4S378.1,286.6,377.3,286.1z M378.1,271.1c0.6,0.4,1.5,0.3,2-0.3s0.3-1.5-0.3-2s-1.5-0.3-2,0.3
		S377.5,270.6,378.1,271.1z M379,276.7c0.7,0.5,1.7,0.3,2.2-0.4c0.5-0.7,0.3-1.7-0.4-2.2c-0.7-0.5-1.7-0.3-2.2,0.4
		C378.1,275.2,378.2,276.2,379,276.7z M379.8,282.5c0.8,0.6,1.9,0.4,2.5-0.4s0.4-1.9-0.4-2.5s-1.9-0.4-2.5,0.4
		S379,281.9,379.8,282.5z M383,284.9c-0.9-0.6-2.2-0.4-2.8,0.5s-0.4,2.2,0.5,2.8s2.2,0.4,2.8-0.5S383.9,285.6,383,284.9z
		 M386.9,275.5c0.6-0.8,0.4-1.9-0.4-2.5s-1.9-0.4-2.5,0.4s-0.4,1.9,0.4,2.5S386.4,276.3,386.9,275.5z M385.3,281.6
		c0.9,0.6,2.2,0.4,2.8-0.5s0.4-2.1-0.5-2.8c-0.9-0.6-2.2-0.4-2.8,0.5C384.2,279.8,384.4,281,385.3,281.6z M386.2,287.4
		c1,0.7,2.4,0.5,3.1-0.5s0.5-2.4-0.5-3.1s-2.4-0.5-3.1,0.5C384.9,285.3,385.2,286.7,386.2,287.4z M389.8,289.2
		c-1.1-0.8-2.6-0.5-3.3,0.6c-0.8,1.1-0.5,2.6,0.6,3.3c1.1,0.8,2.6,0.5,3.3-0.6S390.9,289.9,389.8,289.2z M391.6,286.6
		c1.1,0.8,2.6,0.5,3.3-0.6c0.8-1.1,0.5-2.6-0.6-3.3c-1.1-0.8-2.6-0.5-3.3,0.6C390.3,284.3,390.5,285.8,391.6,286.6z M395.5,288
		c-1.2-0.8-2.8-0.5-3.6,0.6s-0.5,2.8,0.6,3.6c1.2,0.8,2.8,0.5,3.6-0.6S396.6,288.9,395.5,288z M400.1,281.5
		c-1.2-0.8-2.8-0.5-3.6,0.6c-0.8,1.2-0.5,2.8,0.6,3.6c1.2,0.8,2.8,0.5,3.6-0.6S401.2,282.3,400.1,281.5z M404.5,274.9
		c-1.2-0.8-2.8-0.5-3.6,0.6c-0.8,1.2-0.5,2.8,0.6,3.6c1.2,0.8,2.8,0.5,3.6-0.6S405.7,275.7,404.5,274.9z M409.1,268.5
		c-1.2-0.8-2.8-0.5-3.6,0.6c-0.8,1.2-0.5,2.8,0.6,3.6c1.2,0.8,2.8,0.5,3.6-0.6S410.3,269.3,409.1,268.5z M413.7,261.9
		c-1.2-0.8-2.8-0.5-3.6,0.6c-0.8,1.2-0.5,2.8,0.6,3.6s2.8,0.5,3.6-0.6S414.9,262.7,413.7,261.9z M410.2,278.7
		c0.1-0.2,0.1-0.3,0.2-0.5c-0.2,0.2-0.4,0.3-0.7,0.4C409.9,278.7,410,278.7,410.2,278.7z M281.1,458.8c0.3-0.2,0.7-0.2,1-0.3
		c-0.3-0.3-0.5-0.6-0.7-1s-0.3-0.8-0.3-1.2c-0.2,0.2-0.5,0.5-0.9,0.6c-0.5,0.3-1.1,0.3-1.7,0.2c0.4,0.3,0.8,0.7,1,1.2s0.3,1,0.2,1.5
		C280.1,459.5,280.5,459.1,281.1,458.8L281.1,458.8z M277.7,451.5c0.3-0.2,0.7-0.2,1-0.3c-0.3-0.3-0.5-0.6-0.7-1v-0.1
		c-0.2-0.3-0.4-0.5-0.6-0.8c-0.2,0.1-0.3,0.2-0.5,0.3c-0.6,0.3-1.1,0.3-1.7,0.2c0.4,0.3,0.8,0.7,1,1.2s0.3,1,0.2,1.5
		C276.7,452.2,277.1,451.8,277.7,451.5L277.7,451.5z M273.9,444.5c-0.4-0.6-0.8-1.2-1.3-1.8c-0.3,0-0.6,0.1-0.9,0
		c0.4,0.3,0.8,0.7,1,1.2s0.3,1,0.2,1.5C273.4,445.1,273.6,444.8,273.9,444.5L273.9,444.5z M286.1,460.7c-0.4-0.5-0.7-0.9-1.1-1.4
		c-0.2,0-0.3,0.1-0.5,0.1c0.2,0.2,0.5,0.5,0.6,0.9c0.1,0.3,0.2,0.5,0.2,0.8c0.2-0.1,0.4-0.1,0.6-0.2
		C285.9,460.8,286,460.7,286.1,460.7L286.1,460.7z"/>
	<path class="st0" d="M308,399.4c-0.1,0.5,0,1,0.2,1.5s0.6,0.9,1,1.2c-0.6-0.1-1.1,0-1.7,0.3l-0.9,0.6c0-0.4-0.1-0.8-0.3-1.2
		c-0.2-0.4-0.4-0.7-0.7-1c0.3,0,0.7-0.1,1-0.3C307.3,400.3,307.7,399.9,308,399.4L308,399.4z M313.5,414.9c-0.1,0.1-0.3,0.1-0.4,0.1
		c0.4,0.6,0.8,1.1,1.2,1.7c0.5-0.3,1.1-0.3,1.7-0.2c-0.4-0.3-0.8-0.7-1-1.2s-0.3-1-0.2-1.5C314.5,414.3,314,414.7,313.5,414.9
		L313.5,414.9z M224.1,222.7c0.1-0.2,0.1-0.3,0.2-0.5c-0.3,0.1-0.7,0.1-1,0.1s-0.5-0.1-0.8-0.2c0,0.2-0.1,0.4-0.1,0.6v0.3
		C223,222.9,223.5,222.8,224.1,222.7L224.1,222.7z M468.9,259.4L468.9,259.4c-2.6,9.3-5.6,18.3-9,27.3c-6.1,16-13.7,31.3-22.3,46
		c-16,26.9-36.2,51.2-59.6,72c-6.7,5.9-13.6,11.5-20.8,16.8c-0.3-0.2-0.8-0.3-1.1-0.1c-0.5,0.2-0.8,0.8-0.6,1.4
		c-1.5,1.1-3,2.2-4.5,3.2c0-0.3,0-0.6-0.1-0.8c-0.4-0.8-1.3-1.1-2.1-0.8s-1.1,1.3-0.8,2.1c0.2,0.4,0.6,0.7,1,0.9
		c-2.6,1.8-5.2,3.5-7.8,5.2c-0.6-0.3-1.3-0.3-1.9,0c-0.8,0.4-1.3,1.2-1.3,2c-1,0.6-2,1.2-3,1.8c-0.7-1-2.1-1.4-3.2-0.8
		c-0.5,0.3-0.9,0.7-1.2,1.1l-0.3-0.3c0.1-0.5,0-1.1-0.2-1.6c-0.5-1.1-1.6-1.7-2.7-1.6c-0.6-0.7-1.2-1.4-1.8-2.1
		c1.2-0.7,1.7-2.3,1.1-3.6c-0.7-1.4-2.3-2-3.7-1.4c-0.4,0.2-0.7,0.4-0.9,0.7c-0.1-0.1-0.1-0.2-0.2-0.2c0-0.4-0.1-0.8-0.3-1.1
		c-0.3-0.5-0.7-1-1.1-1.3c0.5,0.1,1,0,1.5-0.2c1.4-0.7,2-2.3,1.4-3.7s-2.3-2-3.7-1.4c-0.5,0.2-0.9,0.6-1.2,1c0.1-0.6,0-1.1-0.2-1.7
		c-0.3-0.5-0.7-1-1.1-1.3c0.5,0.1,1,0,1.5-0.2c1.4-0.7,2-2.3,1.4-3.7c-0.7-1.4-2.3-2-3.7-1.4c-0.5,0.2-0.9,0.6-1.2,1
		c0.1-0.6,0-1.1-0.3-1.7c-0.3-0.5-0.7-1-1.1-1.3c0.5,0.1,1,0,1.5-0.2c1.4-0.7,2-2.3,1.4-3.7s-2.3-2-3.7-1.4c-0.5,0.2-0.9,0.6-1.2,1
		c0.1-0.6,0-1.1-0.2-1.7c-0.3-0.5-0.6-1-1.1-1.3c0.5,0.1,1,0,1.5-0.2c1.4-0.7,2-2.3,1.4-3.7s-2.3-2-3.7-1.4c-0.5,0.2-0.9,0.6-1.2,1
		c0.1-0.6,0-1.1-0.2-1.7c-0.1-0.2-0.2-0.3-0.3-0.4c0.7-0.4,1.5-0.9,2.2-1.3c0,0.2,0.1,0.5,0.2,0.7c0.6,1.3,2.2,1.9,3.5,1.3
		s1.9-2.2,1.3-3.5c-0.2-0.4-0.5-0.8-0.9-1c1.3-0.8,2.7-1.7,4-2.6c-0.5,0.6-0.6,1.5-0.2,2.2c0.5,1.1,1.8,1.6,2.9,1.1s1.6-1.8,1.1-2.9
		c-0.4-1-1.5-1.4-2.5-1.2c0.6-0.4,1.3-0.8,1.9-1.3c0.4,0.1,0.9,0.1,1.4-0.1c0.7-0.3,1.1-0.9,1.1-1.6c1.3-0.9,2.6-1.8,3.9-2.8
		c0.4,0.7,1.3,1,2,0.6c0.8-0.4,1.1-1.3,0.8-2.1c-0.1-0.2-0.2-0.3-0.3-0.4c27.9-20.8,51.3-47.6,68.2-78.3
		c7.9-14.4,14.4-29.4,19.1-45.1c1.2-3.8,2.2-7.7,3.2-11.6c8.8-35,8.1-73.7-8.8-105.8c-6.6-12.2-16-23.2-29.1-28.1
		c-16.2-6.1-34.2,0.1-48.1,9.3c-21.2,14.2-37.2,35-48,58.2c-0.3,0.1-0.5,0.4-0.6,0.7c0,0.1,0,0.2,0.1,0.4c-1.5,3.3-2.9,6.6-4.2,9.9
		c-0.8-0.1-1.4,0.5-1.5,1.3c0,0.5,0.2,0.9,0.5,1.2c-1.1,2.9-2.1,5.9-3,8.9c-0.3-0.2-0.6-0.3-0.9-0.3c-1.1-0.1-2.1,0.7-2.2,1.8
		s0.7,2.1,1.8,2.2h0.2c-0.1,0.4-0.2,0.8-0.4,1.2c-0.2,0.8-0.4,1.6-0.6,2.4c-1.1,0.1-2,1-2.1,2.2c-0.1,0.8,0.3,1.6,0.9,2.1
		c-0.1,0.4-0.2,0.9-0.3,1.3c-0.2-1.2-1.1-2.1-2.3-2.2c-1.4-0.1-2.7,0.9-2.8,2.4c-0.1,1.4,0.9,2.7,2.4,2.8c0.9,0.1,1.8-0.3,2.3-1
		c0,0.2-0.1,0.4-0.1,0.6c-0.5,0.4-0.9,1-1,1.7h-2.5c0.1-1.5-1-2.8-2.5-2.9c-1.5-0.1-2.9,1-3,2.5v0.4h-2.5c0.1-0.2,0.1-0.4,0.2-0.7
		c0.1-1.5-1-2.9-2.5-3s-2.9,1-3,2.5c0,0.5,0,0.9,0.2,1.3h-0.2c-0.4-0.2-0.8-0.4-1.3-0.4c-0.6-0.1-1.2,0.1-1.7,0.3
		c0.3-0.4,0.5-0.9,0.6-1.5c0.1-1.5-1-2.9-2.5-3s-2.9,1-3,2.5c0,0.5,0.1,1.1,0.3,1.5c-0.4-0.4-1-0.6-1.6-0.6
		c-0.6-0.1-1.2,0.1-1.7,0.3c0.3-0.4,0.5-0.9,0.6-1.5c0.1-1.5-1-2.9-2.5-3s-2.9,1-3,2.5c0,0.5,0.1,1.1,0.3,1.5
		c-0.4-0.3-1-0.6-1.6-0.6c-0.6-0.1-1.2,0.1-1.7,0.3c0.3-0.4,0.5-0.9,0.6-1.5c0.1-1.5-1-2.9-2.5-3s-2.9,1-3,2.5
		c0,0.5,0.1,1.1,0.3,1.5c-0.4-0.3-1-0.6-1.6-0.6c-0.6-0.1-1.2,0.1-1.7,0.3c0.3-0.4,0.5-0.9,0.6-1.4c0.1-1.5-1-2.9-2.5-3
		s-2.9,1-3,2.5c0,0.5,0.1,1.1,0.3,1.5c-0.4-0.4-1-0.6-1.6-0.6h-0.3c0.1-0.8,0.3-1.6,0.5-2.4h0.1c1.4,0.1,2.7-0.9,2.8-2.4
		c0.1-1.3-0.7-2.4-1.9-2.7c0.2-1.1,0.5-2.3,0.7-3.4c0.8-0.3,1.4-1,1.5-1.9c0.1-0.7-0.2-1.3-0.7-1.8c0.7-3,1.5-6,2.3-9
		c0.3,0.3,0.6,0.5,1.1,0.6c0.9,0.1,1.7-0.6,1.7-1.5c0.1-0.9-0.6-1.7-1.5-1.7c-0.2,0-0.5,0-0.7,0.1c0.5-1.8,1-3.5,1.5-5.3
		c0.5-0.1,0.8-0.5,0.9-1c0-0.3-0.1-0.7-0.3-0.9c1.1-3.6,2.3-7.2,3.6-10.7c0,0.3,0.2,0.5,0.5,0.5s0.6-0.2,0.7-0.5
		c0-0.3-0.2-0.6-0.5-0.7c-0.2,0-0.3,0-0.4,0.1c6.9-19.3,16.1-38,27.6-55.2c25.7-38.7,69.6-71.3,118.5-65.5
		c29.8,3.2,56.5,21.6,72.6,46.6C484.5,145.2,483.3,206.9,468.9,259.4L468.9,259.4z M275.8,167.9c0,0.1,0.1,0.2,0.2,0.2
		s0.2-0.1,0.2-0.2s-0.1-0.2-0.2-0.2S275.8,167.8,275.8,167.9z M271.3,171.5c0,0.2,0.2,0.4,0.4,0.4s0.4-0.2,0.4-0.4s-0.1-0.4-0.4-0.4
		C271.5,171.2,271.3,171.3,271.3,171.5z M270.2,179.5c0,0.4,0.3,0.8,0.7,0.9c0.4,0,0.8-0.3,0.9-0.7c0-0.4-0.3-0.8-0.7-0.9
		C270.6,178.7,270.2,179,270.2,179.5z M269.1,187.3c-0.1,0.7,0.4,1.2,1.1,1.3s1.2-0.4,1.3-1.1s-0.4-1.2-1.1-1.3
		C269.7,186.2,269.2,186.6,269.1,187.3z M268,195.2c-0.1,0.9,0.6,1.7,1.5,1.7c0.9,0.1,1.7-0.6,1.7-1.5c0.1-0.9-0.6-1.7-1.5-1.7
		C268.9,193.7,268.1,194.4,268,195.2z M243.3,197.1c0.1-1-0.6-1.9-1.6-2s-1.9,0.6-2,1.6s0.6,1.9,1.6,2S243.2,198.1,243.3,197.1z
		 M241,202.7c-1.2-0.1-2.3,0.8-2.4,2c-0.1,1.2,0.8,2.3,2,2.4c1.2,0.1,2.3-0.8,2.4-2C243.1,203.9,242.2,202.8,241,202.7z
		 M243.1,201.1c-0.1,1.1,0.7,2.1,1.8,2.2c1.1,0.1,2.1-0.7,2.2-1.8s-0.7-2.1-1.8-2.2C244.2,199.2,243.2,200,243.1,201.1z
		 M246.5,205.4c-0.1,1.2,0.8,2.3,2,2.4c1.2,0.1,2.3-0.8,2.4-2s-0.8-2.3-2-2.4C247.7,203.3,246.6,204.2,246.5,205.4z M251.2,197.8
		c0.1-1-0.6-1.9-1.6-2s-1.9,0.6-2,1.6s0.6,1.9,1.6,2C250.3,199.5,251.1,198.8,251.2,197.8z M251.1,201.8c-0.1,1.1,0.7,2.1,1.8,2.2
		c1.1,0.1,2.1-0.7,2.2-1.8s-0.7-2.1-1.8-2.2C252.1,199.9,251.2,200.7,251.1,201.8z M254.5,206.1c-0.1,1.2,0.8,2.3,2,2.4
		c1.2,0.1,2.3-0.8,2.4-2s-0.8-2.3-2-2.4C255.7,204,254.6,204.9,254.5,206.1L254.5,206.1z M259.1,198.5c0.1-1-0.6-1.9-1.6-2
		s-1.9,0.6-2,1.6s0.6,1.9,1.6,2S259,199.5,259.1,198.5L259.1,198.5z M258.9,202.5c-0.1,1.1,0.7,2.1,1.8,2.2c1.1,0.1,2.1-0.7,2.2-1.8
		s-0.7-2.1-1.8-2.2C260,200.6,259,201.4,258.9,202.5z M262.4,206.8c-0.1,1.2,0.8,2.3,2,2.4c1.2,0.1,2.3-0.8,2.4-2s-0.8-2.3-2-2.4
		S262.5,205.6,262.4,206.8z M267.1,199.2c0.1-1-0.6-1.9-1.6-2s-1.9,0.6-2,1.6s0.6,1.9,1.6,2S267,200.2,267.1,199.2z M266.9,203.2
		c-0.1,1.1,0.7,2.1,1.8,2.2c1.1,0.1,2.1-0.7,2.2-1.8s-0.7-2.1-1.8-2.2C268,201.3,267,202.1,266.9,203.2z M267.9,167.2
		c0,0.1,0.1,0.2,0.2,0.2s0.2-0.1,0.2-0.2s-0.1-0.2-0.2-0.2S267.9,167.1,267.9,167.2z M266.8,175.1c0,0.3,0.2,0.6,0.5,0.7
		c0.3,0,0.6-0.2,0.7-0.5c0-0.3-0.2-0.6-0.5-0.7C267.1,174.6,266.8,174.8,266.8,175.1z M265.7,183.1c0,0.5,0.4,1,0.9,1.1
		c0.5,0,1-0.4,1.1-0.9c0-0.5-0.4-1-0.9-1.1C266.2,182.1,265.7,182.5,265.7,183.1z M264.6,190.9c-0.1,0.8,0.5,1.5,1.3,1.5
		c0.8,0.1,1.5-0.5,1.5-1.3c0.1-0.8-0.5-1.5-1.3-1.5S264.6,190.2,264.6,190.9z M263.3,170.8c0,0.2,0.1,0.4,0.4,0.4
		c0.2,0,0.4-0.2,0.4-0.4s-0.1-0.4-0.4-0.4C263.6,170.5,263.4,170.6,263.3,170.8z M262.2,178.8c0,0.4,0.3,0.8,0.7,0.9
		s0.8-0.3,0.9-0.7s-0.3-0.8-0.7-0.9S262.3,178.3,262.2,178.8z M261.1,186.7c-0.1,0.7,0.4,1.2,1.1,1.3s1.2-0.4,1.3-1.1
		s-0.4-1.2-1.1-1.3S261.2,186,261.1,186.7z M260,194.5c-0.1,0.9,0.6,1.7,1.5,1.7c0.9,0.1,1.7-0.6,1.7-1.5c0.1-0.9-0.6-1.7-1.5-1.7
		C260.9,193,260.1,193.7,260,194.5z M259.9,166.5c0,0.1,0.1,0.2,0.2,0.2s0.2-0.1,0.2-0.2s-0.1-0.2-0.2-0.2S259.9,166.4,259.9,166.5z
		 M258.8,174.5c0,0.3,0.2,0.6,0.5,0.7c0.3,0,0.6-0.2,0.7-0.5c0-0.3-0.2-0.6-0.5-0.7C259.1,173.9,258.8,174.1,258.8,174.5z
		 M257.7,182.4c0,0.5,0.4,1,0.9,1.1c0.5,0,1-0.4,1.1-0.9c0-0.5-0.4-1-0.9-1.1C258.2,181.4,257.8,181.8,257.7,182.4z M256.6,190.3
		c-0.1,0.8,0.5,1.5,1.3,1.5c0.8,0.1,1.5-0.5,1.5-1.3c0.1-0.8-0.5-1.5-1.3-1.5C257.4,189,256.7,189.6,256.6,190.3z M255.4,170.1
		c0,0.2,0.2,0.4,0.4,0.4s0.4-0.1,0.4-0.4c0-0.2-0.2-0.4-0.4-0.4C255.6,169.8,255.4,169.9,255.4,170.1L255.4,170.1z M254.3,178.1
		c0,0.4,0.3,0.8,0.7,0.9s0.8-0.3,0.9-0.7c0.1-0.4-0.3-0.8-0.7-0.9S254.3,177.6,254.3,178.1z M253.2,186c-0.1,0.7,0.4,1.2,1.1,1.3
		s1.2-0.4,1.3-1.1c0.1-0.7-0.4-1.2-1.1-1.3C253.8,184.9,253.2,185.4,253.2,186z M252.1,193.9c-0.1,0.9,0.6,1.7,1.5,1.7
		c0.9,0.1,1.7-0.6,1.7-1.5c0.1-0.9-0.6-1.7-1.5-1.7S252.2,193.1,252.1,193.9z M251.9,165.9c0,0.1,0.1,0.2,0.2,0.2s0.2-0.1,0.2-0.2
		s-0.1-0.2-0.2-0.2C252,165.7,251.9,165.8,251.9,165.9z M250.8,173.9c0,0.3,0.2,0.6,0.5,0.7c0.3,0,0.6-0.2,0.7-0.5
		c0-0.3-0.2-0.6-0.5-0.7C251.1,173.2,250.9,173.5,250.8,173.9z M249.7,181.7c0,0.5,0.4,1,0.9,1.1c0.5,0,1-0.4,1.1-0.9
		s-0.4-1-0.9-1.1S249.8,181.1,249.7,181.7z M248.6,189.6c-0.1,0.8,0.5,1.5,1.3,1.5c0.8,0.1,1.4-0.5,1.5-1.3s-0.5-1.5-1.3-1.5
		C249.4,188.3,248.7,188.9,248.6,189.6z M247.4,169.5c0,0.2,0.2,0.4,0.4,0.4s0.4-0.2,0.4-0.4s-0.1-0.4-0.4-0.4
		C247.6,169.2,247.4,169.3,247.4,169.5z M246.3,177.5c0,0.4,0.3,0.8,0.7,0.9s0.8-0.3,0.9-0.7c0-0.4-0.3-0.8-0.7-0.9
		C246.7,176.7,246.3,177,246.3,177.5z M245.2,185.3c-0.1,0.7,0.4,1.2,1.1,1.3s1.2-0.4,1.3-1.1s-0.4-1.2-1.1-1.3
		S245.3,184.7,245.2,185.3z M244.1,193.2c-0.1,0.9,0.6,1.7,1.5,1.7c0.9,0.1,1.7-0.6,1.7-1.5c0.1-0.9-0.6-1.7-1.5-1.7
		S244.2,192.4,244.1,193.2z M243.9,165.2c0,0.1,0.1,0.2,0.2,0.2s0.2-0.1,0.2-0.2s-0.1-0.2-0.2-0.2L243.9,165.2z M242.9,173.2
		c0,0.3,0.2,0.6,0.5,0.7c0.3,0,0.6-0.2,0.7-0.5c0-0.3-0.2-0.6-0.5-0.7C243.2,172.6,242.9,172.8,242.9,173.2z M241.8,181.1
		c0,0.5,0.4,1,0.9,1.1c0.5,0,1-0.4,1.1-0.9c0-0.5-0.4-1-0.9-1.1C242.3,180.1,241.8,180.5,241.8,181.1z M240.7,188.9
		c-0.1,0.8,0.5,1.5,1.3,1.5c0.8,0.1,1.5-0.5,1.5-1.3c0.1-0.8-0.5-1.5-1.3-1.5S240.7,188.2,240.7,188.9z M239.4,168.8
		c0,0.2,0.2,0.4,0.4,0.4s0.4-0.1,0.4-0.4c0-0.2-0.2-0.4-0.4-0.4C239.6,168.5,239.4,168.6,239.4,168.8z M238.3,176.8
		c0,0.4,0.3,0.8,0.7,0.9s0.8-0.3,0.9-0.7s-0.3-0.8-0.7-0.9S238.4,176.3,238.3,176.8z M237.2,184.7c-0.1,0.7,0.4,1.2,1.1,1.3
		s1.2-0.4,1.3-1.1s-0.4-1.2-1.1-1.3C237.9,183.6,237.3,184.1,237.2,184.7z M236.1,192.5c-0.1,0.9,0.6,1.7,1.5,1.7s1.7-0.6,1.7-1.5
		s-0.6-1.7-1.5-1.7C237,191,236.2,191.7,236.1,192.5z M235,200.5c-0.1,1.1,0.7,2.1,1.8,2.2c1.1,0.1,2.1-0.7,2.2-1.8
		c0.1-1.1-0.7-2.1-1.8-2.2C236.1,198.6,235.1,199.4,235,200.5z M233.8,180.4c0,0.5,0.4,1,0.9,1.1c0.5,0,1-0.4,1.1-0.9
		c0-0.5-0.4-1-0.9-1.1S233.8,179.8,233.8,180.4z M232.7,188.3c-0.1,0.8,0.5,1.5,1.3,1.5c0.8,0.1,1.5-0.5,1.5-1.3
		c0.1-0.8-0.5-1.5-1.3-1.5S232.8,187.6,232.7,188.3z M231.6,196.2c-0.1,1,0.6,1.9,1.6,2s1.9-0.6,2-1.6s-0.6-1.9-1.6-2
		S231.7,195.2,231.6,196.2z M230.5,204.1c-0.1,1.2,0.8,2.3,2,2.4c1.2,0.1,2.3-0.8,2.4-2c0.1-1.2-0.8-2.3-2-2.4
		S230.6,202.9,230.5,204.1z M227.1,199.8c-0.1,1.1,0.7,2.1,1.8,2.2c1.1,0.1,2.1-0.7,2.2-1.8c0.1-1.1-0.7-2.1-1.8-2.2
		C228.1,197.9,227.2,198.7,227.1,199.8z M228.1,210.3c1.3,0.1,2.5-0.9,2.6-2.2s-0.9-2.5-2.2-2.6s-2.5,0.9-2.6,2.2
		C225.8,209,226.8,210.2,228.1,210.3z M234.6,212.5c0.1-1.4-0.9-2.7-2.4-2.8c-1.4-0.1-2.7,0.9-2.8,2.4c-0.1,1.4,0.9,2.7,2.4,2.8
		C233.2,215,234.5,213.9,234.6,212.5z M236.1,211c1.3,0.1,2.5-0.9,2.6-2.2s-0.9-2.5-2.2-2.6s-2.5,0.9-2.6,2.2
		C233.8,209.7,234.8,210.9,236.1,211z M242.6,213.2c0.1-1.4-0.9-2.7-2.4-2.8c-1.4-0.1-2.7,0.9-2.8,2.4c-0.1,1.4,0.9,2.7,2.4,2.8
		C241.2,215.7,242.4,214.6,242.6,213.2z M244.1,211.7c1.3,0.1,2.5-0.9,2.6-2.2s-0.9-2.5-2.2-2.6s-2.5,0.9-2.6,2.2
		C241.8,210.4,242.8,211.6,244.1,211.7z M250.5,213.9c0.1-1.4-0.9-2.7-2.4-2.8c-1.4-0.1-2.7,0.9-2.8,2.4c-0.1,1.4,0.9,2.7,2.4,2.8
		S250.4,215.3,250.5,213.9z M252.1,212.4c1.3,0.1,2.5-0.9,2.6-2.2s-0.9-2.5-2.2-2.6c-1.3-0.1-2.5,0.9-2.6,2.2
		C249.8,211.1,250.7,212.3,252.1,212.4z M258.5,214.6c0.1-1.4-0.9-2.7-2.4-2.8c-1.4-0.1-2.7,0.9-2.8,2.4c-0.1,1.4,0.9,2.7,2.4,2.8
		C257.1,217.1,258.4,216,258.5,214.6z M260,213.1c1.3,0.1,2.5-0.9,2.6-2.2s-0.9-2.5-2.2-2.6c-1.3-0.1-2.5,0.9-2.6,2.2
		C257.7,211.8,258.7,213,260,213.1z M266.4,215.3c0.1-1.4-0.9-2.7-2.4-2.8c-1.4-0.1-2.7,0.9-2.8,2.4s0.9,2.7,2.4,2.8
		C265,217.7,266.2,216.6,266.4,215.3z M270.5,211.6c0.1-1.3-0.9-2.5-2.2-2.6c-1.3-0.1-2.5,0.9-2.6,2.2s0.9,2.5,2.2,2.6
		S270.4,212.9,270.5,211.6z M274.6,208c0.1-1.2-0.8-2.3-2-2.4c-1.2-0.1-2.3,0.8-2.4,2s0.8,2.3,2,2.4
		C273.5,210.1,274.5,209.2,274.6,208z M274.9,200c0.1-1-0.6-1.9-1.6-2s-1.9,0.6-2,1.6s0.6,1.9,1.6,2C274,201.7,274.8,201,274.9,200z
		 M275.2,192c0.1-0.8-0.5-1.5-1.3-1.5c-0.8-0.1-1.5,0.5-1.5,1.3c-0.1,0.8,0.5,1.5,1.3,1.5S275.2,192.7,275.2,192z M275.5,184
		c0-0.5-0.4-1-0.9-1.1c-0.5,0-1,0.4-1.1,0.9c0,0.5,0.4,1,0.9,1.1C275,184.9,275.5,184.5,275.5,184z M275.8,176.1
		c0-0.3-0.2-0.6-0.5-0.7c-0.3,0-0.6,0.2-0.7,0.5c0,0.3,0.2,0.6,0.5,0.7C275.5,176.6,275.8,176.4,275.8,176.1z M279.1,196.3
		c0.1-0.9-0.6-1.7-1.5-1.7c-0.9-0.1-1.7,0.6-1.7,1.5c-0.1,0.9,0.6,1.7,1.5,1.7C278.2,197.9,279,197.2,279.1,196.3z M279.4,188.3
		c0.1-0.7-0.4-1.2-1.1-1.3s-1.2,0.4-1.3,1.1s0.4,1.2,1.1,1.3C278.7,189.5,279.3,189,279.4,188.3z M279.7,180.3
		c0-0.4-0.3-0.8-0.7-0.9c-0.4,0-0.8,0.3-0.9,0.7c0,0.4,0.3,0.8,0.7,0.9C279.2,181.1,279.6,180.7,279.7,180.3z M280,172.4
		c0-0.2-0.1-0.4-0.4-0.4c-0.2,0-0.4,0.1-0.4,0.4c0,0.2,0.1,0.4,0.4,0.4C279.7,172.8,279.9,172.6,280,172.4z M283.5,184.6
		c0-0.5-0.4-1-0.9-1.1c-0.5,0-1,0.4-1.1,0.9c0,0.5,0.4,1,0.9,1.1C283,185.6,283.4,185.2,283.5,184.6z M283.8,176.7
		c0-0.3-0.2-0.6-0.5-0.7c-0.3,0-0.6,0.2-0.7,0.5c0,0.3,0.2,0.6,0.5,0.7C283.5,177.2,283.8,177,283.8,176.7z M284.1,168.8
		c0-0.1-0.1-0.2-0.2-0.2s-0.2,0.1-0.2,0.2s0.1,0.2,0.2,0.2C284,168.9,284.1,168.9,284.1,168.8z M287.9,173c0-0.2-0.2-0.4-0.4-0.4
		s-0.4,0.1-0.4,0.4c0,0.2,0.2,0.4,0.4,0.4S287.9,173.2,287.9,173z M292.1,169.5c0-0.1-0.1-0.2-0.2-0.2s-0.2,0.1-0.2,0.2
		s0.1,0.2,0.2,0.2C292,169.6,292.1,169.6,292.1,169.5z M359.2,381.6c0,0.1,0.2,0.1,0.3,0.1s0.1-0.2,0.1-0.3s-0.2-0.1-0.3-0.1
		C359.2,381.4,359.2,381.5,359.2,381.6z M357.1,387c0.1,0.2,0.3,0.3,0.5,0.2c0.2-0.1,0.3-0.3,0.2-0.5c-0.1-0.2-0.3-0.3-0.5-0.2
		S357,386.8,357.1,387z M355.8,374.3c0,0.1,0.2,0.1,0.3,0.1s0.1-0.2,0.1-0.3s-0.2-0.1-0.3-0.1C355.8,374.1,355.8,374.2,355.8,374.3z
		 M353.7,379.7c0.1,0.2,0.3,0.3,0.5,0.2s0.3-0.3,0.2-0.5c-0.1-0.2-0.3-0.3-0.5-0.2C353.7,379.3,353.6,379.5,353.7,379.7z
		 M352.9,397.7c0.2,0.4,0.7,0.6,1.1,0.4s0.6-0.7,0.4-1.1s-0.7-0.6-1.1-0.4C352.8,396.8,352.7,397.3,352.9,397.7z M352.4,367.1
		c0,0.1,0.2,0.1,0.3,0.1s0.1-0.2,0.1-0.3s-0.2-0.1-0.3-0.1C352.4,366.9,352.4,367,352.4,367.1z M351.6,385.1
		c0.1,0.3,0.5,0.4,0.8,0.3s0.4-0.5,0.3-0.8s-0.5-0.4-0.8-0.3S351.5,384.8,351.6,385.1z M351.2,401.8c-0.5,0.2-0.7,0.8-0.5,1.3
		s0.8,0.7,1.3,0.5s0.7-0.8,0.5-1.3C352.3,401.7,351.7,401.5,351.2,401.8z M350.3,372.5c0.1,0.2,0.3,0.3,0.5,0.2s0.3-0.3,0.2-0.5
		s-0.3-0.3-0.5-0.2C350.3,372,350.2,372.3,350.3,372.5z M349.5,390.5c0.2,0.4,0.7,0.6,1.1,0.4s0.6-0.7,0.4-1.1s-0.7-0.6-1.1-0.4
		C349.5,389.7,349.3,390.1,349.5,390.5z M348.2,377.9c0.1,0.3,0.5,0.4,0.8,0.3s0.4-0.5,0.3-0.8s-0.5-0.4-0.8-0.3
		S348.1,377.6,348.2,377.9z M347.8,394.5c-0.5,0.2-0.7,0.8-0.5,1.3s0.8,0.7,1.3,0.5s0.7-0.8,0.5-1.3S348.3,394.3,347.8,394.5z
		 M333,400.6c-0.9,0.4-1.3,1.5-0.9,2.4s1.5,1.3,2.4,0.9s1.3-1.5,0.9-2.4C335,400.5,333.9,400.1,333,400.6z M334.3,397.5
		c0.4,0.8,1.3,1.1,2.1,0.8c0.8-0.4,1.1-1.3,0.8-2.1s-1.3-1.1-2.1-0.8C334.2,395.8,333.9,396.7,334.3,397.5z M331,405.7
		c-1,0.5-1.4,1.7-1,2.7c0.5,1,1.7,1.4,2.7,1c1-0.5,1.4-1.7,1-2.7C333.2,405.7,332,405.2,331,405.7z M331.9,411.9
		c-0.5-1.1-1.8-1.6-2.9-1.1s-1.6,1.8-1.1,2.9s1.8,1.6,2.9,1.1S332.4,413,331.9,411.9z M330.3,399.4c-0.5-1-1.7-1.4-2.7-1
		c-1,0.5-1.4,1.7-1,2.7c0.5,1,1.7,1.4,2.7,1C330.3,401.6,330.7,400.4,330.3,399.4z M325.7,403.6c-1.1,0.5-1.6,1.8-1.1,2.9
		s1.8,1.6,2.9,1.1s1.6-1.8,1.1-2.9C328,403.5,326.8,403.1,325.7,403.6z M323.7,408.7c-1.2,0.6-1.7,2-1.2,3.2s2,1.7,3.2,1.2
		s1.7-2,1.2-3.2S324.9,408.1,323.7,408.7z M325.9,419.1c0.6,1.2,2,1.7,3.2,1.2s1.7-2,1.2-3.2c-0.6-1.2-2-1.7-3.2-1.2
		S325.3,417.9,325.9,419.1z M329.2,426.3c0.6,1.2,2,1.7,3.2,1.2s1.7-2,1.2-3.2c-0.6-1.2-2-1.7-3.2-1.2S328.7,425.1,329.2,426.3z
		 M334.2,422.1c1.1-0.5,1.6-1.8,1.1-2.9s-1.8-1.6-2.9-1.1s-1.6,1.8-1.1,2.9S333.1,422.6,334.2,422.1z M336.1,416.6
		c1-0.5,1.4-1.7,1-2.7c-0.5-1-1.7-1.4-2.7-1c-1,0.5-1.4,1.7-1,2.7C333.9,416.6,335.1,417,336.1,416.6z M337.9,411.1
		c0.9-0.4,1.3-1.5,0.9-2.4s-1.5-1.3-2.4-0.9s-1.3,1.5-0.9,2.4S337,411.5,337.9,411.1z M340.4,397.5c-0.7,0.3-1,1.2-0.7,1.9
		c0.3,0.7,1.2,1,1.9,0.7c0.7-0.3,1-1.2,0.7-1.9S341.1,397.2,340.4,397.5z M341.9,394c0.3,0.6,1,0.9,1.6,0.6s0.9-1,0.6-1.6
		s-1-0.9-1.6-0.6S341.6,393.4,341.9,394z M338.4,402.7c-0.8,0.4-1.1,1.3-0.8,2.1s1.3,1.1,2.1,0.8c0.8-0.4,1.1-1.3,0.8-2.1
		S339.2,402.3,338.4,402.7z M338.9,417.4c0.4,0.9,1.5,1.3,2.4,0.9s1.3-1.5,0.9-2.4s-1.5-1.3-2.4-0.9
		C338.9,415.5,338.5,416.5,338.9,417.4z M343.1,412.8c0.8-0.4,1.1-1.3,0.8-2.1c-0.4-0.8-1.3-1.1-2.1-0.8c-0.8,0.4-1.1,1.3-0.8,2.1
		C341.4,412.8,342.3,413.2,343.1,412.8z M345,407.3c0.7-0.3,1-1.2,0.7-1.9c-0.3-0.7-1.2-1-1.9-0.7c-0.7,0.3-1,1.2-0.7,1.9
		C343.5,407.3,344.3,407.6,345,407.3z M346.8,401.8c0.6-0.3,0.9-1,0.6-1.6s-1-0.9-1.6-0.6s-0.9,1-0.6,1.6S346.2,402.1,346.8,401.8z
		 M346.1,383.3c0.2,0.4,0.7,0.6,1.1,0.4s0.6-0.7,0.4-1.1s-0.7-0.6-1.1-0.4S345.9,382.9,346.1,383.3z M344.8,370.6
		c0.1,0.3,0.5,0.4,0.8,0.3s0.4-0.5,0.3-0.8s-0.5-0.4-0.8-0.3C344.8,370,344.7,370.3,344.8,370.6z M344.5,387.4
		c-0.5,0.2-0.7,0.8-0.5,1.3s0.8,0.7,1.3,0.5s0.7-0.8,0.5-1.3C345.6,387.3,345,387.1,344.5,387.4z M342.7,376.1
		c0.2,0.4,0.7,0.6,1.1,0.4s0.6-0.7,0.4-1.1s-0.7-0.6-1.1-0.4S342.5,375.6,342.7,376.1z M340.6,381.4c0.2,0.5,0.8,0.7,1.3,0.5
		s0.7-0.8,0.5-1.3s-0.8-0.7-1.3-0.5S340.4,380.9,340.6,381.4z M338.5,386.8c0.3,0.6,1,0.9,1.6,0.6s0.9-1,0.6-1.6s-1-0.9-1.6-0.6
		S338.2,386.2,338.5,386.8z M337.1,390.3c-0.7,0.3-1,1.2-0.7,1.9s1.2,1,1.9,0.7c0.7-0.3,1-1.2,0.7-1.9
		C338.6,390.3,337.8,390,337.1,390.3z M335.1,379.6c0.3,0.6,1,0.9,1.6,0.6s0.9-1,0.6-1.6s-1-0.9-1.6-0.6S334.8,379,335.1,379.6z
		 M333,385c0.3,0.7,1.2,1,1.9,0.7c0.7-0.3,1-1.2,0.7-1.9c-0.3-0.7-1.2-1-1.9-0.7C333,383.5,332.7,384.3,333,385z M330.9,390.3
		c0.4,0.8,1.3,1.1,2.1,0.8s1.1-1.3,0.8-2.1s-1.3-1.1-2.1-0.8C330.9,388.5,330.5,389.5,330.9,390.3z M328.8,395.7
		c0.4,0.9,1.5,1.3,2.4,0.9s1.3-1.5,0.9-2.4s-1.5-1.3-2.4-0.9C328.7,393.7,328.3,394.8,328.8,395.7z M325.5,388.4
		c0.4,0.9,1.5,1.3,2.4,0.9s1.3-1.5,0.9-2.4s-1.5-1.3-2.4-0.9C325.4,386.5,325.1,387.5,325.5,388.4z M323.4,393.8
		c0.5,1,1.7,1.4,2.7,1c1-0.5,1.4-1.7,1-2.7c-0.5-1-1.7-1.4-2.7-1C323.3,391.6,322.9,392.8,323.4,393.8z M321.3,399.2
		c0.5,1.1,1.8,1.6,2.9,1.1s1.6-1.8,1.1-2.9s-1.8-1.6-2.9-1.1C321.2,396.8,320.7,398.1,321.3,399.2z M320.3,401.5
		c-1.2,0.6-1.7,2-1.2,3.2c0.6,1.2,2,1.7,3.2,1.2s1.7-2,1.2-3.2S321.5,400.9,320.3,401.5z M315.8,397.4c0.6,1.2,2,1.7,3.2,1.2
		s1.7-2,1.2-3.2c-0.6-1.2-2-1.7-3.2-1.2S315.2,396.2,315.8,397.4z M317.1,404c1.3-0.6,1.9-2.2,1.3-3.5s-2.2-1.9-3.5-1.3
		s-1.9,2.2-1.3,3.5C314.2,404.1,315.8,404.7,317.1,404z M320.5,411.3c1.3-0.6,1.9-2.2,1.3-3.5s-2.2-1.9-3.5-1.3s-1.9,2.2-1.3,3.5
		S319.2,411.8,320.5,411.3z M323.9,418.5c1.3-0.6,1.9-2.2,1.3-3.5s-2.2-1.9-3.5-1.3s-1.9,2.2-1.3,3.5S322.6,419.1,323.9,418.5z
		 M327.2,425.7c1.3-0.6,1.9-2.2,1.3-3.5s-2.2-1.9-3.5-1.3s-1.9,2.2-1.3,3.5C324.4,425.7,325.9,426.3,327.2,425.7z M331.8,429.5
		c-0.6-1.3-2.2-1.9-3.5-1.3s-1.9,2.2-1.3,3.5s2.2,1.9,3.5,1.3C331.8,432.3,332.4,430.8,331.8,429.5z M336.9,431.5
		c-0.6-1.2-2-1.7-3.2-1.2c-1.2,0.6-1.7,2-1.2,3.2s2,1.7,3.2,1.2S337.5,432.7,336.9,431.5z M338.7,426.3c-0.5-1.1-1.8-1.6-2.9-1.1
		s-1.6,1.8-1.1,2.9s1.8,1.6,2.9,1.1S339.2,427.4,338.7,426.3z M340.4,421.1c-0.5-1-1.7-1.4-2.7-1c-1,0.5-1.4,1.7-1,2.7
		c0.5,1,1.7,1.4,2.7,1C340.4,423.2,340.9,422.1,340.4,421.1z M343.8,428.3c-0.5-1-1.7-1.4-2.7-1c-1,0.5-1.4,1.7-1,2.7
		c0.5,1,1.7,1.4,2.7,1C343.8,430.5,344.3,429.3,343.8,428.3z M345.6,423.1c-0.4-0.9-1.5-1.3-2.4-0.9s-1.3,1.5-0.9,2.4
		s1.5,1.3,2.4,0.9C345.6,425,346,424,345.6,423.1z M347.3,417.9c-0.4-0.8-1.3-1.1-2.1-0.8s-1.1,1.3-0.8,2.1c0.4,0.8,1.3,1.1,2.1,0.8
		S347.7,418.6,347.3,417.9z M349.1,412.7c-0.3-0.7-1.2-1-1.9-0.7c-0.7,0.3-1,1.2-0.7,1.9c0.3,0.7,1.2,1,1.9,0.7
		C349.1,414.2,349.4,413.4,349.1,412.7z M350.2,409.1c0.6-0.3,0.9-1,0.6-1.6s-1-0.9-1.6-0.6s-0.9,1-0.6,1.6S349.6,409.3,350.2,409.1
		z M352.4,420c-0.3-0.7-1.2-1-1.9-0.7c-0.7,0.3-1,1.2-0.7,1.9c0.3,0.7,1.2,1,1.9,0.7C352.5,421.4,352.8,420.6,352.4,420z
		 M354.1,414.7c-0.3-0.6-1-0.9-1.6-0.6s-0.9,1-0.6,1.6s1,0.9,1.6,0.6S354.4,415.3,354.1,414.7z M355.8,409.5
		c-0.2-0.5-0.8-0.7-1.3-0.5s-0.7,0.8-0.5,1.3s0.8,0.7,1.3,0.5C355.9,410.6,356.1,410,355.8,409.5z M356,391.8
		c-0.1-0.3-0.5-0.4-0.8-0.3s-0.4,0.5-0.3,0.8s0.5,0.4,0.8,0.3C356,392.4,356.1,392.1,356,391.8z M357.2,405.3
		c0.4-0.2,0.6-0.7,0.4-1.1s-0.7-0.6-1.1-0.4s-0.6,0.7-0.4,1.1S356.8,405.5,357.2,405.3z M359.2,416.8c-0.2-0.5-0.8-0.7-1.3-0.5
		s-0.7,0.8-0.5,1.3s0.8,0.7,1.3,0.5S359.5,417.3,359.2,416.8z M359.4,399c-0.1-0.3-0.5-0.4-0.8-0.3s-0.4,0.5-0.3,0.8
		s0.5,0.4,0.8,0.3S359.5,399.3,359.4,399z M361,411.5c-0.2-0.4-0.7-0.6-1.1-0.4s-0.6,0.7-0.4,1.1s0.7,0.6,1.1,0.4
		S361.2,411.9,361,411.5z M361.1,393.8c-0.1-0.2-0.3-0.3-0.5-0.2c-0.2,0.1-0.3,0.3-0.2,0.5c0.1,0.2,0.3,0.3,0.5,0.2
		S361.2,394,361.1,393.8z M362.7,406.3c-0.1-0.3-0.5-0.4-0.8-0.3s-0.4,0.5-0.3,0.8s0.5,0.4,0.8,0.3
		C362.7,406.9,362.9,406.6,362.7,406.3z M362.9,388.6c0-0.1-0.2-0.1-0.3-0.1s-0.1,0.2-0.1,0.3s0.2,0.1,0.3,0.1
		C362.9,388.8,362.9,388.7,362.9,388.6z M364.5,401.1c-0.1-0.2-0.3-0.3-0.5-0.2s-0.3,0.3-0.2,0.5c0.1,0.2,0.3,0.3,0.5,0.2
		S364.6,401.3,364.5,401.1z M366.1,413.5c-0.1-0.3-0.5-0.4-0.8-0.3s-0.4,0.5-0.3,0.8s0.5,0.4,0.8,0.3S366.2,413.8,366.1,413.5z
		 M366.2,395.8c0-0.1-0.2-0.1-0.3-0.1s-0.1,0.2-0.1,0.3s0.2,0.1,0.3,0.1C366.2,396,366.3,395.9,366.2,395.8z M367.9,408.3
		c-0.1-0.2-0.3-0.3-0.5-0.2s-0.3,0.3-0.2,0.5c0.1,0.2,0.3,0.3,0.5,0.2C367.9,408.8,368,408.5,367.9,408.3z M369.6,403.1
		c0-0.1-0.2-0.1-0.3-0.1s-0.1,0.2-0.1,0.3s0.2,0.1,0.3,0.1C369.6,403.3,369.7,403.2,369.6,403.1z M310,407.8c-0.3,0.2-0.7,0.2-1,0.3
		c0.3,0.3,0.5,0.6,0.7,1s0.3,0.8,0.3,1.2c0.2-0.2,0.5-0.5,0.9-0.6c0.5-0.3,1.1-0.3,1.7-0.3c-0.4-0.3-0.8-0.7-1-1.2s-0.3-1-0.2-1.5
		C311,407.1,310.6,407.5,310,407.8L310,407.8z M227.5,218.6c-0.6,0-1-0.3-1.5-0.6c0.3,0.5,0.4,1.1,0.3,1.7c0,0.4-0.1,0.7-0.3,1
		c0.4-0.1,0.8-0.2,1.2-0.1c0.4,0,0.8,0.2,1.2,0.3c-0.1-0.3-0.1-0.7-0.1-1c0.1-0.6,0.3-1.1,0.6-1.6
		C228.6,218.5,228.1,218.6,227.5,218.6L227.5,218.6z M318,421.1c-0.1,0.1-0.2,0.3-0.3,0.4c0.1,0.1,0.2,0.3,0.3,0.4V421.1z
		 M235.4,219.3c-0.5,0-1-0.3-1.4-0.6c0.3,0.5,0.4,1.1,0.3,1.7c0,0.4-0.1,0.7-0.3,1c0.4-0.1,0.8-0.2,1.2-0.1l0,0c0.3,0,0.7-0.1,1-0.1
		v-0.6c0.1-0.6,0.3-1.2,0.6-1.6C236.5,219.2,235.9,219.3,235.4,219.3L235.4,219.3z M243.4,220c-0.5,0-1-0.3-1.4-0.6
		c0.2,0.4,0.3,0.7,0.3,1.2c0.7-0.1,1.5-0.1,2.2-0.2c0.1-0.3,0.2-0.5,0.4-0.7C244.4,219.9,243.9,220,243.4,220L243.4,220z M302.9,400
		h0.3c-0.2-0.2-0.5-0.5-0.6-0.9l0,0c-0.1,0-0.1,0.1-0.2,0.1C302.6,399.5,302.7,399.7,302.9,400L302.9,400z"/>
</g>
<circle class="st1" cx="322.8" cy="323.1" r="10"/>
</svg>
